<?xml version="1.0" encoding="UTF-8"?>
<svg version="1.1" xmlns="http://www.w3.org/2000/svg" width="180" height="180">
<path d="M0 0 C59.4 0 118.8 0 180 0 C180 59.4 180 118.8 180 180 C120.6 180 61.2 180 0 180 C0 120.6 0 61.2 0 0 Z " fill="#11959A" transform="translate(0,0)"/>
<path d="M0 0 C2.86873847 1.78910571 5.42892141 3.8104363 8 6 C8.56847656 6.44859375 9.13695312 6.8971875 9.72265625 7.359375 C12.58941744 9.64151413 15.05977031 11.87407438 17 15 C17 15.66 17 16.32 17 17 C17.66 17 18.32 17 19 17 C19.37125 16.1646875 19.37125 16.1646875 19.75 15.3125 C24.42368109 6.66618999 33.19510289 0.99444562 42.2890625 -2.34765625 C49.74540613 -4.14190609 57.85794461 -3.80080603 65 -1 C65.94746094 -0.63261719 65.94746094 -0.63261719 66.9140625 -0.2578125 C74.61186585 3.10068858 80.2779245 8.49910933 83.4375 16.3125 C83.98170233 17.86701518 84.50603458 19.42879926 85 21 C85.33 21.99 85.66 22.98 86 24 C86.91970847 33.06139002 85.44985934 40.28059242 80.046875 47.671875 C74.64190529 54.05956647 68.45183621 59.45780448 60 61 C47.9313752 61.86610131 38.87463763 60.34856754 29 53 C28.154375 52.38125 27.30875 51.7625 26.4375 51.125 C23.57597288 48.63033533 21.36168313 45.96897308 19 43 C16.32036332 44.05271441 15.03969157 44.94896798 13.25 47.25 C8.0624952 53.59028365 1.47811792 56.97462034 -6 60 C-6.99 60.495 -6.99 60.495 -8 61 C-20.43141427 61.88588349 -29.56442276 61.04360213 -39.375 52.6875 C-46.53614181 45.81819155 -49.52052077 38.9455424 -50.3125 29.125 C-49.96710006 18.76300189 -45.45043826 11.25694095 -38.125 4.25 C-26.84116651 -3.87436011 -12.93762989 -6.04056587 0 0 Z " fill="#F3FAFA" transform="translate(72,61)"/>
<path d="M0 0 C26.4 0 52.8 0 80 0 C80 0.33 80 0.66 80 1 C78.83984375 1.23074219 77.6796875 1.46148437 76.484375 1.69921875 C59.21035007 5.25154587 44.47555565 11.34546539 31 23 C30.34 23 29.68 23 29 23 C28.67 23.99 28.34 24.98 28 26 C26.86521925 27.13478075 25.72767324 28.26690021 24.578125 29.38671875 C10.81954043 43.45180644 3.93034786 60.75995286 1 80 C0.67 80 0.34 80 0 80 C0 53.6 0 27.2 0 0 Z " fill="#FBFCFC" transform="translate(0,0)"/>
<path d="M0 0 C0.33 0 0.66 0 1 0 C1.20753906 1.11375 1.41507812 2.2275 1.62890625 3.375 C6.24536128 26.77226817 16.89659496 48.11318637 37 62 C50.78659821 71.23241345 63.90536657 75.79895624 80 79 C80 79.33 80 79.66 80 80 C53.6 80 27.2 80 0 80 C0 53.6 0 27.2 0 0 Z " fill="#F9FCFC" transform="translate(0,100)"/>
<path d="M0 0 C26.73 0 53.46 0 81 0 C81 26.4 81 52.8 81 80 C80.67 80 80.34 80 80 80 C79.65388672 78.25976562 79.65388672 78.25976562 79.30078125 76.484375 C74.47783054 53.04136263 63.63596861 30.54659503 43.16943359 16.76757812 C29.69860421 8.28682429 15.6087594 3.68890393 0 1 C0 0.67 0 0.34 0 0 Z " fill="#FCFCFC" transform="translate(99,0)"/>
<path d="M0 0 C0.33 0 0.66 0 1 0 C1 26.07 1 52.14 1 79 C-25.73 79 -52.46 79 -80 79 C-80 78.67 -80 78.34 -80 78 C-79.03320312 77.81824219 -78.06640625 77.63648438 -77.0703125 77.44921875 C-51.35611492 72.53502352 -31.09161659 61.60993174 -15.375 40.1875 C-7.1954769 28.06693395 -2.10877097 14.46662234 0 0 Z " fill="#FAFCFC" transform="translate(179,101)"/>
<path d="M0 0 C4.1976604 3.72261653 7.60359714 8.07913682 8.37109375 13.734375 C8.50330415 19.73828264 8.30299068 24.29994259 4.69921875 29.24609375 C-0.18108084 34.28346046 -6.06315728 38.09868653 -13.1875 38.25 C-21.45531872 38.11621653 -28.05913428 34.65796736 -34 29 C-41.10522073 20.72825049 -41.10522073 20.72825049 -40.84375 16.43359375 C-38.18264762 8.75828457 -31.02305426 1.75583911 -23.9921875 -2.1015625 C-15.56881023 -5.63607767 -7.81215715 -4.48088612 0 0 Z " fill="#188C90" transform="translate(138,73)"/>
<path d="M0 0 C7.08478772 3.81384167 14.04680135 9.40884607 17.0390625 17.09765625 C16.891795 22.16499708 15.21714821 24.60159883 11.7890625 28.22265625 C11.02078125 29.05023438 10.2525 29.8778125 9.4609375 30.73046875 C3.3240731 36.72875879 -2.24425677 40.11388217 -10.8984375 40.59765625 C-16.51201257 40.44993059 -21.94621501 38.11237874 -25.9609375 34.09765625 C-26.00157582 32.4314851 -26.0036585 30.7637753 -25.9609375 29.09765625 C-25.3421875 28.85015625 -24.7234375 28.60265625 -24.0859375 28.34765625 C-21.50224864 27.08726371 -21.50224864 27.08726371 -19.9609375 23.09765625 C-13.0309375 23.09765625 -6.1009375 23.09765625 1.0390625 23.09765625 C1.0390625 20.78765625 1.0390625 18.47765625 1.0390625 16.09765625 C-5.8909375 16.09765625 -12.8209375 16.09765625 -19.9609375 16.09765625 C-19.9609375 17.74765625 -19.9609375 19.39765625 -19.9609375 21.09765625 C-20.9509375 20.76765625 -21.9409375 20.43765625 -22.9609375 20.09765625 C-23.2909375 19.10765625 -23.6209375 18.11765625 -23.9609375 17.09765625 C-24.6209375 16.76765625 -25.2809375 16.43765625 -25.9609375 16.09765625 C-25.9196875 17.37640625 -25.8784375 18.65515625 -25.8359375 19.97265625 C-25.765625 22.15234375 -25.765625 22.15234375 -25.9609375 24.09765625 C-27.29427083 25.43098958 -28.62760417 26.76432292 -29.9609375 28.09765625 C-33.10475765 23.38192603 -32.58800234 18.34129163 -31.53125 12.875 C-29.38707424 6.00569616 -24.68780398 2.61258207 -18.5859375 -0.77734375 C-12.15676665 -2.77260367 -6.22511211 -2.66613367 0 0 Z " fill="#139A9D" transform="translate(65.9609375,70.90234375)"/>
<path d="M0 0 C0 0.66 0 1.32 0 2 C0.66 2.33 1.32 2.66 2 3 C2 3.99 2 4.98 2 6 C-1.33333333 5.33333333 -4.66666667 4.66666667 -8 4 C-8 2.68 -8 1.36 -8 0 C-9.79503184 0.20111561 -11.5862074 0.4368851 -13.375 0.6875 C-14.37273437 0.81511719 -15.37046875 0.94273438 -16.3984375 1.07421875 C-19.24418405 1.75510016 -19.24418405 1.75510016 -20.3515625 4.58203125 C-20.56554687 5.37996094 -20.77953125 6.17789063 -21 7 C-20.34 7 -19.68 7 -19 7 C-19 5.68 -19 4.36 -19 3 C-18.34 3 -17.68 3 -17 3 C-17.03255208 5.05078125 -17.06510417 7.1015625 -17.09765625 9.15234375 C-17.20561184 11.01732141 -17.20561184 11.01732141 -16 12 C-16 10.02 -16 8.04 -16 6 C-13.69 6 -11.38 6 -9 6 C-9 8.31 -9 10.62 -9 13 C-7.02 13 -5.04 13 -3 13 C-3 14.98 -3 16.96 -3 19 C-4.98 19 -6.96 19 -9 19 C-9 21.31 -9 23.62 -9 26 C-11.31 26 -13.62 26 -16 26 C-16 24.02 -16 22.04 -16 20 C-18.31 20 -20.62 20 -23 20 C-23.33 20.66 -23.66 21.32 -24 22 C-23.34 22 -22.68 22 -22 22 C-22.54723683 25.37462715 -23.0549 27.08235 -25 30 C-25.99 29.67 -26.98 29.34 -28 29 C-28 28.34 -28 27.68 -28 27 C-28.61875 26.731875 -29.2375 26.46375 -29.875 26.1875 C-32 25 -32 25 -34 22 C-34.66 22.33 -35.32 22.66 -36 23 C-37.7780648 20.51070929 -38.97863091 18.7906562 -39.0625 15.6875 C-35.85361159 7.5708999 -28.79947694 0.50407493 -21.125 -3.5 C-13.56367847 -4.70981144 -6.93521597 -2.95388828 0 0 Z " fill="#1A959A" transform="translate(136,74)"/>
<path d="M0 0 C0.66 0 1.32 0 2 0 C2 0.66 2 1.32 2 2 C2.99 2 3.98 2 5 2 C7.32086397 7.324335 6.91457003 11.43842552 6 17 C5.01 17.33 4.02 17.66 3 18 C2.34 17.34 1.68 16.68 1 16 C0.67 18.64 0.34 21.28 0 24 C1.32 22.68 2.64 21.36 4 20 C3.625 22.9375 3.625 22.9375 3 26 C2.01 26.495 2.01 26.495 1 27 C0.7525 27.9075 0.505 28.815 0.25 29.75 C-1.91868546 35.38858221 -6.1850416 37.82173354 -11.4375 40.3125 C-18.52388492 42.97258674 -27.62897456 43.42312456 -34.85546875 41.0703125 C-37.07850648 39.96081826 -38.26060635 38.73939365 -40 37 C-40.845625 36.731875 -41.69125 36.46375 -42.5625 36.1875 C-45 35 -45 35 -46.3125 31.875 C-46.539375 30.92625 -46.76625 29.9775 -47 29 C-44.1875 27.875 -44.1875 27.875 -41 27 C-40.01 27.66 -39.02 28.32 -38 29 C-35.03051296 29.63205949 -32.02543814 29.78836363 -29 30 C-27.89205078 30.11601563 -27.89205078 30.11601563 -26.76171875 30.234375 C-20.27208394 30.64934277 -15.37592015 28.56774447 -10 25 C-7.63637584 22.50626957 -7.63637584 22.50626957 -6 20 C-5.3090625 19.56558594 -4.618125 19.13117188 -3.90625 18.68359375 C-1.74071623 17.14361495 -1.74071623 17.14361495 -1.6796875 14.51171875 C-1.74414062 13.57972656 -1.80859375 12.64773437 -1.875 11.6875 C-2.04872113 7.32130893 -1.7633641 4.07777948 0 0 Z " fill="#F9FBFC" transform="translate(149,80)"/>
<path d="M0 0 C1.32 0 2.64 0 4 0 C4 1.32 4 2.64 4 4 C4.66 4 5.32 4 6 4 C5.4121875 5.11375 5.4121875 5.11375 4.8125 6.25 C4.544375 7.1575 4.27625 8.065 4 9 C5.26352052 11.32511472 5.26352052 11.32511472 7 13 C6.67 13.66 6.34 14.32 6 15 C5.34 15 4.68 15 4 15 C3.67 15.66 3.34 16.32 3 17 C2.34 16.67 1.68 16.34 1 16 C0.896875 16.61875 0.79375 17.2375 0.6875 17.875 C0 20 0 20 -3 22 C-7.74091916 23.35454833 -13.28796484 24.23020152 -17.89453125 22.140625 C-19.60684484 21.11099853 -21.30387328 20.0560789 -23 19 C-25.77138597 18.22514168 -25.77138597 18.22514168 -28 18 C-27.67 16.35 -27.34 14.7 -27 13 C-26.01 12.67 -25.02 12.34 -24 12 C-23.34 10.68 -22.68 9.36 -22 8 C-15.07 8 -8.14 8 -1 8 C-0.02391783 5.07175348 0.08226668 3.04386724 0 0 Z " fill="#129A9F" transform="translate(68,86)"/>
<path d="M0 0 C5.49925195 3.01149512 9.55995161 7.13249064 12 13 C11.87332308 18.06707694 10.17503109 20.50716915 6.75 24.125 C5.98171875 24.95257813 5.2134375 25.78015625 4.421875 26.6328125 C-1.7149894 32.63110254 -7.28331927 36.01622592 -15.9375 36.5 C-21.41453769 36.34738904 -25.65704545 34.26463554 -30 31 C-30.33 30.34 -30.66 29.68 -31 29 C-24.57777778 29.62962963 -24.57777778 29.62962963 -21.5625 31.5625 C-16.85769725 34.20177959 -12.19696698 33.23167103 -7.125 32.25 C-3.56440032 30.82576013 -3.48257341 30.28284113 -2 27 C0.625 26.25 0.625 26.25 3 26 C2.44998422 24.34995265 1.89413992 22.70166705 1.3125 21.0625 C0.91419993 18.43371952 1.6453733 17.23114986 3 15 C2.34 15 1.68 15 1 15 C1 13.68 1 12.36 1 11 C-0.32 11 -1.64 11 -3 11 C-2.79375 12.11375 -2.5875 13.2275 -2.375 14.375 C-2.25125 15.57125 -2.1275 16.7675 -2 18 C-2.66 18.66 -3.32 19.32 -4 20 C-4 17.36 -4 14.72 -4 12 C-10.6 12 -17.2 12 -24 12 C-24 11.67 -24 11.34 -24 11 C-23.36497559 10.91435791 -22.72995117 10.82871582 -22.07568359 10.74047852 C-19.17532581 10.34877417 -16.27516225 9.95564936 -13.375 9.5625 C-12.37597656 9.42779297 -11.37695312 9.29308594 -10.34765625 9.15429688 C-5.55202374 8.50323418 -0.76744562 7.83796399 4 7 C3.34 6.21625 2.68 5.4325 2 4.625 C0 2 0 2 0 0 Z M-1 19 C1 20 1 20 1 20 Z " fill="#1D97A1" transform="translate(71,75)"/>
<path d="M0 0 C0.70705078 -0.02449219 1.41410156 -0.04898438 2.14257812 -0.07421875 C5.62913677 -0.09386133 7.51195495 0.0250594 10.24609375 2.2734375 C10.80425781 2.96695313 11.36242187 3.66046875 11.9375 4.375 C12.9275 5.035 13.9175 5.695 14.9375 6.375 C14.6075 7.695 14.2775 9.015 13.9375 10.375 C12.86371094 10.29121094 11.78992188 10.20742187 10.68359375 10.12109375 C9.24742378 10.0178397 7.81122419 9.91499706 6.375 9.8125 C5.31829102 9.72838867 5.31829102 9.72838867 4.24023438 9.64257812 C-1.43304623 9.25041587 -6.61403812 9.55884604 -12.0625 11.375 C-15.25 9.9375 -15.25 9.9375 -18.0625 8.375 C-12.80638068 1.46695747 -8.79371762 0.01612047 0 0 Z " fill="#F9FCFA" transform="translate(57.0625,58.625)"/>
<path d="M0 0 C0.99 0.33 1.98 0.66 3 1 C3.33 1.99 3.66 2.98 4 4 C4.66 4.33 5.32 4.66 6 5 C6 3.35 6 1.7 6 0 C12.93 0 19.86 0 27 0 C27 2.31 27 4.62 27 7 C26.44014404 7.02505615 25.88028809 7.0501123 25.3034668 7.07592773 C22.76458695 7.19203745 20.22606447 7.3146958 17.6875 7.4375 C16.80642578 7.47681641 15.92535156 7.51613281 15.01757812 7.55664062 C14.17001953 7.59853516 13.32246094 7.64042969 12.44921875 7.68359375 C11.66893311 7.72025146 10.88864746 7.75690918 10.0847168 7.79467773 C7.80670899 7.94125263 7.80670899 7.94125263 5 9 C4.67 9.99 4.34 10.98 4 12 C3.01 12.33 2.02 12.66 1 13 C-0.20882096 15.00016466 -0.20882096 15.00016466 -1 17 C-2.625 14.8125 -2.625 14.8125 -4 12 C-3.33719617 9.56971928 -2.7989028 7.7989028 -1 6 C-0.63371323 4.00577205 -0.29868656 2.00546689 0 0 Z " fill="#0E999F" transform="translate(40,87)"/>
<path d="M0 0 C2.31 0 4.62 0 7 0 C7 2.31 7 4.62 7 7 C8.98 7 10.96 7 13 7 C13 8.98 13 10.96 13 13 C11.02 13 9.04 13 7 13 C7 15.31 7 17.62 7 20 C4.69 20 2.38 20 0 20 C0 18.02 0 16.04 0 14 C-2.31 14 -4.62 14 -7 14 C-7 11.69 -7 9.38 -7 7 C-4.69 7 -2.38 7 0 7 C0 4.69 0 2.38 0 0 Z " fill="#CFF0F0" transform="translate(120,80)"/>
<path d="M0 0 C4.27990445 0.47554494 6.12698311 2.98683595 9 6 C17.54203021 13.61856748 25.93406569 15.47489141 37.15625 15.29296875 C42.38548874 14.89439872 46.36142609 13.31085319 51 11 C53.62890625 9.8125 53.62890625 9.8125 56 9 C58.3125 9.875 58.3125 9.875 60 11 C59.67 11.66 59.34 12.32 59 13 C56.56640625 13.5625 56.56640625 13.5625 53.5625 14 C49.29735299 14.49105951 49.29735299 14.49105951 46 17 C44.08984375 17.37890625 44.08984375 17.37890625 41.9375 17.5625 C38.23263383 17.55913448 38.23263383 17.55913448 37 19 C34.30764224 19.23678716 31.63501844 19.42198025 28.9375 19.5625 C27.79958008 19.62727539 27.79958008 19.62727539 26.63867188 19.69335938 C24.75934562 19.79973633 22.87969756 19.90039934 21 20 C21 18.35 21 16.7 21 15 C19.9275 14.87625 18.855 14.7525 17.75 14.625 C14.57618837 14.09603139 12.73415587 13.51897548 10 12 C9.34 12 8.68 12 8 12 C6.81640625 10.3203125 6.81640625 10.3203125 5.5625 8.125 C3.82669206 5.08869645 3.01345998 4.00897332 0 2 C0 1.34 0 0.68 0 0 Z " fill="#228F8E" transform="translate(91,106)"/>
<path d="M0 0 C-3.93733158 10.30307725 -20.29747806 17.68870707 -29.81835938 22.08837891 C-38.09103648 25.54520257 -47.02042819 27.68041579 -56 27 C-56.66 26.01 -57.32 25.02 -58 24 C-57.10796875 24.02320313 -56.2159375 24.04640625 -55.296875 24.0703125 C-54.12640625 24.08835938 -52.9559375 24.10640625 -51.75 24.125 C-50.58984375 24.14820313 -49.4296875 24.17140625 -48.234375 24.1953125 C-45.17213954 24.0103949 -43.55797249 23.60823023 -41 22 C-41.33 21.01 -41.66 20.02 -42 19 C-40.7625 18.87625 -39.525 18.7525 -38.25 18.625 C-32.46046401 17.98787403 -26.73623704 16.99971644 -21 16 C-20.505 14.515 -20.505 14.515 -20 13 C-17.68191636 11.96514123 -15.34824702 10.9644586 -13 10 C-12.67 9.34 -12.34 8.68 -12 8 C-7.5 5 -7.5 5 -5 5 C-4.67 4.01 -4.34 3.02 -4 2 C-4.66 1.34 -5.32 0.68 -6 0 C-2.25 -1.125 -2.25 -1.125 0 0 Z " fill="#209395" transform="translate(154,152)"/>
<path d="M0 0 C0.66 0.33 1.32 0.66 2 1 C1.09507813 2.50626953 1.09507813 2.50626953 0.171875 4.04296875 C-6.83615141 15.93949949 -10.91186696 27.2897581 -13 41 C-13.33 41 -13.66 41 -14 41 C-14 30.77 -14 20.54 -14 10 C-9 9 -9 9 -6 9 C-5.01 7.02 -4.02 5.04 -3 3 C-2.34 3 -1.68 3 -1 3 C-0.67 2.01 -0.34 1.02 0 0 Z " fill="#F8FCFA" transform="translate(14,39)"/>
<path d="M0 0 C0.98693848 0.01546875 1.97387695 0.0309375 2.99072266 0.046875 C9.49632127 0.17572 15.98281961 0.44775813 22.4375 1.3125 C22.1075 2.6325 21.7775 3.9525 21.4375 5.3125 C24.08767018 6.73223403 26.50395502 7.67078704 29.4375 8.3125 C30.77083333 8.64583333 32.10416667 8.97916667 33.4375 9.3125 C32.7775 9.3125 32.1175 9.3125 31.4375 9.3125 C32.21880071 11.80802484 32.21880071 11.80802484 33.4375 14.3125 C34.4275 14.6425 35.4175 14.9725 36.4375 15.3125 C35.9425 12.8375 35.9425 12.8375 35.4375 10.3125 C36.0975 9.9825 36.7575 9.6525 37.4375 9.3125 C37.4375 9.9725 37.4375 10.6325 37.4375 11.3125 C39.4175 11.6425 41.3975 11.9725 43.4375 12.3125 C41.60499123 15.4539436 39.80051977 18.53852027 37.4375 21.3125 C36.7775 21.3125 36.1175 21.3125 35.4375 21.3125 C34.2109375 19.7734375 34.2109375 19.7734375 32.8125 17.6875 C27.0043058 9.7276019 18.18828222 4.15293802 8.4375 2.3125 C0.475037 1.88611655 -6.87061361 2.19060031 -14.5625 4.3125 C-10.87884585 -1.13243485 -5.92850844 -0.18093308 0 0 Z " fill="#2B9599" transform="translate(53.5625,56.6875)"/>
<path d="M0 0 C5.31359482 5.81965147 6.58703585 13.59117903 6.3515625 21.22265625 C5.42671399 28.52895951 2.64487701 34.29593582 -3 39 C-2.67 37.35 -2.34 35.7 -2 34 C-1.34 34 -0.68 34 0 34 C0 32.35 0 30.7 0 29 C-1.32 30.32 -2.64 31.64 -4 33 C-3.505 28.545 -3.505 28.545 -3 24 C-1.33333333 24 0.33333333 24 2 24 C3.08407007 17.79123506 2.96473491 13.94556318 0.703125 8.0859375 C-0.22134976 5.34332904 -0.22050879 2.8666143 0 0 Z " fill="#EBFAF7" transform="translate(152,72)"/>
<path d="M0 0 C0.33 0 0.66 0 1 0 C1 2.31 1 4.62 1 7 C1.66 7.33 2.32 7.66 3 8 C2.34 9.32 1.68 10.64 1 12 C1.99 12.33 2.98 12.66 4 13 C3.9143595 18.22407025 3.9143595 18.22407025 3 21 C-2.12645865 24.4176391 -6.97868537 24.36865192 -13 24 C-13 23.67 -13 23.34 -13 23 C-10.36 23 -7.72 23 -5 23 C-5 22.34 -5 21.68 -5 21 C-4.01 20.67 -3.02 20.34 -2 20 C-1.67 19.34 -1.34 18.68 -1 18 C-2.32 17.67 -3.64 17.34 -5 17 C-4.98839844 16.37351562 -4.97679687 15.74703125 -4.96484375 15.1015625 C-4.95130859 13.87566406 -4.95130859 13.87566406 -4.9375 12.625 C-4.92589844 11.81289062 -4.91429687 11.00078125 -4.90234375 10.1640625 C-4.85533666 7.95062858 -4.85533666 7.95062858 -6 6 C-4.02 6 -2.04 6 0 6 C0 4.02 0 2.04 0 0 Z " fill="#27949A" transform="translate(133,87)"/>
<path d="M0 0 C0.969375 0.86625 1.93875 1.7325 2.9375 2.625 C6.50870379 5.70589507 10.30179335 8.27209227 14.27734375 10.80078125 C14.84582031 11.19652344 15.41429688 11.59226562 16 12 C16 12.33 16 12.66 16 13 C12.53058454 12.54177532 9.32604951 12.10868317 6 11 C5.34 11.66 4.68 12.32 4 13 C3.34 12.67 2.68 12.34 2 12 C2.46853622 14.99405579 2.46853622 14.99405579 4 18 C7.52451159 19.46022435 7.52451159 19.46022435 11 20 C11 20.99 11 21.98 11 23 C5.51061335 20.1333203 0.50979359 17.27852212 -4 13 C-4 12.34 -4 11.68 -4 11 C-3.195625 10.38125 -2.39125 9.7625 -1.5625 9.125 C1.03064129 6.97459015 1.65220835 6.24605542 2 3 C1.34 3 0.68 3 0 3 C0 2.01 0 1.02 0 0 Z " fill="#E0F7F9" transform="translate(100,97)"/>
<path d="M0 0 C6.27 0 12.54 0 19 0 C19 1.98 19 3.96 19 6 C12.73 6 6.46 6 0 6 C0 4.02 0 2.04 0 0 Z " fill="#E4FEFE" transform="translate(47,87)"/>
<path d="M0 0 C0.33 0 0.66 0 1 0 C0.16965067 12.45524001 -4.3950237 23.50687263 -11 34 C-11.99 34.495 -11.99 34.495 -13 35 C-12.67 32.69 -12.34 30.38 -12 28 C-11.01 28 -10.02 28 -9 28 C-9.03480469 27.14277344 -9.06960937 26.28554687 -9.10546875 25.40234375 C-9.39130435 13.32919255 -9.39130435 13.32919255 -6 8 C-3.8125 7.0625 -3.8125 7.0625 -2 7 C-1.34 4.69 -0.68 2.38 0 0 Z " fill="#098788" transform="translate(177,105)"/>
<path d="M0 0 C13.97480333 -0.47822521 31.31184544 5.79631135 42 15 C42 15.66 42 16.32 42 17 C42.66 17.33 43.32 17.66 44 18 C43.01 18 42.02 18 41 18 C41 17.34 41 16.68 41 16 C40.401875 15.87625 39.80375 15.7525 39.1875 15.625 C37 15 37 15 34 13 C27.16502857 9.55913887 20.53011676 6.47649348 13 5 C13 4.34 13 3.68 13 3 C11.80375 3.020625 10.6075 3.04125 9.375 3.0625 C5.81995131 3.06882571 2.49444376 2.69888875 -1 2 C-0.67 1.34 -0.34 0.68 0 0 Z " fill="#308D8D" transform="translate(99,1)"/>
<path d="M0 0 C-6.45248023 6.26371086 -11.8238789 9.95064726 -20.9375 10.5 C-26.41453769 10.34738904 -30.65704545 8.26463554 -35 5 C-35.33 4.34 -35.66 3.68 -36 3 C-29.57777778 3.62962963 -29.57777778 3.62962963 -26.5625 5.5625 C-21.85769725 8.20177959 -17.19696698 7.23167103 -12.125 6.25 C-8.56696327 4.82678531 -8.44765978 4.30893663 -7 1 C-2.6097561 -1.30487805 -2.6097561 -1.30487805 0 0 Z " fill="#2F9695" transform="translate(76,101)"/>
<path d="M0 0 C0 0.66 0 1.32 0 2 C-0.75925781 2.20496094 -1.51851562 2.40992188 -2.30078125 2.62109375 C-3.29464844 2.89050781 -4.28851563 3.15992188 -5.3125 3.4375 C-6.29863281 3.70433594 -7.28476563 3.97117188 -8.30078125 4.24609375 C-10.21517526 4.78079425 -12.11433615 5.37144538 -14 6 C-15.1446875 6.1546875 -15.1446875 6.1546875 -16.3125 6.3125 C-19.18517087 6.86458354 -19.18517087 6.86458354 -21.75 9.0625 C-25.98206037 11.58545907 -29.20033327 11.38397334 -34 11 C-25.43782194 4.22320885 -10.940218 0 0 0 Z " fill="#35989A" transform="translate(82,0)"/>
<path d="M0 0 C0 0.33 0 0.66 0 1 C-1.16015625 1.23074219 -2.3203125 1.46148437 -3.515625 1.69921875 C-12.83984856 3.62164632 -21.31240579 6.00519172 -30 10 C-30.99 10.33 -31.98 10.66 -33 11 C-33 10.01 -33 9.02 -33 8 C-32.34 8 -31.68 8 -31 8 C-30.67 6.68 -30.34 5.36 -30 4 C-26.94152152 3.45627049 -24.11227195 3 -21 3 C-19.49123588 2.52710378 -17.99206875 2.02319294 -16.5 1.5 C-10.93727164 -0.2475828 -5.78322846 -0.29685773 0 0 Z " fill="#E2FAFC" transform="translate(80,0)"/>
<path d="M0 0 C0.66 0.66 1.32 1.32 2 2 C1.1875 3.9375 1.1875 3.9375 0 6 C-0.99 6.33 -1.98 6.66 -3 7 C-3.33 7.66 -3.66 8.32 -4 9 C-4.66 9 -5.32 9 -6 9 C-6 9.99 -6 10.98 -6 12 C-6.99 11.67 -7.98 11.34 -9 11 C-9 10.34 -9 9.68 -9 9 C-15.27 9 -21.54 9 -28 9 C-28 8.67 -28 8.34 -28 8 C-27.09378906 7.97421875 -26.18757813 7.9484375 -25.25390625 7.921875 C-17.65095213 7.56787502 -11.63561896 6.79579898 -5 3 C-3.4840625 2.13375 -3.4840625 2.13375 -1.9375 1.25 C-1.298125 0.8375 -0.65875 0.425 0 0 Z " fill="#2A9898" transform="translate(78,114)"/>
<path d="M0 0 C5.66880158 3.10434372 9.18372255 7.15316313 12 13 C12.2468331 17.19616265 10.99204157 19.22586685 8.4375 22.375 C7.633125 23.24125 6.82875 24.1075 6 25 C5.67 24.34 5.34 23.68 5 23 C6.14186589 20.05017979 7.67281553 18.11562225 10 16 C9.01 15.67 8.02 15.34 7 15 C7 14.01 7 13.02 7 12 C6.34 12 5.68 12 5 12 C4.34 10.35 3.68 8.7 3 7 C3.66 7 4.32 7 5 7 C4.175 6.21625 3.35 5.4325 2.5 4.625 C0 2 0 2 0 0 Z " fill="#1A9799" transform="translate(71,75)"/>
<path d="M0 0 C0.99 0.33 1.98 0.66 3 1 C-5.27609795 8.84051385 -13.53555268 10.45035367 -24.6796875 10.3359375 C-27.78849229 10.0213996 -29.33143232 9.45749883 -32 8 C-31.16021606 7.970271 -31.16021606 7.970271 -30.3034668 7.93994141 C-27.76434146 7.84462217 -25.22603112 7.73497247 -22.6875 7.625 C-21.80642578 7.5940625 -20.92535156 7.563125 -20.01757812 7.53125 C-19.17001953 7.49257812 -18.32246094 7.45390625 -17.44921875 7.4140625 C-16.27879028 7.36693115 -16.27879028 7.36693115 -15.0847168 7.31884766 C-12.69844232 7.10412111 -12.69844232 7.10412111 -10 5 C-8.02734375 4.7265625 -8.02734375 4.7265625 -5.9375 4.625 C-1.97102947 4.47074403 -1.97102947 4.47074403 -0.5 1.9375 C-0.335 1.298125 -0.17 0.65875 0 0 Z " fill="#D9F5F6" transform="translate(145,112)"/>
<path d="M0 0 C3 0 3 0 4.5 1.25 C9.52698705 7.11481822 13.26615501 14.27154336 13.25 22.1875 C13.1675 23.115625 13.085 24.04375 13 25 C11.52802873 22.7920431 10.32763538 20.7729339 9.16015625 18.41796875 C8.81919922 17.73283203 8.47824219 17.04769531 8.12695312 16.34179688 C7.77568359 15.63087891 7.42441406 14.91996094 7.0625 14.1875 C6.71509766 13.48818359 6.36769531 12.78886719 6.00976562 12.06835938 C5.32752219 10.69487871 4.64602326 9.32102794 3.96533203 7.94677734 C2.65018507 5.29453104 1.3255958 2.64703612 0 0 Z " fill="#DEF9F9" transform="translate(163,37)"/>
<path d="M0 0 C0 0.66 0 1.32 0 2 C0.66 2.33 1.32 2.66 2 3 C2 3.99 2 4.98 2 6 C-1.33333333 5.33333333 -4.66666667 4.66666667 -8 4 C-8 2.68 -8 1.36 -8 0 C-10.97 0 -13.94 0 -17 0 C-17 -0.66 -17 -1.32 -17 -2 C-10.79798677 -3.5948034 -6.03169942 -1.77402924 0 0 Z " fill="#0F9596" transform="translate(136,74)"/>
<path d="M0 0 C0.99 0 1.98 0 3 0 C3 2.31 3 4.62 3 7 C4.65 7 6.3 7 8 7 C8 8.32 8 9.64 8 11 C6.35 11 4.7 11 3 11 C3 12.65 3 14.3 3 16 C2.01 16 1.02 16 0 16 C0 10.72 0 5.44 0 0 Z " fill="#FBF9FB" transform="translate(122,81)"/>
<path d="M0 0 C0.86625 0.37125 0.86625 0.37125 1.75 0.75 C1.75 1.41 1.75 2.07 1.75 2.75 C1.42 3.08 1.09 3.41 0.75 3.75 C1.41 4.08 2.07 4.41 2.75 4.75 C2.09 5.41 1.43 6.07 0.75 6.75 C-0.24 6.75 -1.23 6.75 -2.25 6.75 C-2.25 9.39 -2.25 12.03 -2.25 14.75 C-3.57 15.08 -4.89 15.41 -6.25 15.75 C-6.35841951 13.83458862 -6.43578079 11.91740227 -6.5 10 C-6.54640625 8.93265625 -6.5928125 7.8653125 -6.640625 6.765625 C-6.25 3.75 -6.25 3.75 -4.375 1.34375 C-2.25 -0.25 -2.25 -0.25 0 0 Z " fill="#03989E" transform="translate(42.25,80.25)"/>
<path d="M0 0 C5.61 0 11.22 0 17 0 C17 0.33 17 0.66 17 1 C18.04800781 1.25523438 18.04800781 1.25523438 19.1171875 1.515625 C20.02726562 1.75796875 20.93734375 2.0003125 21.875 2.25 C23.23238281 2.59804687 23.23238281 2.59804687 24.6171875 2.953125 C27 4 27 4 28.3203125 6.109375 C28.54460937 6.73328125 28.76890625 7.3571875 29 8 C28.12601563 7.72736328 28.12601563 7.72736328 27.234375 7.44921875 C18.29907865 4.70962317 9.30840575 2.05777338 0 1 C0 0.67 0 0.34 0 0 Z " fill="#DAF6F7" transform="translate(99,0)"/>
<path d="M0 0 C4.27990445 0.47554494 6.12698311 2.98683595 9 6 C12.98523633 9.55439997 17.21895263 11.73779469 22 14 C23.33472318 14.6638797 24.66845077 15.329777 26 16 C23.23975889 17.38012056 22.03040064 16.59705421 19.125 15.6875 C18.26132813 15.42324219 17.39765625 15.15898438 16.5078125 14.88671875 C14 14 14 14 11.8046875 12.89453125 C10.03704561 11.85196401 10.03704561 11.85196401 8 12 C6.81640625 10.3203125 6.81640625 10.3203125 5.5625 8.125 C3.82669206 5.08869645 3.01345998 4.00897332 0 2 C0 1.34 0 0.68 0 0 Z " fill="#308F8D" transform="translate(91,106)"/>
<path d="M0 0 C-0.375 1.9375 -0.375 1.9375 -1 4 C-1.99 4.495 -1.99 4.495 -3 5 C-3 4.34 -3 3.68 -3 3 C-6.24849977 4.72226496 -6.24849977 4.72226496 -7 8 C-7.99 8 -8.98 8 -10 8 C-10 9.32 -10 10.64 -10 12 C-10.99 12 -11.98 12 -13 12 C-14.24199497 14.98078794 -15.24316389 17.8645361 -16 21 C-16.33 21.66 -16.66 22.32 -17 23 C-17.66 22.34 -18.32 21.68 -19 21 C-19 15.69052742 -15.34535916 11.78949678 -12 8 C-3.72360845 0 -3.72360845 0 0 0 Z " fill="#319194" transform="translate(116,71)"/>
<path d="M0 0 C-1.53293498 4.09096146 -4.4279343 6.26592788 -7.8125 8.8125 C-8.38274902 9.2453833 -8.95299805 9.6782666 -9.54052734 10.12426758 C-15.27728024 14.37304529 -21.36250759 18.31984636 -28 21 C-28.99 20.67 -29.98 20.34 -31 20 C-29.68 19.67 -28.36 19.34 -27 19 C-27 18.34 -27 17.68 -27 17 C-25.02 16.67 -23.04 16.34 -21 16 C-20.67 15.01 -20.34 14.02 -20 13 C-17.68191636 11.96514123 -15.34824702 10.9644586 -13 10 C-12.67 9.34 -12.34 8.68 -12 8 C-7.5 5 -7.5 5 -5 5 C-4.67 4.01 -4.34 3.02 -4 2 C-4.66 1.34 -5.32 0.68 -6 0 C-2.25 -1.125 -2.25 -1.125 0 0 Z " fill="#1E7D7E" transform="translate(154,152)"/>
<path d="M0 0 C3.07619727 -0.18095278 5.11901082 0.04128947 8.0625 1.0625 C11.0213497 2.00681373 12.16693174 2.08964164 15 1 C15 2.66666667 15 4.33333333 15 6 C16.63604196 7.37073786 18.30678061 8.70055256 20 10 C21.0173873 10.98230498 22.02596117 11.97469597 23 13 C22.34 13.66 21.68 14.32 21 15 C20.13375 14.175 19.2675 13.35 18.375 12.5 C12.87324405 7.73864599 6.35458803 4.4725488 0 1 C0 0.67 0 0.34 0 0 Z " fill="#DDF6F7" transform="translate(128,8)"/>
<path d="M0 0 C0.68707555 2.49064888 1 4.37886292 1 7 C2.25 8.75 2.25 8.75 4 10 C4.99 10 5.98 10 7 10 C7.33 11.65 7.66 13.3 8 15 C8.99 15.33 9.98 15.66 11 16 C10.67 16.99 10.34 17.98 10 19 C9.46632812 18.40832031 8.93265625 17.81664063 8.3828125 17.20703125 C3.09281046 11.59670037 -1.87915598 7.95834647 -9 5 C-6.23776722 2.23776722 -3.79293383 2.42143709 0 2 C0 1.34 0 0.68 0 0 Z " fill="#178C8C" transform="translate(143,54)"/>
<path d="M0 0 C5.61207903 1.87069301 8.13088416 9.02225686 11 14 C11.47695312 14.825 11.95390625 15.65 12.4453125 16.5 C15.10814756 21.41600318 15.10814756 21.41600318 14.58984375 24.21484375 C14.39519531 24.80394531 14.20054687 25.39304687 14 26 C13.34 26 12.68 26 12 26 C11.67 23.03 11.34 20.06 11 17 C10.34 17 9.68 17 9 17 C4.99520493 13.87125385 4.28344883 10.79154229 3 6 C2.04175747 4.63634717 1.05278825 3.29205831 0 2 C0 1.34 0 0.68 0 0 Z " fill="#228183" transform="translate(159,34)"/>
<path d="M0 0 C2.3125 0.1875 2.3125 0.1875 4 1 C2.625 3 2.625 3 1 5 C0.34 5 -0.32 5 -1 5 C-1 5.99 -1 6.98 -1 8 C-1.99 8 -2.98 8 -4 8 C-4.33 8.99 -4.66 9.98 -5 11 C-5.99 11.33 -6.98 11.66 -8 12 C-9.68538601 13.99665314 -9.68538601 13.99665314 -11 16 C-11.66 14.68 -12.32 13.36 -13 12 C-12.48050781 11.55269531 -11.96101563 11.10539062 -11.42578125 10.64453125 C-10.37970703 9.73767578 -10.37970703 9.73767578 -9.3125 8.8125 C-8.58160156 8.17957031 -7.85070312 7.54664063 -7.09765625 6.89453125 C-5.36354497 5.32834136 -3.80841813 3.73428977 -2.25 2 C-1.5075 1.34 -0.765 0.68 0 0 Z " fill="#029896" transform="translate(33,22)"/>
<path d="M0 0 C0.33 0.66 0.66 1.32 1 2 C0.67 2.66 0.34 3.32 0 4 C0.66 4 1.32 4 2 4 C2 4.66 2 5.32 2 6 C0.36368108 7.04892238 -1.30485863 8.04906703 -3 9 C-4.2998644 10.0731148 -4.2998644 10.0731148 -4.09765625 12.6171875 C-4.08605469 13.69226563 -4.07445312 14.76734375 -4.0625 15.875 C-4.05347656 16.94492188 -4.04445312 18.01484375 -4.03515625 19.1171875 C-4.02355469 20.06851563 -4.01195312 21.01984375 -4 22 C-4 22.99 -4 23.98 -4 25 C-6.04377361 23.32929618 -6.92036564 22.43955045 -7.3984375 19.80078125 C-7.33207128 12.75490101 -6.56441378 6.9307586 -1.8125 1.5 C-1.214375 1.005 -0.61625 0.51 0 0 Z " fill="#29999B" transform="translate(41,74)"/>
<path d="M0 0 C5.56735077 6.09757465 6.33417908 13.79955833 6.30078125 21.71484375 C6 24 6 24 4 26 C3.96261719 25.31035156 3.92523438 24.62070313 3.88671875 23.91015625 C3.48807212 18.21185441 2.6145771 13.36446538 0.6328125 8.015625 C-0.2184826 5.30409245 -0.21660846 2.81590996 0 0 Z " fill="#CBF1EE" transform="translate(152,72)"/>
<path d="M0 0 C0 0.66 0 1.32 0 2 C-1.32 2.33 -2.64 2.66 -4 3 C-3.95875 4.11375 -3.9175 5.2275 -3.875 6.375 C-4 10 -4 10 -6 12 C-6 9.36 -6 6.72 -6 4 C-12.6 4 -19.2 4 -26 4 C-26 3.67 -26 3.34 -26 3 C-22.41727273 2.49559207 -18.83372823 1.99724229 -15.25 1.5 C-13.72632813 1.28537109 -13.72632813 1.28537109 -12.171875 1.06640625 C-10.70234375 0.86337891 -10.70234375 0.86337891 -9.203125 0.65625 C-7.85202637 0.46772461 -7.85202637 0.46772461 -6.47363281 0.27539062 C-4 0 -4 0 0 0 Z " fill="#249194" transform="translate(73,83)"/>
<path d="M0 0 C0.66 0.33 1.32 0.66 2 1 C2 1.66 2 2.32 2 3 C1.34 3 0.68 3 0 3 C-0.27714844 3.57105469 -0.55429687 4.14210938 -0.83984375 4.73046875 C-1.99338455 6.98705867 -3.26688026 9.13508533 -4.5625 11.3125 C-6.78238816 15.23451814 -7.45077452 18.51465859 -8 23 C-8.99 23.66 -9.98 24.32 -11 25 C-12.25700954 21.44407461 -12.07399555 20.16347854 -10.48828125 16.66015625 C-9.77776375 15.45214418 -9.05193601 14.25303042 -8.3125 13.0625 C-7.78366211 12.17014648 -7.78366211 12.17014648 -7.24414062 11.25976562 C-4.95082879 7.42360415 -2.50351759 3.70158921 0 0 Z " fill="#248F8E" transform="translate(19,34)"/>
<path d="M0 0 C0.33 0 0.66 0 1 0 C1.375 2.25 1.375 2.25 1 5 C-1.875 7.125 -1.875 7.125 -5 9 C-5.99 10.485 -5.99 10.485 -7 12 C-9.56675597 14.69838448 -11.89548863 16.93032576 -15 19 C-15.99 18.34 -16.98 17.68 -18 17 C-17.28714844 16.443125 -16.57429687 15.88625 -15.83984375 15.3125 C-10.45743369 11.02395793 -5.59463457 6.77523334 -1.2421875 1.43359375 C-0.83226562 0.96050781 -0.42234375 0.48742187 0 0 Z " fill="#DBF6F6" transform="translate(160,146)"/>
<path d="M0 0 C0.33 0 0.66 0 1 0 C0.96519531 0.87140625 0.93039063 1.7428125 0.89453125 2.640625 C0.70619286 10.92751405 1.5627685 18.07899761 4 26 C1.69 25.34 -0.62 24.68 -3 24 C-2.8453125 23.18015625 -2.690625 22.3603125 -2.53125 21.515625 C-1.82994962 16.87466659 -1.62117258 12.25423333 -1.39453125 7.5703125 C-1.10323661 2.20647321 -1.10323661 2.20647321 0 0 Z " fill="#14898E" transform="translate(22,80)"/>
<path d="M0 0 C0.33 0 0.66 0 1 0 C1 1.98 1 3.96 1 6 C7.27 6 13.54 6 20 6 C20 4.02 20 2.04 20 0 C20.33 0 20.66 0 21 0 C21 2.31 21 4.62 21 7 C20.44014404 7.02505615 19.88028809 7.0501123 19.3034668 7.07592773 C16.76458695 7.19203745 14.22606447 7.3146958 11.6875 7.4375 C10.36588867 7.49647461 10.36588867 7.49647461 9.01757812 7.55664062 C7.74624023 7.61948242 7.74624023 7.61948242 6.44921875 7.68359375 C5.66893311 7.72025146 4.88864746 7.75690918 4.0847168 7.79467773 C1.80670899 7.94125263 1.80670899 7.94125263 -1 9 C-1 9.66 -1 10.32 -1 11 C-2.65 11 -4.3 11 -6 11 C-6 10.34 -6 9.68 -6 9 C-4.68 8.34 -3.36 7.68 -2 7 C-2 6.01 -2 5.02 -2 4 C-1.34 4.33 -0.68 4.66 0 5 C0 3.35 0 1.7 0 0 Z " fill="#4DACB4" transform="translate(46,87)"/>
<path d="M0 0 C1.84214506 4.8284796 -0.4966635 8.33120532 -2.453125 12.8046875 C-4.67462821 17.39355018 -7.24194822 21.71601579 -10 26 C-11.33332095 23.3333581 -10.67102033 21.83319697 -10 19 C-9.01 19 -8.02 19 -7 19 C-6.82984375 18.29875 -6.6596875 17.5975 -6.484375 16.875 C-4.92731138 10.77926158 -3.01993679 5.51919482 0 0 Z " fill="#167979" transform="translate(175,114)"/>
<path d="M0 0 C0.33 0 0.66 0 1 0 C1.26554688 1.21816406 1.53109375 2.43632813 1.8046875 3.69140625 C2.16134345 5.3151294 2.51812074 6.93882591 2.875 8.5625 C3.04902344 9.36236328 3.22304688 10.16222656 3.40234375 10.98632812 C4.44443603 15.71433941 5.61731723 20.35991592 7 25 C6.01 24.67 5.02 24.34 4 24 C4 23.01 4 22.02 4 21 C3.34 21 2.68 21 2 21 C0.09879901 13.87049629 -0.22424141 7.36259293 0 0 Z " fill="#D1F7F7" transform="translate(0,100)"/>
<path d="M0 0 C0.33 0 0.66 0 1 0 C1 5.28 1 10.56 1 16 C0.34 15.67 -0.32 15.34 -1 15 C-1.33 17.31 -1.66 19.62 -2 22 C-2.99 22.33 -3.98 22.66 -5 23 C-4.23678133 17.97079064 -3.1227089 13.06686041 -1.9375 8.125 C-1.75123047 7.34125 -1.56496094 6.5575 -1.37304688 5.75 C-0.91715285 3.83290719 -0.45882473 1.9163935 0 0 Z " fill="#C9F2F1" transform="translate(179,101)"/>
<path d="M0 0 C2.31 0 4.62 0 7 0 C7 2.31 7 4.62 7 7 C8.98 7 10.96 7 13 7 C13 8.98 13 10.96 13 13 C11.02 13 9.04 13 7 13 C7.99 12.34 8.98 11.68 10 11 C10 10.34 10 9.68 10 9 C8.35 8.67 6.7 8.34 5 8 C5 5.69 5 3.38 5 1 C3.68 1 2.36 1 1 1 C1 2.98 1 4.96 1 7 C0.67 7 0.34 7 0 7 C0 4.69 0 2.38 0 0 Z " fill="#D1F7F8" transform="translate(120,80)"/>
<path d="M0 0 C5.28 0 10.56 0 16 0 C16 0.99 16 1.98 16 3 C10.72 3 5.44 3 0 3 C0 2.01 0 1.02 0 0 Z " fill="#FBFCFA" transform="translate(49,88)"/>
<path d="M0 0 C6.66618771 -0.49379168 12.14960269 0.63316389 18 4 C19.79296875 6.140625 19.79296875 6.140625 21 8 C18.5625 7.625 18.5625 7.625 16 7 C15.67 6.34 15.34 5.68 15 5 C9.73739815 3.13616185 4.54452138 2.47775921 -1 2 C-0.67 1.34 -0.34 0.68 0 0 Z " fill="#3B8D91" transform="translate(120,69)"/>
<path d="M0 0 C0.57105469 0.32355469 1.14210938 0.64710937 1.73046875 0.98046875 C-1.05896142 2.37518383 -3.60103689 2.28656052 -6.70703125 2.48046875 C-10.16401703 2.69677177 -12.97999836 2.88395779 -16.26953125 3.98046875 C-16.92953125 3.32046875 -17.58953125 2.66046875 -18.26953125 1.98046875 C-12.44711116 -0.99268193 -6.27010399 -2.81669043 0 0 Z " fill="#3C9B9B" transform="translate(62.26953125,70.01953125)"/>
<path d="M0 0 C0.66 0.33 1.32 0.66 2 1 C1.06027344 2.62808594 1.06027344 2.62808594 0.1015625 4.2890625 C-0.7242388 5.73421477 -1.549744 7.17953627 -2.375 8.625 C-2.7875 9.33785156 -3.2 10.05070312 -3.625 10.78515625 C-5.89491074 14.77580578 -7.72465011 18.55729762 -9 23 C-9.33 23 -9.66 23 -10 23 C-10 20.36 -10 17.72 -10 15 C-9.34 15 -8.68 15 -8 15 C-7.87753906 14.42765625 -7.75507812 13.8553125 -7.62890625 13.265625 C-6.97237132 10.90046809 -6.06276488 8.92793203 -4.9375 6.75 C-4.57527344 6.04359375 -4.21304687 5.3371875 -3.83984375 4.609375 C-3.56269531 4.07828125 -3.28554687 3.5471875 -3 3 C-2.34 3 -1.68 3 -1 3 C-0.67 2.01 -0.34 1.02 0 0 Z " fill="#D3F7F7" transform="translate(14,39)"/>
<path d="M0 0 C2.475 0.99 2.475 0.99 5 2 C5 2.66 5 3.32 5 4 C0.82262526 5.59138085 -2.53160785 6.21278058 -7 6 C-7 4.68 -7 3.36 -7 2 C-2.125 1 -2.125 1 -1 1 C-0.67 0.67 -0.34 0.34 0 0 Z " fill="#1A939D" transform="translate(123,102)"/>
<path d="M0 0 C2.97 0 5.94 0 9 0 C9 0.66 9 1.32 9 2 C9.66 2 10.32 2 11 2 C11 2.66 11 3.32 11 4 C7.7 4.33 4.4 4.66 1 5 C1 4.34 1 3.68 1 3 C0.34 2.67 -0.32 2.34 -1 2 C-0.67 1.34 -0.34 0.68 0 0 Z " fill="#1499A0" transform="translate(73,3)"/>
<path d="M0 0 C1.65 0 3.3 0 5 0 C4.34 1.32 3.68 2.64 3 4 C2.01 4 1.02 4 0 4 C0 4.66 0 5.32 0 6 C-3.3 6 -6.6 6 -10 6 C-6.09987886 3.07490914 -4.61691161 2.52464905 0 2 C0 1.34 0 0.68 0 0 Z " fill="#148C8A" transform="translate(128,104)"/>
<path d="M0 0 C1.32 0.33 2.64 0.66 4 1 C3.74337755 2.44010481 3.46909179 3.8770687 3.1875 5.3125 C3.03667969 6.11300781 2.88585937 6.91351563 2.73046875 7.73828125 C1.92427764 10.23445587 0.97947998 11.32422106 -1 13 C-2.20577428 8.05632546 -1.6290678 4.79137588 0 0 Z " fill="#02979A" transform="translate(18,78)"/>
<path d="M0 0 C0.763125 0.45375 1.52625 0.9075 2.3125 1.375 C1.9825 2.035 1.6525 2.695 1.3125 3.375 C-1.0859375 3.9375 -1.0859375 3.9375 -4.0625 4.375 C-7.7587944 4.92115432 -9.52222925 5.2648195 -12.6875 7.375 C-13.3475 6.715 -14.0075 6.055 -14.6875 5.375 C-4.8494256 -0.82193654 -4.8494256 -0.82193654 0 0 Z " fill="#1B8688" transform="translate(148.6875,115.625)"/>
<path d="M0 0 C0 0.66 0 1.32 0 2 C-13.35227273 5.73863636 -13.35227273 5.73863636 -20 5 C-20.66 4.01 -21.32 3.02 -22 2 C-20.71416016 2.03480469 -20.71416016 2.03480469 -19.40234375 2.0703125 C-12.68584646 2.1763226 -6.34700407 0 0 0 Z " fill="#1F898D" transform="translate(118,174)"/>
<path d="M0 0 C-0.58803797 3.02419525 -1.22678118 6.01758453 -2 9 C-4 8 -6 7 -8 6 C-8 5.01 -8 4.02 -8 3 C-6.68 3 -5.36 3 -4 3 C-4 2.34 -4 1.68 -4 1 C-2 0 -2 0 0 0 Z " fill="#029C9B" transform="translate(32,143)"/>
<path d="M0 0 C0.66 0.99 1.32 1.98 2 3 C0.97159885 7.01076447 -0.95987596 9.26388836 -4 12 C-4.99 11.67 -5.98 11.34 -7 11 C-4.69 7.37 -2.38 3.74 0 0 Z " fill="#1C8989" transform="translate(155,103)"/>
<path d="M0 0 C2.475 0.99 2.475 0.99 5 2 C5 3.32 5 4.64 5 6 C5.99 6.33 6.98 6.66 8 7 C7.67 8.98 7.34 10.96 7 13 C6.34 13 5.68 13 5 13 C4.67 13.99 4.34 14.98 4 16 C3.34 16 2.68 16 2 16 C2.350625 15.29875 2.70125 14.5975 3.0625 13.875 C4.19915102 10.3892702 3.95352098 8.52069284 3 5 C1.53888984 2.20102057 1.53888984 2.20102057 0 0 Z " fill="#D0F3F4" transform="translate(78,81)"/>
<path d="M0 0 C1.24523437 0.01804688 2.49046875 0.03609375 3.7734375 0.0546875 C5.18496094 0.08949219 5.18496094 0.08949219 6.625 0.125 C6.625 0.455 6.625 0.785 6.625 1.125 C5.30435547 1.21587891 5.30435547 1.21587891 3.95703125 1.30859375 C2.21486328 1.43427734 2.21486328 1.43427734 0.4375 1.5625 C-0.71105469 1.64371094 -1.85960938 1.72492187 -3.04296875 1.80859375 C-5.89098171 2.07903812 -8.58710482 2.50021747 -11.375 3.125 C-11.705 4.115 -12.035 5.105 -12.375 6.125 C-14.355 6.125 -16.335 6.125 -18.375 6.125 C-12.56780347 1.00100306 -7.66976774 -0.1447126 0 0 Z " fill="#CCF4F6" transform="translate(55.375,57.875)"/>
<path d="M0 0 C1.98 0.66 3.96 1.32 6 2 C5.67 4.31 5.34 6.62 5 9 C2.03 8.505 2.03 8.505 -1 8 C-1 7.34 -1 6.68 -1 6 C-0.34 6 0.32 6 1 6 C0.67 4.02 0.34 2.04 0 0 Z " fill="#0C8A90" transform="translate(154,31)"/>
<path d="M0 0 C1.65 0 3.3 0 5 0 C5 0.99 5 1.98 5 3 C6.32 3 7.64 3 9 3 C8.67 3.99 8.34 4.98 8 6 C5 7 5 7 2.3125 5.8125 C1.549375 5.214375 0.78625 4.61625 0 4 C0 2.68 0 1.36 0 0 Z " fill="#F2FEF3" transform="translate(20,20)"/>
<path d="M0 0 C0.99 0.33 1.98 0.66 3 1 C4.45454545 12.45454545 4.45454545 12.45454545 4 17 C2 18.9375 2 18.9375 0 20 C0.16242188 19.46375 0.32484375 18.9275 0.4921875 18.375 C1.0997828 15.53332354 1.13226278 12.90511293 1.125 10 C1.12757813 8.96875 1.13015625 7.9375 1.1328125 6.875 C1.01863671 4.40342991 0.71350656 2.3557042 0 0 Z " fill="#D5F6F7" transform="translate(144,80)"/>
<path d="M0 0 C1.32 0.66 2.64 1.32 4 2 C-3.80563342 5.90281671 -11.48792953 5.27891493 -20 5 C-20 4.67 -20 4.34 -20 4 C-19.07316406 3.95101562 -18.14632812 3.90203125 -17.19140625 3.8515625 C-15.99386719 3.77679688 -14.79632813 3.70203125 -13.5625 3.625 C-12.36753906 3.55539063 -11.17257813 3.48578125 -9.94140625 3.4140625 C-8.97074219 3.27742188 -8.00007813 3.14078125 -7 3 C-6.67 2.34 -6.34 1.68 -6 1 C-3.03 1.495 -3.03 1.495 0 2 C0 1.34 0 0.68 0 0 Z " fill="#D7F3F5" transform="translate(68,117)"/>
<path d="M0 0 C0.99 0 1.98 0 3 0 C2.40339753 3.34097385 1.36924875 5.54300129 -1 8 C-2.32 8 -3.64 8 -5 8 C-4.67 6.35 -4.34 4.7 -4 3 C-3.01 2.67 -2.02 2.34 -1 2 C-0.67 1.34 -0.34 0.68 0 0 Z " fill="#059F9D" transform="translate(45,96)"/>
<path d="M0 0 C1.03125 0.01804688 2.0625 0.03609375 3.125 0.0546875 C5.66761064 0.10177288 8.20833162 0.1675195 10.75 0.25 C10.75 0.58 10.75 0.91 10.75 1.25 C9.62722656 1.29898438 8.50445312 1.34796875 7.34765625 1.3984375 C-0.38386692 1.77202856 -7.74510917 2.20321159 -15.25 4.25 C-11.56611311 -1.38679078 -6.01020048 -0.19830611 0 0 Z " fill="#1E8686" transform="translate(54.25,56.75)"/>
<path d="M0 0 C0.66 0.33 1.32 0.66 2 1 C0.9790625 2.3303125 0.9790625 2.3303125 -0.0625 3.6875 C-2.26701789 6.74064539 -2.26701789 6.74064539 -1.8125 9.625 C-1.544375 10.40875 -1.27625 11.1925 -1 12 C-0.3125 14.1875 -0.3125 14.1875 0 16 C-0.66 16.66 -1.32 17.32 -2 18 C-4.43700734 13.70111906 -4.74310075 9.85607698 -4 5 C-2 1.9375 -2 1.9375 0 0 Z " fill="#D1F3F4" transform="translate(100,81)"/>
<path d="M0 0 C-1.24517965 1.13033298 -2.49636652 2.25405036 -3.75 3.375 C-4.44609375 4.00148438 -5.1421875 4.62796875 -5.859375 5.2734375 C-7.86659836 6.89240233 -9.6111291 8.04445164 -12 9 C-14.25 8.625 -14.25 8.625 -16 8 C-16 7.67 -16 7.34 -16 7 C-14.88625 6.7525 -13.7725 6.505 -12.625 6.25 C-8.95175786 5.43232951 -8.95175786 5.43232951 -7.875 3 C-7.58625 2.34 -7.2975 1.68 -7 1 C-2.6097561 -1.30487805 -2.6097561 -1.30487805 0 0 Z " fill="#248C88" transform="translate(76,101)"/>
<path d="M0 0 C0.33 0 0.66 0 1 0 C1 1.65 1 3.3 1 5 C0.01 5.33 -0.98 5.66 -2 6 C-2 6.66 -2 7.32 -2 8 C-5.13498292 9.85776765 -7.37471432 10.20140476 -11 10 C-8.42799744 7.94239795 -5.85640063 5.88903685 -3.25 3.875 C-0.93200395 2.19802359 -0.93200395 2.19802359 0 0 Z " fill="#D0F2F3" transform="translate(143,100)"/>
<path d="M0 0 C0.6875 2.625 0.6875 2.625 1 5 C0.39671875 4.66226563 -0.2065625 4.32453125 -0.828125 3.9765625 C-1.62734375 3.53054687 -2.4265625 3.08453125 -3.25 2.625 C-4.03890625 2.18414062 -4.8278125 1.74328125 -5.640625 1.2890625 C-7.73914197 0.14252177 -9.8536077 -0.94649552 -12 -2 C-7.26382227 -3.57872591 -4.10216206 -2.73477471 0 0 Z " fill="#DFF8FA" transform="translate(140,71)"/>
<path d="M0 0 C-0.33 1.32 -0.66 2.64 -1 4 C-2.98 4.33 -4.96 4.66 -7 5 C-7 4.34 -7 3.68 -7 3 C-7.66 2.67 -8.32 2.34 -9 2 C-8 0 -8 0 -6.1875 -0.6875 C-3.81180233 -1.02688538 -2.26664171 -0.72856341 0 0 Z " fill="#1D9898" transform="translate(100,65)"/>
<path d="M0 0 C2 2 2 2 2.125 5.625 C2.08375 6.73875 2.0425 7.8525 2 9 C2.66 9 3.32 9 4 9 C4.33 8.34 4.66 7.68 5 7 C5 8.98 5 10.96 5 13 C3.35 12.67 1.7 12.34 0 12 C0 8.04 0 4.08 0 0 Z " fill="#0A8889" transform="translate(169,51)"/>
<path d="M0 0 C0.33 0 0.66 0 1 0 C1.43769726 3.0638808 1.60855877 5.16604909 -0.265625 7.734375 C-1.78643673 9.28471706 -3.24576489 10.71840855 -5 12 C-5.66 12 -6.32 12 -7 12 C-5.61964507 9.14940657 -4.10703513 6.44119096 -2.4375 3.75 C-2.00308594 3.04359375 -1.56867188 2.3371875 -1.12109375 1.609375 C-0.75113281 1.07828125 -0.38117188 0.5471875 0 0 Z " fill="#D7F4F4" transform="translate(168,134)"/>
<path d="M0 0 C0.33 2.64 0.66 5.28 1 8 C-2.91402949 6.73058503 -4.79072873 5.48832306 -7 2 C-2.25 0 -2.25 0 0 0 Z " fill="#DEFAF9" transform="translate(39,110)"/>
<path d="M0 0 C1.11375 0.4640625 1.11375 0.4640625 2.25 0.9375 C4.50692176 1.8094925 6.6450153 2.47667007 9 3 C9.33 4.65 9.66 6.3 10 8 C10.99 8.33 11.98 8.66 13 9 C12.67 9.99 12.34 10.98 12 12 C8 8 4 4 0 0 Z " fill="#218183" transform="translate(141,61)"/>
<path d="M0 0 C0 3 0 3 -2.40625 5.69921875 C-3.4299968 6.70302243 -4.4616054 7.69885649 -5.5 8.6875 C-6.02464844 9.19861328 -6.54929687 9.70972656 -7.08984375 10.23632812 C-8.38660904 11.49772708 -9.69246117 12.74977212 -11 14 C-11.66 13.67 -12.32 13.34 -13 13 C-9.0580583 8.11950075 -4.88049925 3.9419417 0 0 Z " fill="#2E9594" transform="translate(33,20)"/>
<path d="M0 0 C1.44037669 0.93307421 2.87718985 1.87165077 4.3125 2.8125 C5.11300781 3.33457031 5.91351563 3.85664063 6.73828125 4.39453125 C8.7237402 5.80389849 10.3491852 7.22096657 12 9 C6.25 8.125 6.25 8.125 4 7 C4 6.34 4 5.68 4 5 C2.68 4.34 1.36 3.68 0 3 C0 2.01 0 1.02 0 0 Z " fill="#CEF5F5" transform="translate(31,158)"/>
<path d="M0 0 C0.99 0 1.98 0 3 0 C3.25 3.3125 3.25 3.3125 3 7 C1 8.9375 1 8.9375 -1 10 C-1 8.68 -1 7.36 -1 6 C-1.020625 5.113125 -1.04125 4.22625 -1.0625 3.3125 C-1 1 -1 1 0 0 Z " fill="#118889" transform="translate(162,134)"/>
<path d="M0 0 C4.25491665 0.47276852 6.22542845 2.92547477 9 6 C9.33 6.66 9.66 7.32 10 8 C9.67 8.66 9.34 9.32 9 10 C5.21360875 8.73786958 4.95895404 7.34654649 3 4 C2.01 3.34 1.02 2.68 0 2 C0 1.34 0 0.68 0 0 Z " fill="#329597" transform="translate(91,106)"/>
<path d="M0 0 C-0.33 1.65 -0.66 3.3 -1 5 C-1.66 4.67 -2.32 4.34 -3 4 C-3.33 4.66 -3.66 5.32 -4 6 C-3.34 6.33 -2.68 6.66 -2 7 C-2.66 9.64 -3.32 12.28 -4 15 C-4.33 15 -4.66 15 -5 15 C-5.08107583 13.06318839 -5.13922475 11.1254066 -5.1875 9.1875 C-5.22230469 8.10855469 -5.25710937 7.02960938 -5.29296875 5.91796875 C-5 3 -5 3 -3.61328125 1.11328125 C-2 0 -2 0 0 0 Z " fill="#0D9EA4" transform="translate(41,81)"/>
<path d="M0 0 C1.31223496 3.93670488 0.24296256 6.12488144 -1 10 C-2.32 10.33 -3.64 10.66 -5 11 C-3.92289822 6.69159287 -2.96052484 3.36423277 0 0 Z " fill="#D8F5F6" transform="translate(29,70)"/>
<path d="M0 0 C0.99 0 1.98 0 3 0 C4.14077657 3.42232972 4.09815117 6.08673217 4.0625 9.6875 C4.05347656 10.86699219 4.04445312 12.04648438 4.03515625 13.26171875 C4.02355469 14.16535156 4.01195312 15.06898437 4 16 C3.67 16 3.34 16 3 16 C2.01 10.72 1.02 5.44 0 0 Z " fill="#C7F1F4" transform="translate(176,64)"/>
<path d="M0 0 C0.99 0 1.98 0 3 0 C2.01 5.28 1.02 10.56 0 16 C-0.33 16 -0.66 16 -1 16 C-1.02712153 14.083412 -1.04645097 12.1667127 -1.0625 10.25 C-1.07410156 9.18265625 -1.08570312 8.1153125 -1.09765625 7.015625 C-1.01510087 4.46631499 -0.74617558 2.42066409 0 0 Z " fill="#D4F9F9" transform="translate(1,64)"/>
<path d="M0 0 C1.98 0.99 1.98 0.99 4 2 C4.75 5.625 4.75 5.625 5 9 C3.35 9 1.7 9 0 9 C0 6.03 0 3.06 0 0 Z " fill="#078B8F" transform="translate(160,39)"/>
<path d="M0 0 C0.598125 0.226875 1.19625 0.45375 1.8125 0.6875 C0.4375 2.6875 0.4375 2.6875 -1.1875 4.6875 C-1.8475 4.6875 -2.5075 4.6875 -3.1875 4.6875 C-3.5175 5.6775 -3.8475 6.6675 -4.1875 7.6875 C-4.1875 7.0275 -4.1875 6.3675 -4.1875 5.6875 C-5.1775 6.0175 -6.1675 6.3475 -7.1875 6.6875 C-3.9375 -0.5625 -3.9375 -0.5625 0 0 Z " fill="#069F9D" transform="translate(35.1875,22.3125)"/>
<path d="M0 0 C0.33 0 0.66 0 1 0 C1.16820551 1.93736701 1.33451095 3.87489906 1.5 5.8125 C1.5928125 6.89144531 1.685625 7.97039062 1.78125 9.08203125 C2 12 2 12 2 15 C-0.19305243 13.25132925 -0.94290357 12.4193869 -1.328125 9.58984375 C-1.30234375 8.71457031 -1.2765625 7.83929688 -1.25 6.9375 C-1.23453125 6.05964844 -1.2190625 5.18179688 -1.203125 4.27734375 C-1 2 -1 2 0 0 Z " fill="#2B8E8F" transform="translate(35,84)"/>
<path d="M0 0 C4.66091941 1.65897132 8.84148523 3.27097468 13 6 C11 7 11 7 9.16015625 6.51171875 C8.46792969 6.23972656 7.77570313 5.96773438 7.0625 5.6875 C6.37285156 5.42324219 5.68320313 5.15898438 4.97265625 4.88671875 C3 4 3 4 0 2 C0 1.34 0 0.68 0 0 Z " fill="#D0F9F9" transform="translate(65,59)"/>
<path d="M0 0 C0.33 0 0.66 0 1 0 C1.19294408 4.82360189 0.75747614 8.49646738 -1 13 C-3.5654594 10.4345406 -3.54046087 8.52313332 -4 5 C-3.01 5 -2.02 5 -1 5 C-0.67 3.35 -0.34 1.7 0 0 Z " fill="#03979B" transform="translate(20,91)"/>
<path d="M0 0 C1.423125 0.7115625 1.423125 0.7115625 2.875 1.4375 C7.4465467 3.42757782 12.06888627 3.71226902 17 4 C17 4.33 17 4.66 17 5 C14.91731407 5.08126087 12.83371342 5.13930839 10.75 5.1875 C9.00976562 5.23970703 9.00976562 5.23970703 7.234375 5.29296875 C3.77117245 4.97927287 2.40769094 4.46132762 0 2 C0 1.34 0 0.68 0 0 Z " fill="#E0FBFB" transform="translate(43,107)"/>
<path d="M0 0 C0.66 0.33 1.32 0.66 2 1 C0.84803402 4.45589795 -0.2267814 5.67649253 -3 8 C-6.25 9.25 -6.25 9.25 -9 10 C-8.06409496 8.8944811 -7.12620142 7.79064547 -6.1875 6.6875 C-5.66542969 6.07261719 -5.14335938 5.45773438 -4.60546875 4.82421875 C-3.12827531 3.14575321 -1.59960869 1.56117966 0 0 Z " fill="#46989E" transform="translate(88,104)"/>
<path d="M0 0 C2.13586678 3.20380017 2.23132175 4.01939967 2.125 7.6875 C2.10695312 8.49574219 2.08890625 9.30398437 2.0703125 10.13671875 C2.03550781 11.05904297 2.03550781 11.05904297 2 12 C-0.95183101 9.04816899 -1.08663988 6.04488053 -2 2 C-1.34 2 -0.68 2 0 2 C0 1.34 0 0.68 0 0 Z " fill="#268787" transform="translate(156,72)"/>
<path d="M0 0 C3.97256398 2.09663099 6.43898489 4.30075595 9 8 C9 8.66 9 9.32 9 10 C8.01 10 7.02 10 6 10 C5.67 8.35 5.34 6.7 5 5 C3.68 4.67 2.36 4.34 1 4 C0.67 2.68 0.34 1.36 0 0 Z " fill="#D8F3F5" transform="translate(80,68)"/>
<path d="M0 0 C0.33 0 0.66 0 1 0 C1.33 2.64 1.66 5.28 2 8 C0.68 8 -0.64 8 -2 8 C-1.125 1.125 -1.125 1.125 0 0 Z " fill="#009795" transform="translate(13,47)"/>
<path d="M0 0 C0.99 0.99 1.98 1.98 3 3 C2.34 4.32 1.68 5.64 1 7 C0.01 7 -0.98 7 -2 7 C-2 5.02 -2 3.04 -2 1 C-1.34 0.67 -0.68 0.34 0 0 Z " fill="#01979F" transform="translate(6,105)"/>
<path d="M0 0 C0 3.16880694 -0.2058242 4.43689172 -2 7 C-4.5 7.875 -4.5 7.875 -7 8 C-7.66 7.34 -8.32 6.68 -9 6 C-8.43410156 5.65066406 -7.86820312 5.30132812 -7.28515625 4.94140625 C-6.55167969 4.48636719 -5.81820312 4.03132813 -5.0625 3.5625 C-4.33160156 3.11003906 -3.60070312 2.65757813 -2.84765625 2.19140625 C-1.06100191 1.13135967 -1.06100191 1.13135967 0 0 Z " fill="#DEF4F7" transform="translate(73,103)"/>
<path d="M0 0 C0.556875 0.721875 1.11375 1.44375 1.6875 2.1875 C3.97909334 4.97457299 6.41459857 7.48641528 9 10 C6 10 6 10 3.4375 7.75 C1.42724922 5.48202476 0.12774794 3.76810859 -1 1 C-0.67 0.67 -0.34 0.34 0 0 Z " fill="#309090" transform="translate(102,95)"/>
<path d="M0 0 C1.98 0.99 1.98 0.99 4 2 C3.01 2.495 3.01 2.495 2 3 C2 3.66 2 4.32 2 5 C2.9590625 5.433125 2.9590625 5.433125 3.9375 5.875 C6 7 6 7 7 9 C5.68 8.67 4.36 8.34 3 8 C3 7.34 3 6.68 3 6 C2.01 5.67 1.02 5.34 0 5 C0 3.35 0 1.7 0 0 Z " fill="#1B9392" transform="translate(89,103)"/>
<path d="M0 0 C0.66 0 1.32 0 2 0 C2 0.99 2 1.98 2 3 C1.34 3 0.68 3 0 3 C0 4.65 0 6.3 0 8 C-0.33 7.34 -0.66 6.68 -1 6 C-1.66 5.67 -2.32 5.34 -3 5 C-5 4 -5 4 -6 2 C-4.35 2 -2.7 2 -1 2 C-0.67 1.34 -0.34 0.68 0 0 Z " fill="#D6F4F1" transform="translate(78,73)"/>
<path d="M0 0 C2.97 0 5.94 0 9 0 C1.5 5 1.5 5 -1 5 C-0.67 3.35 -0.34 1.7 0 0 Z " fill="#D5F8F9" transform="translate(42,69)"/>
<path d="M0 0 C0.99 0 1.98 0 3 0 C6.22265625 5.078125 6.22265625 5.078125 7 7 C6.67 8.32 6.34 9.64 6 11 C4.02 7.37 2.04 3.74 0 0 Z " fill="#CCF4F4" transform="translate(163,37)"/>
<path d="M0 0 C4.22271781 2.53363068 6.78310162 4.56620325 9 9 C8.01 9.66 7.02 10.32 6 11 C5.62875 9.88625 5.62875 9.88625 5.25 8.75 C3.90634806 5.79396573 2.31013315 4.23312872 0 2 C0 1.34 0 0.68 0 0 Z " fill="#2E8D90" transform="translate(71,75)"/>
<path d="M0 0 C0 1.65 0 3.3 0 5 C-4 5 -4 5 -7 4 C-3.375 0 -3.375 0 0 0 Z " fill="#1F9A9D" transform="translate(64,168)"/>
<path d="M0 0 C0.33 0 0.66 0 1 0 C0.25 6.625 0.25 6.625 -2 10 C-2.66 10 -3.32 10 -4 10 C-2.8905928 6.51329166 -1.73662334 3.22515763 0 0 Z " fill="#CDF1F2" transform="translate(173,124)"/>
<path d="M0 0 C3.375 4.5 3.375 4.5 4 8 C3.01 8.66 2.02 9.32 1 10 C0.67 6.7 0.34 3.4 0 0 Z " fill="#D6F4F4" transform="translate(152,72)"/>
<path d="M0 0 C0.99 0.33 1.98 0.66 3 1 C2.04956626 2.33897583 1.08940853 3.67105427 0.125 5 C-0.40867187 5.7425 -0.94234375 6.485 -1.4921875 7.25 C-2.23855469 8.11625 -2.23855469 8.11625 -3 9 C-3.66 9 -4.32 9 -5 9 C-3.50163895 5.88801935 -1.80066242 2.9465385 0 0 Z " fill="#2C8982" transform="translate(94,69)"/>
<path d="M0 0 C2.37948772 0.17625835 3.70225849 0.69719773 5.37890625 2.40234375 C6.62115486 3.90649092 7.81376056 5.45129851 9 7 C5.56072421 5.7580393 2.74792181 4.44259716 0 2 C0 1.34 0 0.68 0 0 Z " fill="#238A8D" transform="translate(36,160)"/>
<path d="M0 0 C1.875 0.3125 1.875 0.3125 4 1 C6 4 6 4 6 7 C3.00675737 5.9024777 2.15389099 5.32317108 0.75 2.375 C0.5025 1.59125 0.255 0.8075 0 0 Z " fill="#209191" transform="translate(10,131)"/>
<path d="M0 0 C1.134375 0.020625 2.26875 0.04125 3.4375 0.0625 C2.4475 0.7225 1.4575 1.3825 0.4375 2.0625 C-0.75482613 4.11253955 -0.75482613 4.11253955 -1.5625 6.0625 C-2.5525 4.4125 -3.5425 2.7625 -4.5625 1.0625 C-3.5625 0.0625 -3.5625 0.0625 0 0 Z " fill="#21989C" transform="translate(40.5625,97.9375)"/>
<path d="M0 0 C0.33 0.99 0.66 1.98 1 3 C-0.21484375 5.04296875 -0.21484375 5.04296875 -1.9375 7.1875 C-2.50339844 7.90292969 -3.06929688 8.61835937 -3.65234375 9.35546875 C-4.09707031 9.89816406 -4.54179688 10.44085938 -5 11 C-5.33 10.34 -5.66 9.68 -6 9 C-4.84780362 6.02349268 -3.28110175 4.18192341 -1 2 C-0.67 1.34 -0.34 0.68 0 0 Z " fill="#1D8587" transform="translate(82,89)"/>
<path d="M0 0 C-2.71182212 2.60334924 -3.89133813 2.99456691 -7.75 3.1875 C-8.8225 3.125625 -9.895 3.06375 -11 3 C-9.66666667 2.33333333 -8.33333333 1.66666667 -7 1 C-6.319375 0.608125 -5.63875 0.21625 -4.9375 -0.1875 C-3 -1 -3 -1 0 0 Z " fill="#D7F7FA" transform="translate(129,173)"/>
<path d="M0 0 C-1.36983503 3.16115776 -1.9890638 3.9927092 -5 6 C-4.79375 5.38125 -4.5875 4.7625 -4.375 4.125 C-4.25125 3.42375 -4.1275 2.7225 -4 2 C-4.66 1.34 -5.32 0.68 -6 0 C-2.25 -1.125 -2.25 -1.125 0 0 Z " fill="#218889" transform="translate(154,152)"/>
<path d="M0 0 C0.66 0 1.32 0 2 0 C2.33 0.66 2.66 1.32 3 2 C3.99 1.34 4.98 0.68 6 0 C4.75023244 3.65316671 4.32901247 4.78065836 1 7 C0.67 4.69 0.34 2.38 0 0 Z " fill="#1C7F81" transform="translate(154,145)"/>
<path d="M0 0 C0.66 0.66 1.32 1.32 2 2 C-0.39509338 4.89932357 -2.31245243 5.50168276 -6 6 C-4.75453595 2.26360784 -3.36595047 1.81243487 0 0 Z " fill="#339A96" transform="translate(78,114)"/>
<path d="M0 0 C0.5775 0.7425 1.155 1.485 1.75 2.25 C3.72253526 4.66087643 5.76044282 6.84042701 8 9 C3.75177626 8.52797514 1.80010291 6.03344482 -1 3 C-0.67 2.01 -0.34 1.02 0 0 Z " fill="#D3F7F8" transform="translate(35,98)"/>
<path d="M0 0 C0.66 0.33 1.32 0.66 2 1 C1.01 4.3 0.02 7.6 -1 11 C-1.33 11 -1.66 11 -2 11 C-2 8.36 -2 5.72 -2 3 C-1.34 3 -0.68 3 0 3 C0 2.01 0 1.02 0 0 Z " fill="#DEFBFD" transform="translate(6,51)"/>
<path d="M0 0 C0.33 0.99 0.66 1.98 1 3 C1.99 3 2.98 3 4 3 C4.33 4.32 4.66 5.64 5 7 C4.34 7 3.68 7 3 7 C3 6.34 3 5.68 3 5 C1.68 5 0.36 5 -1 5 C-1.33 4.01 -1.66 3.02 -2 2 C-1.34 2 -0.68 2 0 2 C0 1.34 0 0.68 0 0 Z " fill="#EAF8F8" transform="translate(163,32)"/>
<path d="M0 0 C2.875 0.25 2.875 0.25 6 1 C7.25 3 7.25 3 8 5 C8.66 5.33 9.32 5.66 10 6 C9.01 6 8.02 6 7 6 C7 5.34 7 4.68 7 4 C6.401875 3.896875 5.80375 3.79375 5.1875 3.6875 C2.71756736 2.91123545 1.67748765 1.92911079 0 0 Z " fill="#218787" transform="translate(133,13)"/>
<path d="M0 0 C1.32 1.65 2.64 3.3 4 5 C3.01 6.32 2.02 7.64 1 9 C-0.125 5.25 -0.125 5.25 1 3 C0.34 2.67 -0.32 2.34 -1 2 C-0.67 1.34 -0.34 0.68 0 0 Z " fill="#DBF7F8" transform="translate(11,134)"/>
<path d="M0 0 C1.65 0 3.3 0 5 0 C4.34 1.32 3.68 2.64 3 4 C1.35 3.67 -0.3 3.34 -2 3 C-1.34 2.67 -0.68 2.34 0 2 C0 1.34 0 0.68 0 0 Z " fill="#0C938E" transform="translate(128,104)"/>
<path d="M0 0 C1.6415049 3.2830098 0.51888624 6.42545033 0 10 C-0.99 9.34 -1.98 8.68 -3 8 C-2.45276317 4.62537285 -1.9451 2.91765 0 0 Z " fill="#348286" transform="translate(100,84)"/>
<path d="M0 0 C2.475 0.495 2.475 0.495 5 1 C4.67 1.99 4.34 2.98 4 4 C2.68 4 1.36 4 0 4 C0 2.68 0 1.36 0 0 Z " fill="#FBF5FE" transform="translate(115,88)"/>
<path d="M0 0 C1.65 0 3.3 0 5 0 C5.33 1.32 5.66 2.64 6 4 C5.01 4.495 5.01 4.495 4 5 C2 3.625 2 3.625 0 2 C0 1.34 0 0.68 0 0 Z " fill="#139DA8" transform="translate(85,68)"/>
<path d="M0 0 C1.65 0 3.3 0 5 0 C3.35 2.64 1.7 5.28 0 8 C-0.33 6.68 -0.66 5.36 -1 4 C-0.34 4 0.32 4 1 4 C0.67 2.68 0.34 1.36 0 0 Z " fill="#D2F4F5" transform="translate(17,31)"/>
<path d="M0 0 C3.29148243 1.13499394 3.9959869 1.99283376 5.75 5.125 C6.1625 6.07375 6.575 7.0225 7 8 C5.0625 7.1875 5.0625 7.1875 3 6 C2.67 5.01 2.34 4.02 2 3 C1.34 2.67 0.68 2.34 0 2 C0 1.34 0 0.68 0 0 Z " fill="#198387" transform="translate(145,20)"/>
<path d="M0 0 C2.31 0.33 4.62 0.66 7 1 C6.67 1.99 6.34 2.98 6 4 C3.69 3.67 1.38 3.34 -1 3 C-0.67 2.01 -0.34 1.02 0 0 Z " fill="#18A1A5" transform="translate(73,3)"/>
<path d="M0 0 C1.32 0.33 2.64 0.66 4 1 C4 1.66 4 2.32 4 3 C5.32 3.33 6.64 3.66 8 4 C6.25 4.6875 6.25 4.6875 4 5 C1.75 3.6875 1.75 3.6875 0 2 C0 1.34 0 0.68 0 0 Z " fill="#2D9594" transform="translate(112,105)"/>
<path d="M0 0 C0.66 0.33 1.32 0.66 2 1 C1.67 1.66 1.34 2.32 1 3 C0.34 3 -0.32 3 -1 3 C-1.33 3.99 -1.66 4.98 -2 6 C-3.32 5.67 -4.64 5.34 -6 5 C-4.02 3.35 -2.04 1.7 0 0 Z " fill="#CFF4F4" transform="translate(102,65)"/>
<path d="M0 0 C1.65 0 3.3 0 5 0 C4.67 0.99 4.34 1.98 4 3 C3.01 3.33 2.02 3.66 1 4 C0.34 3.67 -0.32 3.34 -1 3 C-0.67 2.01 -0.34 1.02 0 0 Z " fill="#E4F4F2" transform="translate(24,23)"/>
</svg>
