<?xml version="1.0" encoding="UTF-8"?>
<svg version="1.1" xmlns="http://www.w3.org/2000/svg" width="1134" height="1367">
<path d="M0 0 C3.93150313 1.88985382 6.59299287 1.69550178 10.875 0.625 C25.63233483 -2.77862773 37.97378657 1.26926448 50.95019531 8.01953125 C55.10397379 10.10894929 57.27309855 11.02083741 61.875 9.625 C81.99186767 8.50139407 95.01357463 14.97426307 109.9753418 28.18115234 C112.32702669 30.28543886 114.64322203 32.39322203 116.875 34.625 C118.82669561 34.8289085 120.78863424 34.9388543 122.75 35 C139.46480255 36.10572012 150.24082661 44.41257959 161.6875 56 C162.55552246 56.87487061 163.42354492 57.74974121 164.31787109 58.65112305 C171.94443195 66.46661429 178.59314868 74.71092496 184.875 83.625 C185.71452845 84.77236619 186.55435981 85.91951082 187.39453125 87.06640625 C193.16544385 95.14684039 197.79096675 103.83718806 202.375 112.625 C202.68476776 113.21585388 202.99453552 113.80670776 203.31369019 114.41546631 C209.4486852 126.16904881 209.4486852 126.16904881 210.875 132.625 C211.535 132.625 212.195 132.625 212.875 132.625 C213.04008057 132.08407715 213.20516113 131.5431543 213.37524414 130.98583984 C215.23061512 125.14320828 217.55546222 119.72025219 220.3125 114.25 C220.74570557 113.39003418 221.17891113 112.53006836 221.62524414 111.64404297 C231.76089 91.91994293 244.57077899 74.60700744 259.875 58.625 C260.43123047 58.0362207 260.98746094 57.44744141 261.56054688 56.84082031 C270.9154757 46.97421306 279.94934215 38.09437538 293.875 35.625 C295.97920818 35.64110363 298.08338218 35.66221012 300.1875 35.6875 C307.97176005 35.25909225 311.36443449 31.10646659 316.53515625 25.84765625 C325.18049717 17.1663038 337.2799661 9.92720388 349.65234375 9.4921875 C351.03906244 9.48955366 352.42580032 9.49227465 353.8125 9.5 C354.84793945 9.49419922 354.84793945 9.49419922 355.90429688 9.48828125 C359.03594948 9.49421803 361.8272568 9.61312637 364.875 10.37109375 C369.29363836 10.74506705 372.13634569 8.91005574 375.9375 6.8125 C377.32334742 6.07518285 378.71004719 5.33946518 380.09765625 4.60546875 C380.75266113 4.25790527 381.40766602 3.9103418 382.08251953 3.55224609 C391.07416286 -1.09911067 402.5506311 -2.0962314 412.3125 0.6875 C419.17802421 2.4942169 425.06163448 -0.41933022 431.4375 -2.875 C445.82285443 -8.38993958 459.45542183 -9.66634462 473.875 -3.375 C474.52855469 -2.98570312 475.18210937 -2.59640625 475.85546875 -2.1953125 C478.65667285 -1.05749265 480.490782 -1.5442886 483.4375 -2.125 C484.50355469 -2.32351562 485.56960938 -2.52203125 486.66796875 -2.7265625 C488.65185651 -3.12768962 490.63405206 -3.53742198 492.61328125 -3.9609375 C504.7267606 -6.43747106 516.42886925 -6.53989905 527.875 -1.375 C529.51151015 -0.16765365 531.11726333 1.08263493 532.6875 2.375 C538.17384663 6.58358186 543.42811804 6.05725956 549.97265625 5.75390625 C560.23092712 5.41504445 570.66398009 8.0880046 578.5859375 14.72265625 C583.12250779 18.19538042 586.73685494 18.40722519 592.3125 18.3125 C594.08089389 18.34321326 595.84915848 18.38242607 597.6171875 18.4296875 C598.93734863 18.46400879 598.93734863 18.46400879 600.28417969 18.49902344 C613.89837844 19.16100295 628.6368942 22.14527241 638.875 31.625 C639.59236328 32.58599609 639.59236328 32.58599609 640.32421875 33.56640625 C642.07769099 35.84453947 643.35524172 37.20006207 645.875 38.625 C649.39832329 38.90671952 652.73253416 38.86797137 656.25366211 38.71386719 C669.36593445 38.21965395 679.56049243 43.60855161 689.0625 52.25 C698.47530368 62.03856431 701.39530869 74.4776062 701.140625 87.66015625 C700.75850336 93.36388374 699.25634082 98.26535701 697.09765625 103.515625 C696.7533648 106.77733346 698.20913738 108.78470023 699.75 111.625 C704.97150935 121.339436 705.34646848 132.38761425 703.15625 143.16015625 C701.97380387 146.85530042 700.76746083 150.27409869 698.61694336 153.52929688 C694.4200781 160.09250344 694.38314244 165.35466544 694.8125 173 C695.44546268 184.96081208 693.42459208 193.82699662 686.3125 203.5625 C685.54808594 204.62339844 684.78367187 205.68429688 683.99609375 206.77734375 C681.875 209.625 681.875 209.625 680.125 211.44140625 C678.10519009 214.96976169 678.47451644 218.63190067 678.4375 222.625 C677.98705905 235.88477703 674.69052202 245.46630738 665.875 255.625 C664.25942831 257.07308818 662.63455964 258.51087951 661 259.9375 C656.1869416 264.53700974 655.88132424 268.62999564 655.29296875 275.07421875 C653.4304555 290.89687805 641.30370457 300.96985301 629.69921875 310.46875 C626.875 312.625 626.875 312.625 623.66796875 314.46484375 C620.074112 317.24442806 619.6259519 319.33231806 618.5 323.6875 C613.99091462 339.18595129 603.36509001 347.88694289 589.81298828 355.50708008 C586.18469437 357.49562334 582.68090233 359.11607613 578.75 360.4375 C573.73058051 362.50209141 572.548175 366.78762845 570.4609375 371.515625 C563.51813111 385.12762966 549.3032301 389.88274883 535.875 394.625 C536.59300781 395.19863281 537.31101562 395.77226562 538.05078125 396.36328125 C589.47589416 437.54604802 624.94182675 490.05344964 632.51171875 556.64453125 C632.84110875 560.29826599 632.91425481 563.91020624 632.91015625 567.578125 C632.90713767 580.37689047 633.0189294 590.71891167 641.875 600.625 C644.75225685 603.17072108 647.67373266 605.38572658 650.8515625 607.54296875 C654.7471334 610.22557765 658.11896843 613.32209133 661.58984375 616.5234375 C663.58557811 618.35883081 665.61962803 620.12227345 667.6875 621.875 C683.13524193 635.45782338 695.26401573 651.05025776 705.875 668.625 C706.2472168 669.23778809 706.61943359 669.85057617 707.00292969 670.48193359 C726.82331593 703.43987338 736.37996308 740.93234963 736.1875 779.25 C736.18534485 780.03080933 736.1831897 780.81161865 736.18096924 781.61608887 C735.97290028 828.88021495 720.87440696 876.09218823 690.59204102 912.83325195 C685.91175047 918.57035467 683.51940304 924.15067527 681.859375 931.3125 C681.49491944 932.82156407 681.13033102 934.33059605 680.765625 935.83959961 C680.57935547 936.62188934 680.39308594 937.40417908 680.20117188 938.21017456 C676.86095666 952.20953313 673.20134333 965.99818937 668.48828125 979.60913086 C667.26018861 983.64589874 666.75433276 987.45670297 666.69921875 991.66796875 C665.67484316 1039.67914746 651.24940425 1086.58455464 622.875 1125.625 C622.42882324 1126.23939941 621.98264648 1126.85379883 621.52294922 1127.48681641 C616.70069139 1134.05869522 611.55421771 1140.29204336 606.02734375 1146.28515625 C603.90783386 1148.58930584 601.86064658 1150.94495434 599.8125 1153.3125 C596.11211285 1157.47089184 592.14321497 1161.06314455 587.875 1164.625 C587.0603125 1165.33914063 586.245625 1166.05328125 585.40625 1166.7890625 C562.06457569 1186.91797826 535.08703098 1202.03962025 505.9296875 1212.00390625 C499.41205995 1214.25759192 494.58785959 1217.06316254 489.21972656 1221.41674805 C461.50315225 1243.80540023 427.54428453 1260.50495332 394.98046875 1274.41796875 C386.51667478 1278.03716254 386.51667478 1278.03716254 379.4375 1283.8125 C378.65761719 1284.61558594 377.87773438 1285.41867187 377.07421875 1286.24609375 C375.22721478 1288.24400746 373.48160453 1290.27837858 371.75 1292.375 C350.14077482 1317.34675908 317.52607634 1335.33972693 286.875 1346.625 C286.20839355 1346.87491699 285.54178711 1347.12483398 284.85498047 1347.38232422 C275.66109939 1350.78978614 266.40562218 1353.34581748 256.8125 1355.375 C255.88058838 1355.57359619 254.94867676 1355.77219238 253.98852539 1355.97680664 C239.12550139 1358.96425271 224.43849726 1360.00737974 209.3125 1359.9375 C208.48694611 1359.93567719 207.66139221 1359.93385437 206.81082153 1359.93197632 C149.23765599 1359.71904806 91.46389537 1338.18337407 49.875 1297.625 C48.79124891 1296.40503614 47.72122283 1295.17276444 46.6640625 1293.9296875 C36.94610118 1282.73926477 26.42984684 1278.75153435 12.65989685 1273.81419373 C5.23892822 1271.10423653 -1.84722885 1267.72063885 -8.9375 1264.25 C-9.59064178 1263.93064484 -10.24378357 1263.61128967 -10.91671753 1263.28225708 C-38.73421914 1249.61808652 -66.07899624 1233.6914929 -90.203125 1214.12890625 C-96.87086509 1208.75560173 -103.68327833 1205.36798297 -111.48632812 1201.99682617 C-124.47074147 1196.37406791 -136.17388737 1189.30072955 -147.49316406 1180.83935547 C-149.0644999 1179.67002206 -150.65306502 1178.52395065 -152.2421875 1177.37890625 C-159.69186486 1171.95128417 -166.49579663 1166.00529711 -173.125 1159.625 C-173.66833984 1159.10357422 -174.21167969 1158.58214844 -174.77148438 1158.04492188 C-182.10014588 1150.97161443 -188.88986267 1143.699445 -195.125 1135.625 C-195.85074219 1134.70460938 -196.57648438 1133.78421875 -197.32421875 1132.8359375 C-220.44399408 1102.89724065 -236.01306572 1067.43375586 -242.44848633 1030.17919922 C-244.16564762 1020.39914492 -247.25701122 1011.74241492 -251.06713867 1002.58398438 C-257.71465934 986.54582871 -263.38273414 970.13143428 -267.47265625 953.25390625 C-267.76170586 952.07245026 -267.76170586 952.07245026 -268.05659485 950.86712646 C-268.98976391 947.03156142 -269.88809208 943.19289511 -270.73071289 939.33642578 C-272.75160932 930.51317415 -275.57166477 925.01847839 -282.125 918.625 C-297.18538204 899.72163927 -308.55536731 877.49592645 -316.125 854.625 C-316.43663086 853.70315918 -316.74826172 852.78131836 -317.06933594 851.83154297 C-331.62750642 808.08997752 -331.28035911 759.19665743 -316.125 715.625 C-315.86847656 714.8736377 -315.61195313 714.12227539 -315.34765625 713.34814453 C-308.04217645 692.09147035 -297.85283757 672.47118884 -284.125 654.625 C-283.50109375 653.80773437 -282.8771875 652.99046875 -282.234375 652.1484375 C-270.80182354 637.50919478 -257.35144782 622.26888544 -241.74609375 612.0703125 C-234.63399489 607.2326412 -230.0014042 601.03757219 -228.125 592.625 C-227.50004449 586.5965686 -227.46016122 580.56014493 -227.39550781 574.50415039 C-226.74634694 520.55424542 -204.53458486 467.94516479 -167.9375 428.58984375 C-166.39641572 426.91922868 -164.96977318 425.21973742 -163.5625 423.4375 C-160.9904923 420.46979881 -158.25652117 417.99904767 -155.26953125 415.4609375 C-153.86966266 414.2625072 -152.49060168 413.0392098 -151.13671875 411.7890625 C-146.44616715 407.46068155 -141.51566887 403.58402722 -136.375 399.8125 C-135.7368335 399.34424805 -135.09866699 398.87599609 -134.44116211 398.39355469 C-131.75268294 396.44457464 -129.10023434 394.61044181 -126.234375 392.92578125 C-123.99250176 391.79881436 -123.99250176 391.79881436 -123.125 389.625 C-124.094375 389.439375 -125.06375 389.25375 -126.0625 389.0625 C-134.6686873 386.56392949 -142.03969972 378.72770813 -147.125 371.625 C-147.64385281 370.11724455 -148.12444816 368.59568143 -148.5625 367.0625 C-150.24284005 362.73412408 -152.79413244 361.48012487 -156.81103516 359.60791016 C-158.32186065 358.94833702 -159.8345922 358.29311412 -161.34912109 357.64208984 C-175.15891766 351.6976308 -186.55149971 342.98411101 -193.140625 329.1640625 C-194.12306633 326.62998763 -194.64448641 324.21997558 -195.1875 321.5625 C-196.82781571 315.59771559 -200.99995428 313.22014006 -205.921875 309.84375 C-210.72176155 306.51895053 -214.93026105 302.6740883 -219.125 298.625 C-220.115 297.67367187 -220.115 297.67367187 -221.125 296.703125 C-228.00093073 289.53081794 -231.02343124 281.31004402 -231.8125 271.5 C-232.6183361 264.44893411 -235.32336073 261.58038458 -240.51953125 256.9765625 C-247.73100315 250.46785773 -252.31267665 242.15023433 -254.125 232.625 C-254.22695566 230.30290778 -254.23460457 227.98997479 -254.23974609 225.66577148 C-254.28066195 215.77679867 -256.07680529 210.86896559 -262.609375 203.51953125 C-270.02707878 194.98456463 -271.64153647 184.58350672 -272.125 173.625 C-271.89511378 171.41202934 -271.62676936 169.20257158 -271.3125 167 C-270.54788547 160.1694435 -273.05303842 155.64823568 -276.36328125 149.9140625 C-279.71478559 143.65693023 -280.51408919 137.83728379 -280.5 130.875 C-280.49867065 129.68910278 -280.49867065 129.68910278 -280.49731445 128.47924805 C-280.34928462 121.1250961 -278.51030274 115.15348828 -275.0859375 108.65234375 C-274.03354985 106.681896 -274.03354985 106.681896 -273.125 103.625 C-274.2873762 99.96833574 -274.2873762 99.96833574 -276.125 96.625 C-279.03496149 85.69349991 -277.96797474 72.93418726 -272.73046875 62.97265625 C-271.27383604 60.46134771 -269.73805708 58.03809879 -268.125 55.625 C-267.5475 54.738125 -266.97 53.85125 -266.375 52.9375 C-259.14814797 45.50990208 -249.45568441 40.06717532 -239.125 38.625 C-235.50628121 38.63326716 -231.88696686 38.79356395 -228.27539062 39.015625 C-225.76610629 39.13902104 -225.76610629 39.13902104 -222.125 38.625 C-219.82130711 36.41474916 -219.82130711 36.41474916 -218.125 33.625 C-204.81895652 22.04421337 -188.53189706 18.70587202 -171.30615234 18.42138672 C-163.09503554 18.27593527 -157.82314912 17.97199934 -151.34765625 12.41015625 C-144.49900788 6.90957223 -134.98018566 5.3686544 -126.42578125 5.8203125 C-118.24193665 6.21705782 -113.15501598 5.8461776 -106.59765625 0.44921875 C-98.21587355 -5.73449771 -87.1481083 -6.41085273 -77.125 -5.375 C-72.7101804 -4.61869358 -68.32812549 -3.72134327 -63.96459961 -2.7109375 C-57.33040959 -1.20969857 -53.354917 -1.72965622 -47.0625 -4.375 C-31.48387101 -10.90410183 -14.72562009 -7.1503011 0 0 Z " fill="#000000" transform="translate(327.125,7.375)"/>
<path d="M0 0 C-0.40992188 0.45890625 -0.81984375 0.9178125 -1.2421875 1.390625 C-1.78101563 2.00421875 -2.31984375 2.6178125 -2.875 3.25 C-3.40867187 3.85328125 -3.94234375 4.4565625 -4.4921875 5.078125 C-7.86367101 9.37545631 -8.39154785 12.5183301 -8 18 C-7.11935073 20.35369807 -7.11935073 20.35369807 -6 22 C-1.49826788 21.42156515 1.58175201 19.65269386 5.4375 17.3125 C20.66339888 8.34935209 37.4464295 2.22744171 55 0 C52.63798309 2.46043429 50.38876201 4.50702374 47.5 6.3125 C43.11780114 9.39696615 40.6321472 12.94640758 39.5390625 18.2265625 C39.28849028 20.14310137 39.13530582 22.07189212 39 24 C46.90851469 22.64150955 54.42536637 20.43541176 62.0625 18 C81.94057839 11.68295955 81.94057839 11.68295955 91.0625 11.875 C92.75052734 11.90207031 92.75052734 11.90207031 94.47265625 11.9296875 C95.30667969 11.95289063 96.14070313 11.97609375 97 12 C95.23125438 13.82530434 93.57194618 15.31033902 91.5 16.8125 C88.12259502 19.76772936 86.19954226 22.59681709 85.8203125 27.1640625 C85.81343539 29.11028472 85.8994671 31.05636388 86 33 C92.80545251 31.99567111 99.33738761 30.39717875 105.9375 28.5 C122.65522412 23.77747906 139.9012717 21.69649984 157 26 C151.66666667 31.33333333 146.33333333 36.66666667 141 42 C149.18836242 43.60896179 156.99243582 44.2769787 165.328125 44.1953125 C167.00065338 44.19106766 167.00065338 44.19106766 168.70697021 44.18673706 C172.22142895 44.17566202 175.73562005 44.15058194 179.25 44.125 C181.65234003 44.11495379 184.05468412 44.10583084 186.45703125 44.09765625 C192.30477674 44.07576442 198.15236924 44.04241595 204 44 C203.59406616 44.53354095 203.18813232 45.06708191 202.76989746 45.61679077 C201.96630798 46.67925522 201.96630798 46.67925522 201.14648438 47.76318359 C200.61680054 48.46172455 200.0871167 49.1602655 199.54138184 49.87997437 C197.276625 52.99493422 195.36414033 56.2593202 193.5 59.625 C193.11690674 60.31303711 192.73381348 61.00107422 192.33911133 61.70996094 C186.69461088 72.02524108 182.53440299 82.79358317 179 94 C182.91711328 93.69294194 186.83359161 93.37841166 190.75 93.0625 C191.86117188 92.97548828 192.97234375 92.88847656 194.1171875 92.79882812 C195.18710937 92.71181641 196.25703125 92.62480469 197.359375 92.53515625 C198.34389648 92.456604 199.32841797 92.37805176 200.34277344 92.29711914 C202.6533494 92.03876091 204.76737883 91.6322672 207 91 C205.57309527 97.18325385 201.99766999 101.26088835 198 106 C197.31550781 106.81984375 196.63101562 107.6396875 195.92578125 108.484375 C189.29081505 116.15568242 181.79151367 122.40431673 173.4375 128.125 C169.57071015 130.94008627 168.7462222 133.33611122 168 138 C178.60692382 139.8446824 187.59059014 138.74103583 198 136 C196.38281008 139.73197673 193.98729726 142.6783199 191.375 145.75 C190.90280029 146.3063916 190.43060059 146.8627832 189.9440918 147.43603516 C185.76129981 152.27590429 181.3320411 156.85017041 176.8125 161.375 C176.16007324 162.02823242 175.50764648 162.68146484 174.83544922 163.35449219 C169.48392941 168.64542875 163.96318519 173.71587808 158 178.3125 C157.34 178.869375 156.68 179.42625 156 180 C156 180.66 156 181.32 156 182 C160.94413841 184.64381296 165.86800024 184.22504028 171.3125 184.125 C172.24384766 184.11597656 173.17519531 184.10695312 174.13476562 184.09765625 C176.4234436 184.07418263 178.71158672 184.04134729 181 184 C169.71008071 197.52370182 155.87374132 207.64115589 141.1875 217.1875 C140.59477295 217.57429932 140.0020459 217.96109863 139.39135742 218.35961914 C135.24775627 221 135.24775627 221 133 221 C132.67 222.32 132.34 223.64 132 225 C141.19588359 227.53679547 148.50272691 228.5505752 158 227 C154.73420709 231.59723156 150.94620332 234.51345782 146.375 237.6875 C145.62573242 238.21005371 144.87646484 238.73260742 144.10449219 239.27099609 C129.63196457 249.18735761 113.88731204 256.65394879 98 264 C104.47624963 270.9032551 111.9556536 271.51785653 121 272 C117.83780768 275.61956677 114.42131196 277.47715376 110.0625 279.3125 C109.02283081 279.75698486 109.02283081 279.75698486 107.9621582 280.21044922 C92.76518744 286.5512946 76.9585652 291.04227583 61 295 C61 296.32 61 297.64 61 299 C65.96870603 303.96870603 72.12396941 306.16145968 79 307 C76.79300732 309.51540854 75.13446442 310.49992788 71.90234375 311.31640625 C70.69868164 311.62674805 70.69868164 311.62674805 69.47070312 311.94335938 C68.63474609 312.14767578 67.79878906 312.35199219 66.9375 312.5625 C65.72416992 312.87477539 65.72416992 312.87477539 64.48632812 313.19335938 C61.99688384 313.82412405 59.50113587 314.41745325 57 315 C56.24114502 315.18546387 55.48229004 315.37092773 54.70043945 315.56201172 C46.31583251 317.45246121 37.77754492 317.67663443 29.22338867 318.10449219 C27.18627247 318.20889828 25.14984701 318.32292545 23.11328125 318.4375 C21.91485596 318.49808594 20.71643066 318.55867188 19.48168945 318.62109375 C15.74881286 319.02733626 12.57143812 319.87220747 9 321 C11.47405514 327.34648927 13.61662076 329.97055471 19.78125 332.89453125 C22.08463302 334.04216751 23.98772734 335.40390191 26 337 C1.07399865 349.46300068 -46.0809451 333.70200648 -70.66796875 325.82421875 C-78.01879242 323.37219493 -85.03902918 320.39367058 -92 317 C-93.01320313 316.50757813 -94.02640625 316.01515625 -95.0703125 315.5078125 C-115.61220999 304.92215502 -130.81879716 286.43591238 -137.9375 264.5 C-138.92964484 261.24706611 -139.35359636 259.17026515 -138 256 C-136.32345211 253.93881503 -134.64469853 252.0377411 -132.8125 250.125 C-132.01924316 249.28267822 -132.01924316 249.28267822 -131.20996094 248.42333984 C-122.50435432 239.23803654 -113.66738282 230.17748845 -104 222 C-102.89045754 221.02902044 -101.78254964 220.05617164 -100.67578125 219.08203125 C-92.94148845 212.28941041 -85.06118234 205.7653852 -76.91015625 199.48046875 C-74.8369806 197.87365163 -72.77727566 196.25053809 -70.71875 194.625 C-61.42587528 187.30533223 -51.97212625 180.3058676 -42.25097656 173.56689453 C-39.85432068 171.89859329 -37.46933063 170.21453275 -35.0859375 168.52734375 C-25.24469049 161.57176178 -15.31172796 154.81356499 -5.13623047 148.35644531 C-2.9528892 146.97008599 -0.77513862 145.57522749 1.40234375 144.1796875 C27.69097439 127.3913058 54.66737851 111.8277781 82.171875 97.12890625 C87.14344013 94.46998056 92.08323905 91.7588492 97 89 C55.92515727 102.67260188 16.18748185 119.19192863 -22.63378906 138.34033203 C-25.86344075 139.93267118 -29.09917957 141.51201296 -32.3359375 143.08984375 C-46.19206787 149.88419678 -59.67755689 157.21338664 -73 165 C-74.02270996 165.5971582 -75.04541992 166.19431641 -76.09912109 166.80957031 C-98.7866443 180.11313881 -120.61403799 194.5397152 -141.5625 210.4375 C-142.27801025 210.98043701 -142.99352051 211.52337402 -143.73071289 212.08276367 C-147.17229662 214.7244181 -150.52336928 217.41584131 -153.7578125 220.30859375 C-154.63070923 221.08408569 -154.63070923 221.08408569 -155.52124023 221.87524414 C-156.60051391 222.84666952 -157.66626955 223.83341592 -158.71508789 224.83764648 C-161.22479007 227.10190308 -162.54852708 227.99881503 -165.9765625 228.0078125 C-181.92624788 222.69125071 -195.71411115 209.14129096 -203.78515625 194.8359375 C-216.04046585 170.0844277 -210.76326747 146.1555606 -202.41162109 121.25366211 C-191.5964544 90.41992024 -173.90162065 63.28920973 -150 41 C-149.67 41 -149.34 41 -149 41 C-148.81824219 41.79664063 -148.63648438 42.59328125 -148.44921875 43.4140625 C-147.1263979 48.99026116 -145.79116422 53.94932189 -143 59 C-143 59.66 -143 60.32 -143 61 C-142.34 61 -141.68 61 -141 61 C-140.74992188 60.44054687 -140.49984375 59.88109375 -140.2421875 59.3046875 C-137.5857977 54.37616554 -133.59321052 50.26924942 -130 46 C-129.52675293 45.43361816 -129.05350586 44.86723633 -128.56591797 44.28369141 C-119.55433606 33.51331581 -110.40562679 23.32004659 -99 15 C-98 17 -98 17 -98.4375 18.625 C-99.99166748 25.18704047 -99.1823049 30.20365894 -96 36 C-93.40106121 38.50179007 -93.40106121 38.50179007 -90 39 C-88.86079233 37.67092438 -87.79086085 36.28242489 -86.75 34.875 C-77.68683801 23.34155378 -67.26612636 12.61432571 -54 6 C-53.01 6.495 -53.01 6.495 -52 7 C-52.7425 7.99 -52.7425 7.99 -53.5 9 C-56.27352578 14.54705156 -55.36810709 19.34230424 -53.5 25 C-53.01190647 26.33773782 -52.5161237 27.67282477 -52 29 C-46.89032777 27.41032419 -43.81542128 25.06935104 -39.9375 21.375 C-32.16238013 14.07785881 -10.86593797 -3.62197932 0 0 Z " fill="#5FB12D" transform="translate(779,47)"/>
<path d="M0 0 C18.05492139 5.29195972 32.52456017 15.81540147 46.4765625 28.06640625 C48.79987253 29.84665155 50.14531907 30.61803565 53 31 C55.77838808 23.85557352 57.66144494 17.87670485 54.5 10.5 C54.005 9.675 53.51 8.85 53 8 C63.53611799 11.04789316 71.32845067 19.06458873 78.9375 26.625 C79.56390381 27.24592529 80.19030762 27.86685059 80.83569336 28.5065918 C84.68905209 32.4200217 87.91955792 36.4524024 91 41 C94.90604537 39.73317448 96.90166803 38.56716435 99 35 C101.17933494 29.45260198 100.13781852 22.68909261 99 17 C114.45004281 26.86706274 126.68404555 41.67032245 137.72265625 56.1015625 C139.40369418 58.24106532 141.01052866 60.16055437 143 62 C145.38017224 59.12118833 146.61847965 56.6516852 147.625 53.0625 C147.86476563 52.22847656 148.10453125 51.39445312 148.3515625 50.53515625 C148.99090126 48.0355728 149.51940241 45.53447218 150 43 C165.52876809 55.7680982 177.00686672 70.60676203 187 88 C187.52907959 88.91458984 187.52907959 88.91458984 188.06884766 89.84765625 C203.48549452 116.77748491 217.61951095 151.38874589 209.97265625 182.6875 C207.16571377 192.24688642 203.0949555 200.13246237 197 208 C196.40445312 208.80695313 195.80890625 209.61390625 195.1953125 210.4453125 C192.54299441 213.53181789 189.64402542 215.94921879 186.4375 218.4375 C185.82269775 218.91541992 185.20789551 219.39333984 184.57446289 219.88574219 C171.24510155 230.04703046 171.24510155 230.04703046 165.57421875 229.96484375 C162.02715702 228.63536841 159.61480658 226.33989371 156.875 223.8125 C148.36194948 216.25422681 139.24758963 209.62430119 130 203 C129.18724609 202.41428223 128.37449219 201.82856445 127.53710938 201.22509766 C59.81716198 152.5328956 -17.46440736 118.06927514 -96 91 C-94.57482056 91.75966064 -94.57482056 91.75966064 -93.12084961 92.53466797 C-89.73306951 94.34070006 -86.34575618 96.14760569 -82.9586792 97.95495605 C-81.27226678 98.85473336 -79.58561891 99.75406934 -77.89892578 100.65332031 C-40.4434186 120.65864144 -3.74659812 142.56332554 31 167 C32.36052986 167.94942975 33.72121132 168.8986423 35.08203125 169.84765625 C50.91426876 180.92121961 66.42755318 192.31419068 81.32373047 204.62353516 C83.56763312 206.46611062 85.84520998 208.26461681 88.125 210.0625 C102.51341349 221.56842665 116.0625946 234.0165897 129.125 247 C129.90532593 247.77331665 129.90532593 247.77331665 130.70141602 248.56225586 C132.15564138 250.02266032 133.58353677 251.50299375 135 253 C135.49129395 253.50966309 135.98258789 254.01932617 136.48876953 254.54443359 C139.93592911 258.33498838 139.93592911 258.33498838 140.2265625 261.3515625 C136.00663406 277.29960373 128.56469049 290.24447303 117 302 C116.23945313 302.7734375 115.47890625 303.546875 114.6953125 304.34375 C84.36034517 333.38575151 28.85142802 341.84248142 -11.46875 341.203125 C-15.7083549 341.05506384 -19.81824428 340.73463276 -24 340 C-24.33 339.34 -24.66 338.68 -25 338 C-24.10796875 337.5875 -23.2159375 337.175 -22.296875 336.75 C-14.43988433 333.14280517 -14.43988433 333.14280517 -9.1875 326.5625 C-8.795625 325.386875 -8.40375 324.21125 -8 323 C-12.70240426 321.51789894 -16.83633727 320.71584409 -21.796875 320.5078125 C-23.71632935 320.41330811 -23.71632935 320.41330811 -25.67456055 320.31689453 C-26.67342789 320.27076019 -26.67342789 320.27076019 -27.69247437 320.22369385 C-44.2966299 319.42723816 -61.63783111 317.95094334 -77 311 C-77.33 310.34 -77.66 309.68 -78 309 C-76.91332031 308.74476563 -76.91332031 308.74476563 -75.8046875 308.484375 C-70.12896401 307.06166031 -65.50086403 305.80842341 -61 302 C-60.29038649 300.68901911 -59.61515187 299.3578698 -59 298 C-59.58676514 297.82460693 -60.17353027 297.64921387 -60.77807617 297.46850586 C-67.86234772 295.34549389 -74.93427588 293.18391166 -82 291 C-83.43182617 290.55962402 -83.43182617 290.55962402 -84.89257812 290.11035156 C-113.88369397 281.11630603 -113.88369397 281.11630603 -121 274 C-120.01 273.90203125 -119.02 273.8040625 -118 273.703125 C-110.60565182 272.89265727 -104.50511283 271.82653696 -98 268 C-97.34 268 -96.68 268 -96 268 C-98.42265236 265.23745012 -100.91161666 263.92370368 -104.234375 262.3984375 C-105.27601807 261.91310547 -106.31766113 261.42777344 -107.39086914 260.92773438 C-108.49938232 260.41533203 -109.60789551 259.90292969 -110.75 259.375 C-125.59470691 252.36145359 -138.77349812 244.5452616 -151.83203125 234.6015625 C-152.39639893 234.17182129 -152.9607666 233.74208008 -153.54223633 233.29931641 C-155 232 -155 232 -157 229 C-156.12859375 229.10699219 -155.2571875 229.21398437 -154.359375 229.32421875 C-145.90005145 230.17564417 -139.08699813 229.62160928 -131 227 C-131.11306697 225.04105639 -131.11306697 225.04105639 -132 223 C-133.63942706 222.26890415 -135.31581131 221.62107221 -137 221 C-139.95199418 219.26260495 -142.78398894 217.34975312 -145.625 215.4375 C-146.42824707 214.89810791 -147.23149414 214.35871582 -148.05908203 213.80297852 C-156.80353519 207.86565855 -164.73496236 201.21702507 -172.5625 194.125 C-173.33279541 193.4278186 -173.33279541 193.4278186 -174.11865234 192.71655273 C-176.44196516 190.5762057 -178.23591682 188.64612476 -180 186 C-179.13048706 186.01571045 -179.13048706 186.01571045 -178.2434082 186.03173828 C-175.59981679 186.07348615 -172.95629495 186.09938538 -170.3125 186.125 C-168.94448242 186.15013672 -168.94448242 186.15013672 -167.54882812 186.17578125 C-162.93151773 186.20936169 -159.18067669 186.23556185 -155 184 C-156.37196165 180.8376284 -157.8565122 179.0063782 -160.5 176.8125 C-161.21800781 176.20277344 -161.93601563 175.59304687 -162.67578125 174.96484375 C-163.44277344 174.31644531 -164.20976562 173.66804687 -165 173 C-176.64574523 162.86205143 -187.52801086 152.21323665 -197 140 C-196.505 139.01 -196.505 139.01 -196 138 C-195.40574219 138.2165625 -194.81148437 138.433125 -194.19921875 138.65625 C-184.98037309 141.75309395 -176.51534818 141.43627897 -167 140 C-168.18647219 134.02396522 -169.65189236 131.88810844 -174.8125 128.3125 C-175.99459412 127.45692375 -177.17286912 126.59605088 -178.34765625 125.73046875 C-179.25475342 125.064104 -179.25475342 125.064104 -180.18017578 124.38427734 C-190.68947394 116.3902177 -202.26626925 105.9818946 -206 93 C-205.40316406 93.13277344 -204.80632812 93.26554687 -204.19140625 93.40234375 C-195.49839611 95.17194611 -186.83890388 95.60623875 -178 96 C-183.73665799 79.03151969 -189.68060257 62.40367111 -201.56640625 48.6875 C-203 47 -203 47 -203 46 C-202.11582649 46.00333092 -202.11582649 46.00333092 -201.21379089 46.00672913 C-195.0322633 46.0289968 -188.85074725 46.04399548 -182.66918945 46.05493164 C-180.36775245 46.05993441 -178.06631858 46.06673872 -175.76489258 46.07543945 C-172.44091005 46.08768381 -169.11696986 46.09326903 -165.79296875 46.09765625 C-164.27040718 46.10539818 -164.27040718 46.10539818 -162.71708679 46.11329651 C-151.19586644 46.25435807 -151.19586644 46.25435807 -140 44 C-140.90363281 43.09636719 -141.80726563 42.19273438 -142.73828125 41.26171875 C-147.15885417 36.84114583 -151.57942708 32.42057292 -156 28 C-150.171879 26.32913937 -144.98774993 25.67638384 -138.9375 25.75 C-138.10460449 25.75821777 -137.27170898 25.76643555 -136.41357422 25.77490234 C-123.78291867 25.99980201 -112.43603718 28.17926269 -100.40673828 31.87939453 C-95.24233289 33.45502594 -90.3797966 34.49505965 -85 35 C-84.57304581 28.91590275 -84.97781532 24.76402854 -89 20 C-91.24574229 18.13896731 -93.55156453 16.60090011 -96 15 C-96 14.67 -96 14.34 -96 14 C-87.58673504 13.63991003 -80.24126914 14.50036652 -72.125 16.6875 C-71.08214844 16.95715576 -70.03929687 17.22681152 -68.96484375 17.50463867 C-62.0823005 19.32413089 -55.45589432 21.49435938 -48.8046875 24.03125 C-45.16181399 25.28951272 -41.8353408 25.76987955 -38 26 C-38.25720674 24.41439607 -38.53138799 22.83154076 -38.8125 21.25 C-39.03873047 19.92742187 -39.03873047 19.92742187 -39.26953125 18.578125 C-40.05666768 15.79999644 -41.22364302 14.23869646 -43 12 C-43 11.34 -43 10.68 -43 10 C-43.515625 9.773125 -44.03125 9.54625 -44.5625 9.3125 C-47.92403127 7.5024447 -50.92911144 5.26003596 -54 3 C-51.48769679 1.74384839 -50.68279909 2.13057819 -47.9921875 2.78515625 C-47.17854736 2.98270508 -46.36490723 3.18025391 -45.52661133 3.38378906 C-44.65157959 3.60776367 -43.77654785 3.83173828 -42.875 4.0625 C-41.52281372 4.40812988 -41.52281372 4.40812988 -40.14331055 4.76074219 C-24.47338084 8.88477208 -9.53884927 14.97410049 4 24 C4.99 24 5.98 24 7 24 C9.3635962 20.30688093 9.50338992 17.31477078 9 13 C6.7147658 8.21102315 3.40924116 4.04058212 0 0 Z " fill="#5FB12D" transform="translate(298,45)"/>
<path d="M0 0 C0.68835938 0.55300781 1.37671875 1.10601563 2.0859375 1.67578125 C7.8677566 6.46349311 12.4359319 12.06340418 17 18 C17.6084375 18.78117188 18.216875 19.56234375 18.84375 20.3671875 C34.10529677 40.97027563 43.15754648 68.46999541 44 94 C44.03996094 94.88816406 44.07992188 95.77632812 44.12109375 96.69140625 C44.35333736 106.51394467 43.15378767 116.26232093 42 126 C41.90348145 126.84191895 41.80696289 127.68383789 41.70751953 128.55126953 C37.58618997 163.41000281 21.81528924 194.60519794 -1 221 C-1.63292969 221.76183594 -2.26585937 222.52367187 -2.91796875 223.30859375 C-4.56146733 225.26050193 -6.2575729 227.1356747 -8 229 C-8.89460937 229.9590625 -9.78921875 230.918125 -10.7109375 231.90625 C-29.24696359 251.324944 -51.1804585 264.22308791 -76 274 C-77.12277344 274.4434375 -78.24554688 274.886875 -79.40234375 275.34375 C-82.24782174 276.37421117 -85.0742438 277.22760036 -88 278 C-89.09054687 278.29648437 -90.18109375 278.59296875 -91.3046875 278.8984375 C-111.89363214 283.48779326 -136.8803907 283.38451068 -157 277 C-158.25554687 276.649375 -159.51109375 276.29875 -160.8046875 275.9375 C-174.6072423 271.80534222 -187.62286164 264.82347582 -199 256 C-200.38638672 254.93458984 -200.38638672 254.93458984 -201.80078125 253.84765625 C-207.51304181 249.32577205 -212.43909916 244.66915712 -217 239 C-217.63421875 238.25234375 -218.2684375 237.5046875 -218.921875 236.734375 C-238.47894675 213.23556786 -247.50055808 184.23874533 -249 154 C-249.05414063 152.98035156 -249.10828125 151.96070313 -249.1640625 150.91015625 C-249.6261355 133.58241863 -246.84077067 115.62449571 -242 99 C-241.81131348 98.35144043 -241.62262695 97.70288086 -241.42822266 97.03466797 C-235.53393411 77.49807031 -226.17688324 58.36797406 -214 42 C-213.60055176 41.4440918 -213.20110352 40.88818359 -212.78955078 40.31542969 C-201.64229214 24.83831768 -187.70067827 10.84094452 -172 0 C-170.93007813 -0.74121094 -169.86015625 -1.48242188 -168.7578125 -2.24609375 C-116.90639029 -37.23219047 -49.62498626 -41.57544835 0 0 Z " fill="#D5254E" transform="translate(463,590)"/>
<path d="M0 0 C0.89847656 0.2578125 1.79695312 0.515625 2.72265625 0.78125 C22.45586682 6.64421215 41.15939425 15.73546994 57 29 C57.54479004 29.45294434 58.08958008 29.90588867 58.65087891 30.37255859 C61.44896131 32.70207385 64.23104405 35.04869359 66.9921875 37.421875 C69.04011007 39.17723721 71.09726168 40.90187776 73.18359375 42.609375 C75.41090313 44.49996216 77.30901814 46.28409647 79.1875 48.5 C79.77273438 49.18964844 80.35796875 49.87929688 80.9609375 50.58984375 C81.63382813 51.38519531 82.30671875 52.18054688 83 53 C83.83789062 53.95003906 84.67578125 54.90007813 85.5390625 55.87890625 C107.24591292 80.6451895 120.10161524 109.2610919 128 141 C128.1964209 141.76296387 128.3928418 142.52592773 128.59521484 143.31201172 C134.03323719 165.25664353 133.21310661 192.34534701 127 214 C126.81276367 214.69496582 126.62552734 215.38993164 126.43261719 216.10595703 C118.21206172 246.42546689 100.57548326 273.96755237 73.1875 290.3125 C51.1822506 302.11064261 25.119861 310.70005989 0.05078125 305.55859375 C-3.45660054 304.91639708 -6.95385846 304.55873117 -10.5 304.1875 C-43.6186081 300.12526503 -78.98662671 281.23856736 -100.25 255.25 C-101.11625 254.13625 -101.11625 254.13625 -102 253 C-104.14194688 250.80016266 -106.30987145 248.64169848 -108.55859375 246.55078125 C-119.786941 235.84106435 -127.01601374 222.67378801 -134 209 C-134.51030762 208.00629395 -135.02061523 207.01258789 -135.54638672 205.98876953 C-151.5283092 174.42633099 -158.87540976 139.47321036 -153.75 104.125 C-153.61505127 103.17810303 -153.48010254 102.23120605 -153.34106445 101.25561523 C-150.4999521 82.28857452 -144.13889773 65.23614314 -134 49 C-133.61247559 48.36449219 -133.22495117 47.72898437 -132.82568359 47.07421875 C-121.84766559 29.25635519 -107.80969125 17.02418754 -89 8 C-88.2280127 7.62230469 -87.45602539 7.24460937 -86.66064453 6.85546875 C-60.03630159 -6.05464797 -28.51045779 -8.23535986 0 0 Z " fill="#D5254E" transform="translate(725,559)"/>
<path d="M0 0 C1.32106915 0.36396473 2.64267902 0.72597299 3.96484375 1.0859375 C6.25742813 1.72584038 8.54524822 2.38349946 10.82421875 3.0703125 C13.14956113 3.75104004 15.49954085 4.3490834 17.859375 4.8984375 C37.71792982 9.81399163 54.00540933 22.76602783 69.34667969 35.63330078 C70.76386478 36.8048014 72.2184953 37.93074568 73.6796875 39.046875 C76.32205344 41.27108876 78.35088716 43.67347435 80.5 46.375 C81.2321875 47.29023437 81.964375 48.20546875 82.71875 49.1484375 C83.4715625 50.08945312 84.224375 51.03046875 85 52 C86.25296875 53.44632813 86.25296875 53.44632813 87.53125 54.921875 C90.06154168 58.07673234 92.07114806 61.33877144 94 64.875 C96.0847042 68.63251119 98.18418541 72.30635966 100.5234375 75.91015625 C103.07081918 79.95634169 104.92155037 84.10332586 106.625 88.5625 C106.92422363 89.33899902 107.22344727 90.11549805 107.53173828 90.91552734 C110.22232198 98.14896163 111.86840325 105.35736963 113 113 C113.18046875 114.16144531 113.3609375 115.32289063 113.546875 116.51953125 C117.84404482 152.46419427 109.18623342 188.08138073 87 216.9375 C77.03903952 229.40397814 65.35917832 241.21564446 52 250 C51.44699219 250.36496582 50.89398437 250.72993164 50.32421875 251.10595703 C12.28897581 275.89000807 -32.84730116 283.26141 -77 274 C-101.03020614 268.6804472 -124.44311608 257.17247984 -143 241 C-143.70253906 240.41734375 -144.40507812 239.8346875 -145.12890625 239.234375 C-149.91840294 235.19920132 -154.00157621 230.8099432 -158 226 C-158.72316406 225.15308594 -159.44632812 224.30617188 -160.19140625 223.43359375 C-184.4399465 194.58972946 -193.38273311 160.76990086 -190.43359375 123.64892578 C-188.08283045 97.74855155 -177.43441955 73.21610318 -161 53 C-160.45214844 52.32453125 -159.90429688 51.6490625 -159.33984375 50.953125 C-157.6132637 48.91225023 -155.82688868 46.95161602 -154 45 C-153.23429687 44.16984375 -152.46859375 43.3396875 -151.6796875 42.484375 C-130.33370066 20.1825977 -101.81377928 6.16530513 -72 -1 C-70.99308105 -1.24556641 -70.99308105 -1.24556641 -69.96582031 -1.49609375 C-47.9491956 -6.56798635 -21.65515627 -6.38291576 0 0 Z " fill="#D5254E" transform="translate(574,853)"/>
<path d="M0 0 C19.05284656 16.61752031 25.78833336 44.28549895 27.86328125 68.640625 C29.11874348 88.62955307 28.87329111 108.27958022 24.0625 127.8125 C23.75860489 129.14571726 23.45518856 130.47904377 23.15234375 131.8125 C17.36860399 155.44821575 6.91272583 178.48799172 -7.9375 197.8125 C-8.90623047 199.111875 -8.90623047 199.111875 -9.89453125 200.4375 C-19.51751543 212.80202269 -31.21252385 224.66770202 -43.9375 233.8125 C-44.90429688 234.52277344 -45.87109375 235.23304688 -46.8671875 235.96484375 C-60.92870478 246.02106332 -75.82079438 253.60019122 -91.9375 259.8125 C-92.59073242 260.06515625 -93.24396484 260.3178125 -93.91699219 260.578125 C-103.94277755 264.37537143 -114.16824901 266.52122201 -124.69287109 268.40576172 C-126.58727595 268.7490376 -128.4760781 269.1230226 -130.36328125 269.50390625 C-137.13778777 270.76039708 -143.81543023 271.0123171 -150.6875 271.0625 C-151.5633374 271.0718457 -152.4391748 271.08119141 -153.34155273 271.09082031 C-161.90866141 271.04866972 -169.23499157 269.37888497 -177.125 266 C-178.84783203 265.27876953 -178.84783203 265.27876953 -180.60546875 264.54296875 C-191.45884191 258.90634002 -199.79820702 246.61405268 -204.04296875 235.3046875 C-205.87486922 228.15307606 -206.39635352 220.88357026 -206.79101562 213.52978516 C-206.88430496 211.79926797 -206.99328935 210.06947399 -207.12304688 208.34130859 C-208.00550243 196.19762942 -206.29331508 184.78908092 -203.8125 172.9375 C-203.67087433 172.24756958 -203.52924866 171.55763916 -203.3833313 170.84680176 C-201.51190469 161.88797234 -198.90343105 153.59004627 -195.34570312 145.15551758 C-193.98494852 141.92514087 -192.75712377 138.6698364 -191.5625 135.375 C-185.72848795 120.30532625 -177.53576856 106.98470807 -168.70263672 93.50927734 C-167.03984845 90.96886805 -165.39514855 88.41764172 -163.75390625 85.86328125 C-158.12998763 77.18164541 -152.17560275 69.12089246 -145.31396484 61.38330078 C-143.37368998 59.16908857 -141.49542178 56.90503952 -139.61157227 54.64282227 C-122.6724252 34.35824447 -122.6724252 34.35824447 -112.73046875 29.80078125 C-110.7805233 28.95076794 -110.7805233 28.95076794 -110.02172852 26.92651367 C-108.15607192 23.28888241 -104.89264709 21.25243462 -101.6875 18.8125 C-100.94532227 18.24724609 -100.20314453 17.68199219 -99.43847656 17.09960938 C-86.76352167 7.73274999 -72.09345852 -0.62871564 -56.9375 -5.1875 C-55.91914062 -5.50203125 -54.90078125 -5.8165625 -53.8515625 -6.140625 C-36.34763026 -10.71409898 -15.20101561 -10.85419389 0 0 Z " fill="#D5254E" transform="translate(911.9375,907.1875)"/>
<path d="M0 0 C0.60263672 0.19770996 1.20527344 0.39541992 1.82617188 0.59912109 C12.01417212 3.97110069 21.27552171 8.57202342 30.5625 13.9375 C31.56112061 14.51024658 32.55974121 15.08299316 33.58862305 15.6730957 C39.27681554 19.04714037 44.23833858 22.69352898 49.06103516 27.22363281 C50.89913253 28.90759107 52.78238109 30.36974617 54.8125 31.8125 C63.28379766 38.051839 70.63432254 45.17140337 77.00390625 53.52734375 C79.87707852 57.08647887 83.11667791 60.2153741 86.41015625 63.3828125 C92.57684771 69.61461232 97.87195515 76.30944017 102.875 83.5 C103.48359863 84.37366211 104.09219727 85.24732422 104.71923828 86.14746094 C110.0060099 93.83603741 114.70750779 101.71999207 119 110 C119.52134521 111.00522705 119.52134521 111.00522705 120.05322266 112.03076172 C122.4343091 116.65583842 124.73976707 121.31480119 127 126 C127.56976563 127.18078125 128.13953125 128.3615625 128.7265625 129.578125 C133.62749714 139.95941512 136.62038278 150.11723861 139.125 161.3125 C139.64824033 163.62113845 140.17166967 165.92973406 140.6953125 168.23828125 C140.92234863 169.24930908 141.14938477 170.26033691 141.38330078 171.30200195 C141.74784346 172.89684011 142.13534619 174.48720019 142.57324219 176.06347656 C143.07396048 178.33561472 143.12960455 180.41963959 143.1328125 182.74609375 C143.13619629 184.11604492 143.13619629 184.11604492 143.13964844 185.51367188 C143.13481445 186.47853516 143.12998047 187.44339844 143.125 188.4375 C143.12016602 189.42943359 143.11533203 190.42136719 143.11035156 191.44335938 C142.95558844 210.39874616 141.22969042 225.01084021 128.33251953 239.49902344 C127.18891912 240.78719774 126.08792696 242.11297802 124.99609375 243.4453125 C117.27997485 252.21135687 106.11043528 255.36572919 94.80126953 256.15307617 C60.99534016 257.9242051 25.91852327 245.73225 -2 227 C-2.72509766 226.51466797 -3.45019531 226.02933594 -4.19726562 225.52929688 C-21.9830509 213.4373603 -37.59261668 198.61331458 -50 181 C-50.57621094 180.18233154 -50.57621094 180.18233154 -51.1640625 179.34814453 C-77.59612421 141.21719836 -90.45543487 91.90672703 -82.47851562 45.76928711 C-79.00793792 28.06666525 -73.43328347 15.40685078 -58.953125 3.98046875 C-42.48577389 -7.06311196 -18.33646414 -6.47597345 0 0 Z " fill="#D5254E" transform="translate(219,922)"/>
<path d="M0 0 C16.26341412 13.65747112 31.35649754 28.01122176 33.7734375 50.203125 C34.41006527 63.82695928 28.3082944 73.68593228 19.60888672 83.56347656 C18.23270187 85.0735025 16.83173168 86.56082817 15.4296875 88.046875 C14.72199219 88.80871094 14.01429688 89.57054687 13.28515625 90.35546875 C7.25611825 96.26922878 0.00848015 99.54772103 -7.54785156 103.08105469 C-9.45206699 103.9904072 -11.32154153 104.94461822 -13.1875 105.9296875 C-25.87998188 112.57813039 -38.21746974 116.25527444 -52.26953125 118.359375 C-57.01698976 119.08151771 -61.6404937 120.1833781 -66.28515625 121.3984375 C-74.98333126 123.11531866 -83.79522075 123.21134069 -92.6328125 123.171875 C-93.7475293 123.16849121 -94.86224609 123.16510742 -96.01074219 123.16162109 C-141.30799975 122.88874605 -188.44843318 115.92395484 -224.5703125 86.046875 C-225.16585938 85.6240625 -225.76140625 85.20125 -226.375 84.765625 C-234.22016993 79.07482816 -242.97603756 64.66566715 -244.5703125 55.046875 C-245.51689871 39.90149564 -243.48140343 28.85657561 -233.5703125 17.046875 C-232.54744141 15.79777344 -232.54744141 15.79777344 -231.50390625 14.5234375 C-221.56359571 2.91725539 -209.45434612 -5.90894857 -196.5703125 -13.953125 C-195.43408447 -14.67012573 -195.43408447 -14.67012573 -194.27490234 -15.40161133 C-188.24095663 -19.12832005 -182.07927043 -22.20819902 -175.5703125 -25.015625 C-174.56919434 -25.4475415 -173.56807617 -25.87945801 -172.53662109 -26.32446289 C-115.07155932 -50.5388113 -47.73809678 -39.64992111 0 0 Z " fill="#D5254E" transform="translate(639.5703125,426.953125)"/>
<path d="M0 0 C3.71171538 0.53129922 7.3968344 0.89703736 11.13085938 1.21411133 C32.48977882 3.04128142 52.724402 6.27378514 72.9296875 13.5625 C73.86280762 13.88798828 74.79592773 14.21347656 75.75732422 14.54882812 C90.03152811 19.53711206 101.33821316 24.44561087 110.9296875 36.5625 C112.1053125 37.9546875 112.1053125 37.9546875 113.3046875 39.375 C117.06665237 44.43918348 116.42931298 50.53671386 115.9296875 56.5625 C113.55328631 67.31114536 103.24590823 77.71737174 95.45703125 85.06640625 C93.88775406 86.60357547 92.55169312 88.22346465 91.1796875 89.9375 C87.03128531 94.83522091 81.97478635 98.63820651 76.9296875 102.5625 C76.33333496 103.03381348 75.73698242 103.50512695 75.12255859 103.99072266 C59.51437505 116.29354942 43.55579273 124.68941278 24.9296875 131.5625 C24.24487305 131.82047363 23.56005859 132.07844727 22.85449219 132.34423828 C13.02950379 136.0155768 3.25615361 138.02185788 -7.0703125 139.5625 C-8.11687012 139.73450928 -9.16342773 139.90651855 -10.24169922 140.08374023 C-14.58583371 140.62696481 -18.83025525 140.76011281 -23.203125 140.80078125 C-24.06885132 140.81066574 -24.93457764 140.82055023 -25.82653809 140.83073425 C-61.80572219 141.15711121 -61.80572219 141.15711121 -77.0703125 136.5625 C-78.02454102 136.28341797 -78.97876953 136.00433594 -79.96191406 135.71679688 C-110.61243295 126.57694604 -135.97926225 111.55556083 -159.0703125 89.5625 C-159.79992187 88.88574219 -160.52953125 88.20898438 -161.28125 87.51171875 C-168.59356604 80.53178071 -177.85248437 70.99125162 -179.5390625 60.703125 C-179.62515887 52.7392109 -178.26538785 45.93328531 -172.578125 40.0078125 C-171.12586349 38.79634047 -169.59843568 37.67675649 -168.0703125 36.5625 C-167.36390625 35.81097656 -166.6575 35.05945312 -165.9296875 34.28515625 C-152.92495442 21.90223418 -134.86821795 15.77769129 -118.0703125 10.5625 C-117.34457031 10.33626953 -116.61882812 10.11003906 -115.87109375 9.87695312 C-80.96761381 -0.63656974 -36.27980403 -5.61751804 0 0 Z " fill="#D5254E" transform="translate(569.0703125,1172.4375)"/>
<path d="M0 0 C3.93020573 1.7467581 5.21960144 3.21665306 7 7 C7.804375 7.804375 8.60875 8.60875 9.4375 9.4375 C17.18120395 17.18120395 18.92009729 28.56988165 20.6875 39 C20.80673828 39.69826904 20.92597656 40.39653809 21.04882812 41.1159668 C23.22828995 54.88090599 23.20557438 68.72766653 23.1875 82.625 C23.18559662 84.12415451 23.18559662 84.12415451 23.18365479 85.65359497 C23.12235479 111.00013106 21.12928715 134.83382323 15.7109375 159.64892578 C15.08658734 162.59186202 14.5216604 165.53357107 14 168.49609375 C11.81484668 180.81779624 8.11451495 192.37369976 3.97412109 204.17138672 C3.07169884 206.79180383 2.22033505 209.42099917 1.39453125 212.06640625 C-2.61322129 224.85386519 -8.13119962 236.07327472 -16 247 C-16.58265625 247.85722656 -17.1653125 248.71445312 -17.765625 249.59765625 C-22.44973721 256.06211192 -27.2462915 259.79790043 -35 262 C-39.98746444 262.50999636 -42.07563451 260.97761242 -45.84375 257.93359375 C-72.98476084 233.59518729 -87.63265655 196.47910985 -92 161 C-92.12373604 158.22780074 -92.20952315 155.47962098 -92.23828125 152.70703125 C-92.24816574 151.92753616 -92.25805023 151.14804108 -92.26823425 150.34492493 C-92.59191578 118.20820181 -92.59191578 118.20820181 -88 103 C-87.73687012 102.07687012 -87.47374023 101.15374023 -87.20263672 100.20263672 C-75.42734163 59.42559618 -49.54605424 24.74641244 -13 3 C-11.9275 2.360625 -10.855 1.72125 -9.75 1.0625 C-6.25713326 -0.2870167 -3.71694233 -0.40548462 0 0 Z " fill="#D5254E" transform="translate(146,649)"/>
<path d="M0 0 C14.59437575 6.80505195 27.11701442 17.29919824 39 28 C39.52239258 28.46889648 40.04478516 28.93779297 40.58300781 29.42089844 C64.82502185 51.51153116 81.85116459 84.68186346 87 117 C87.185625 118.12277344 87.37125 119.24554687 87.5625 120.40234375 C93.53564516 161.26031585 84.03162981 204.16207864 59.9375 237.875 C58.63833654 239.59349741 57.32608453 241.30218999 56 243 C55.34128906 243.85078125 54.68257812 244.7015625 54.00390625 245.578125 C39.53321589 263.96972366 39.53321589 263.96972366 32.25 265.625 C24.69430752 264.17198222 18.28456658 257.16355248 14 251 C12.45016184 248.34937936 10.99378782 245.67197573 9.58984375 242.94140625 C8.32018651 240.59238437 6.98403753 238.42148798 5.52734375 236.19140625 C2.94313946 232.09287272 1.22558884 227.93460741 -0.375 223.375 C-0.66608643 222.56305176 -0.95717285 221.75110352 -1.25708008 220.91455078 C-6.71834769 205.50121711 -11.68468587 190.0240183 -15 174 C-15.22010742 172.9589209 -15.44021484 171.9178418 -15.66699219 170.84521484 C-20.1691005 149.36552984 -23.35219598 127.78106614 -26 106 C-26.09064224 105.30264236 -26.18128448 104.60528473 -26.27467346 103.88679504 C-26.99931783 97.99990906 -27.19218988 92.17416084 -27.23828125 86.24609375 C-27.246353 85.22814224 -27.25442474 84.21019073 -27.26274109 83.16139221 C-27.27651038 81.00906028 -27.28726419 78.85670717 -27.29516602 76.7043457 C-27.30657987 74.55323656 -27.32685888 72.40215328 -27.35668945 70.2512207 C-27.65519307 48.64389461 -27.3590463 21.30833153 -14 3 C-11.3125 1 -11.3125 1 -9 0 C-5.8250344 -1.5874828 -3.4181507 -0.70683981 0 0 Z " fill="#D5254E" transform="translate(921,642)"/>
<path d="M0 0 C2.25515827 0.01069717 4.50951448 0.0000511 6.76464844 -0.01269531 C20.17461374 -0.02751467 33.08103925 1.41456419 46.07714844 4.88574219 C47.04765137 5.14299072 48.0181543 5.40023926 49.01806641 5.6652832 C75.55063286 12.96875532 100.69472215 26.18994851 120.28466797 45.67480469 C121.98332969 47.35331192 123.71324293 48.9948684 125.44824219 50.63574219 C132.80069281 57.67195837 139.12241679 64.93113943 144.69970703 73.44677734 C145.91508147 75.29951269 147.16168699 77.12873942 148.40917969 78.95996094 C166.85252111 106.62674069 175.00191464 139.68293111 175.13964844 172.63574219 C175.17058594 174.52099609 175.17058594 174.52099609 175.20214844 176.44433594 C175.20988281 178.25224609 175.20988281 178.25224609 175.21777344 180.09667969 C175.22711914 181.18513184 175.23646484 182.27358398 175.24609375 183.39501953 C174.84627791 186.60942934 174.14563027 187.97156921 171.88964844 190.26074219 C165.19030259 191.87705691 159.47999339 190.08741042 153.66699219 186.79980469 C151.0367807 185.34227539 148.36199435 184.11749716 145.6081543 182.91430664 C138.85812004 179.9357146 132.79561133 176.42701061 126.73120117 172.23461914 C121.85699699 168.86706753 116.85225918 165.79417263 111.76464844 162.76074219 C101.86726478 156.79446448 92.95100732 150.20157339 84.51464844 142.26074219 C79.86676718 137.93666107 74.97347304 134.51849108 69.66552734 131.08764648 C60.62952186 125.21183056 51.87816516 118.67904567 44.43652344 110.85058594 C42.7865555 109.15478556 41.05702187 107.61749781 39.26464844 106.07324219 C28.90764145 97.09716946 19.13018237 87.60978379 9.51342773 77.84765625 C4.68622471 72.95811358 4.68622471 72.95811358 -0.46972656 68.42480469 C-2.72503958 66.57651561 -4.55670195 64.79622661 -6.42285156 62.57324219 C-9.07030002 59.47194542 -11.75297983 56.41273488 -14.48535156 53.38574219 C-15.2471875 52.53882813 -16.00902344 51.69191406 -16.79394531 50.81933594 C-18.29824718 49.15775462 -19.81083767 47.50362627 -21.33300781 45.85839844 C-43.16086049 22.10569103 -43.16086049 22.10569103 -43.54785156 10.76074219 C-43.11035156 7.26074219 -43.11035156 7.26074219 -41.11035156 5.26074219 C-38.52832031 4.47949219 -38.52832031 4.47949219 -35.29785156 3.76074219 C-34.26015625 3.52355469 -33.22246094 3.28636719 -32.15332031 3.04199219 C-30.80708877 2.77430796 -29.45918324 2.51500056 -28.11035156 2.26074219 C-27.20671875 2.08575195 -26.30308594 1.91076172 -25.37207031 1.73046875 C-16.87239152 0.24036881 -8.59959529 -0.04833322 0 0 Z " fill="#D5254E" transform="translate(732.1103515625,417.7392578125)"/>
<path d="M0 0 C0.83575562 -0.00226593 1.67151123 -0.00453186 2.53259277 -0.00686646 C37.13062748 0.00375165 37.13062748 0.00375165 48.1875 7.375 C49.6724278 10.90411412 49.18103906 12.39213714 47.81640625 16.01171875 C47.14589237 17.37115343 46.45599831 18.72115072 45.75 20.0625 C45.38382568 20.77438477 45.01765137 21.48626953 44.64038086 22.21972656 C41.97485623 27.24832922 38.94540877 31.65466008 35.2265625 35.9765625 C33.03415085 38.55537621 31.09490211 41.24803938 29.125 44 C20.31182546 55.80661486 9.74270939 66.16905969 -1.23193359 75.95166016 C-4.23454205 78.65558467 -7.17554359 81.42589497 -10.125 84.1875 C-10.75245117 84.77313721 -11.37990234 85.35877441 -12.02636719 85.9621582 C-15.26518136 88.98584971 -18.49548599 92.01809858 -21.71484375 95.0625 C-28.85942428 101.80454352 -36.0841652 108.29811105 -43.8125 114.375 C-44.91150617 115.24342905 -46.01046196 116.11192185 -47.109375 116.98046875 C-50.0775951 119.32154141 -53.05370653 121.65238537 -56.03173828 123.98095703 C-58.31322261 125.76698329 -60.5895841 127.55946416 -62.86572266 129.35229492 C-64.59237182 130.71100633 -66.32137654 132.06667316 -68.05078125 133.421875 C-70.76379959 135.54819678 -73.46711671 137.68637596 -76.16796875 139.828125 C-88.65552721 149.69088442 -101.32908379 158.58818954 -115.24609375 166.31640625 C-117.72261823 167.71392722 -120.10641302 169.20047376 -122.47265625 170.77734375 C-130.11943217 175.85290725 -137.82916969 179.9636284 -146.3125 183.5 C-147.23224609 183.89050537 -148.15199219 184.28101074 -149.09960938 184.68334961 C-154.60313224 186.88846652 -158.8820172 187.98094063 -164.8125 187.375 C-166.16688337 186.75220958 -167.50649649 186.09373295 -168.8125 185.375 C-169.94285529 136.01325419 -158.18916156 94.39779787 -125.8125 56.375 C-125.28543457 55.747146 -124.75836914 55.11929199 -124.21533203 54.47241211 C-120.39973713 49.95469543 -116.3398149 46.17580322 -111.8125 42.375 C-110.925625 41.60027344 -110.03875 40.82554687 -109.125 40.02734375 C-101.79219686 33.71840275 -94.14406224 28.28518899 -85.8125 23.375 C-85.13928711 22.9728125 -84.46607422 22.570625 -83.77246094 22.15625 C-69.89352426 13.988416 -55.22778472 8.87966999 -39.8125 4.375 C-38.9776709 4.11928223 -38.1428418 3.86356445 -37.28271484 3.60009766 C-25.05543754 -0.03049146 -12.64834915 0.02259161 0 0 Z " fill="#D5254E" transform="translate(322.8125,417.625)"/>
<path d="M0 0 C17.57376768 14.73749505 30.59045516 33.84873882 32.9375 57.25 C34.67742713 82.17009453 29.81717166 104.23938997 13.73828125 123.9453125 C11.53850007 126.45605751 9.27534548 128.86766265 6.9375 131.25 C6.27492188 131.93707031 5.61234375 132.62414062 4.9296875 133.33203125 C-10.37416822 148.0830861 -32.45625074 155.35476927 -53.44140625 155.28125 C-76.11580621 154.73661502 -94.88462271 146.9253011 -112.0625 132.25 C-112.73667969 131.67765625 -113.41085937 131.1053125 -114.10546875 130.515625 C-128.99981005 116.746028 -138.48217974 94.75988271 -139.30078125 74.703125 C-139.88413046 47.69197299 -131.95726053 25.89168799 -113.375 6.0625 C-82.9070638 -23.36460608 -33.39360206 -25.85143337 0 0 Z M-104.18359375 19.20703125 C-115.5793335 30.97930662 -123.03861531 46.83681816 -124.0625 63.25 C-124.11535156 64.04535156 -124.16820312 64.84070313 -124.22265625 65.66015625 C-124.88102077 85.09622198 -117.29517216 102.70875172 -104.9375 117.375 C-96.62333105 126.25379842 -86.55042296 132.34930712 -75.0625 136.25 C-74.16660156 136.56839844 -73.27070312 136.88679687 -72.34765625 137.21484375 C-54.82631681 142.54742532 -35.83498858 139.7262868 -19.80737305 131.50146484 C-2.1259052 121.9725815 9.60776903 106.92028773 15.42871094 87.85693359 C20.54349744 70.22111429 18.42831762 51.51350639 9.9375 35.25 C2.43061728 22.83589433 -6.39454079 13.49425212 -19.0625 6.25 C-20.04476563 5.66605469 -20.04476563 5.66605469 -21.046875 5.0703125 C-48.50690432 -10.06790879 -82.65642461 -2.0821225 -104.18359375 19.20703125 Z " fill="#000000" transform="translate(1100.0625,370.75)"/>
<path d="M0 0 C13.550625 -0.12375 13.550625 -0.12375 27.375 -0.25 C31.62383057 -0.30462402 31.62383057 -0.30462402 35.95849609 -0.36035156 C38.23013554 -0.37204557 40.50178344 -0.3822357 42.7734375 -0.390625 C43.93141846 -0.41108887 45.08939941 -0.43155273 46.2824707 -0.45263672 C54.84045639 -0.45627919 62.0035611 0.80284888 68.8125 6.25 C74.85746087 13.84937938 77.95168282 20.0505887 77 30 C75.46936408 37.79780662 72.9141212 42.82638822 66.6875 47.875 C66.130625 48.24625 65.57375 48.6175 65 49 C65.47050781 49.3403125 65.94101563 49.680625 66.42578125 50.03125 C67.35970703 50.75828125 67.35970703 50.75828125 68.3125 51.5 C68.92738281 51.9640625 69.54226563 52.428125 70.17578125 52.90625 C75.49358916 59.00977256 75.79311303 67.42059223 76.625 75.125 C76.86622634 77.2318811 77.10838505 79.3386557 77.3515625 81.4453125 C77.45291504 82.36844238 77.55426758 83.29157227 77.65869141 84.24267578 C78.02147106 87.1734579 78.51450519 90.08703112 79 93 C72.07 93 65.14 93 58 93 C55.76470588 84.05882353 55.76470588 84.05882353 55.32421875 79.80078125 C55.21787109 78.90166016 55.11152344 78.00253906 55.00195312 77.07617188 C54.79114605 75.2234265 54.59336308 73.36915586 54.40820312 71.51367188 C53.84709247 66.9558783 53.46316059 64.57548615 50.51953125 60.91796875 C46.85634121 58.12940083 44.89606801 57.84481049 40.3359375 57.68359375 C39.3257959 57.64548584 38.3156543 57.60737793 37.27490234 57.56811523 C35.98793457 57.52501221 34.7009668 57.48190918 33.375 57.4375 C27.249375 57.2209375 27.249375 57.2209375 21 57 C21 68.88 21 80.76 21 93 C14.07 93 7.14 93 0 93 C0 62.31 0 31.62 0 0 Z M21 17 C21 24.92 21 32.84 21 41 C25.37566252 41.10804105 29.74865081 41.18735287 34.125 41.25 C35.98125 41.30027344 35.98125 41.30027344 37.875 41.3515625 C45.11602677 41.63584847 45.11602677 41.63584847 51.7734375 39.25390625 C55.1897162 35.79567325 55.74288551 32.75661804 56 28 C55.44678333 23.7817229 54.81156445 21.79590268 51.7734375 18.81640625 C46.59259016 15.55378403 39.99529905 16.59101273 34.125 16.75 C32.23394531 16.77707031 32.23394531 16.77707031 30.3046875 16.8046875 C27.20279781 16.85168583 24.10130049 16.92342468 21 17 Z " fill="#000000" transform="translate(1011,392)"/>
</svg>
