<?xml version="1.0" encoding="UTF-8"?>
<svg version="1.1" xmlns="http://www.w3.org/2000/svg" width="120" height="120">
<path d="M0 0 C2.70942393 -0.10861833 5.414439 -0.18758577 8.125 -0.25 C8.88554688 -0.28351562 9.64609375 -0.31703125 10.4296875 -0.3515625 C15.78536928 -0.44390184 18.76787463 0.41995437 23 4 C30.49220553 14.82207465 30.17266528 28.32011428 29 41 C27.87093294 47.17223328 25.63263457 53.00381114 20.875 57.25 C16.25430296 60.0625982 12.08434213 60.28164203 6.8125 60.5625 C6.06291016 60.60568359 5.31332031 60.64886719 4.54101562 60.69335938 C2.69421625 60.79922685 0.84713166 60.9000976 -1 61 C-0.94779297 62.51980469 -0.94779297 62.51980469 -0.89453125 64.0703125 C-0.86637405 65.4218583 -0.83907597 66.77342219 -0.8125 68.125 C-0.78736328 68.79015625 -0.76222656 69.4553125 -0.73632812 70.140625 C-0.65115865 75.93214939 -2.02952546 79.9063708 -6 84.125 C-14.3895848 89.3684905 -21.91352247 90.37879743 -31.6875 90.4375 C-33.16645752 90.45248535 -33.16645752 90.45248535 -34.67529297 90.46777344 C-43.38206335 90.36511655 -49.96727951 88.3972041 -57 83 C-62.30404098 76.96436716 -61.25544573 69.69248286 -61.29516602 62.11401367 C-61.3066553 60.58852846 -61.32705882 59.06308248 -61.35668945 57.5378418 C-61.67110928 41.34434245 -61.67110928 41.34434245 -57 35 C-52.49741654 31.34007996 -48.9955127 30.4280345 -43.328125 30.49609375 C-42.24443634 30.4819619 -42.24443634 30.4819619 -41.13885498 30.46754456 C-38.84227852 30.43904709 -36.54673816 30.43580838 -34.25 30.4375 C-18.92225098 31.18378215 -18.92225098 31.18378215 -5.33276367 25.58374023 C-2.08110833 21.89284116 -0.92206192 18.57296144 -0.68359375 13.76953125 C-0.62075195 12.56586914 -0.62075195 12.56586914 -0.55664062 11.33789062 C-0.51732422 10.50451172 -0.47800781 9.67113281 -0.4375 8.8125 C-0.37272461 7.5450293 -0.37272461 7.5450293 -0.30664062 6.25195312 C-0.20068482 4.16815567 -0.0998498 2.08409897 0 0 Z " fill="#FED14C" transform="translate(91,30)"/>
<path d="M0 0 C2.16852163 -0.00437741 4.33501049 -0.04077791 6.50317383 -0.07861328 C14.60527337 -0.14506072 21.51394064 -0.07601126 27.77807617 5.81835938 C33.56473141 12.23922394 32.49031094 19.75395435 32.53466797 27.90478516 C32.5461687 29.3749353 32.56659067 30.8450443 32.59619141 32.31494141 C32.90236269 47.53798289 32.90236269 47.53798289 28.23950195 54.37060547 C23.13179055 59.22916021 18.91452596 59.50217021 12.1340332 59.51123047 C10.49404545 59.52956696 8.85407113 59.54913804 7.21411133 59.56982422 C4.63795417 59.59870655 2.06265734 59.62060344 -0.51367188 59.62109375 C-13.61228593 59.29995016 -13.61228593 59.29995016 -24.76049805 65.37060547 C-28.7840788 70.69211549 -28.97343873 76.13370146 -29.32299805 82.62060547 C-29.36618164 83.36568359 -29.40936523 84.11076172 -29.45385742 84.87841797 C-29.5594653 86.70895447 -29.66044006 88.53975723 -29.76049805 90.37060547 C-44.03330234 90.95010279 -44.03330234 90.95010279 -49.76049805 87.37060547 C-55.99112598 81.56479307 -57.83416924 74.04691703 -58.15893555 65.67919922 C-58.16677936 63.72216809 -58.15884088 61.7650131 -58.13549805 59.80810547 C-58.14709961 58.83164062 -58.15870117 57.85517578 -58.1706543 56.84912109 C-58.14026669 49.2775429 -57.15325394 42.1587486 -52.44799805 35.99560547 C-47.39091701 31.05613097 -43.07338781 30.02899132 -36.21975708 30.03071594 C-34.78972855 30.05394173 -34.78972855 30.05394173 -33.33081055 30.07763672 C-32.34047821 30.08188156 -31.35014587 30.0861264 -30.32980347 30.09049988 C-27.1814196 30.10722925 -24.03368691 30.14487128 -20.88549805 30.18310547 C-18.74488232 30.19815971 -16.60425652 30.21184682 -14.46362305 30.22412109 C-9.22902764 30.25711387 -3.99480938 30.30725591 1.23950195 30.37060547 C1.23950195 29.71060547 1.23950195 29.05060547 1.23950195 28.37060547 C-8.33049805 28.37060547 -17.90049805 28.37060547 -27.76049805 28.37060547 C-27.82237305 25.68935547 -27.88424805 23.00810547 -27.94799805 20.24560547 C-27.97531006 19.41270996 -28.00262207 18.57981445 -28.03076172 17.72167969 C-28.08482538 12.84897391 -27.41273102 9.61158435 -24.76049805 5.37060547 C-18.3900783 -0.99981428 -8.34502106 -0.00188567 0 0 Z " fill="#3A73A3" transform="translate(57.760498046875,-0.37060546875)"/>
<path d="M0 0 C0.495 0.99 0.495 0.99 1 2 C0.34 3.65 -0.32 5.3 -1 7 C-1 11.62 -1 16.24 -1 21 C12.86 21.495 12.86 21.495 27 22 C27 23.32 27 24.64 27 26 C11.16 26.33 -4.68 26.66 -21 27 C-21.66 28.32 -22.32 29.64 -23 31 C-25 33.25 -25 33.25 -27 35 C-27.66 35 -28.32 35 -29 35 C-29.33 37.64 -29.66 40.28 -30 43 C-30.66 43 -31.32 43 -32 43 C-31.73717456 36.69218955 -29.57166654 32.40873503 -25 28 C-19.56347916 24.48389851 -14.81898514 24.60554354 -8.5703125 24.70703125 C-7.57998016 24.71127609 -6.58964783 24.71552094 -5.56930542 24.71989441 C-2.42092155 24.73662378 0.72681113 24.77426581 3.875 24.8125 C6.01561572 24.82755424 8.15624153 24.84124135 10.296875 24.85351562 C15.53147041 24.8865084 20.76568867 24.93665044 26 25 C26 24.34 26 23.68 26 23 C16.43 23 6.86 23 -3 23 C-3.061875 20.31875 -3.12375 17.6375 -3.1875 14.875 C-3.21481201 14.04210449 -3.24212402 13.20920898 -3.27026367 12.35107422 C-3.32438691 7.47299929 -2.6023026 4.27569928 0 0 Z " fill="#6C99BE" transform="translate(33,5)"/>
<path d="M0 0 C2.5625 0.3125 2.5625 0.3125 4.375 1.5 C5.98775784 3.96157776 5.9959014 5.42315736 5.5625 8.3125 C4.375 10.125 4.375 10.125 2.5625 11.3125 C0.0625 11.75 0.0625 11.75 -2.4375 11.3125 C-4.3125 9.625 -4.3125 9.625 -5.4375 7.3125 C-5.14609088 3.23277231 -4.43505664 0.56859701 0 0 Z " fill="#ECF2F6" transform="translate(43.4375,8.6875)"/>
<path d="M0 0 C3 0.25 3 0.25 5 2.25 C5.25 5.25 5.25 5.25 5 8.25 C3 10.25 3 10.25 0 10.5 C-3 10.25 -3 10.25 -5 8.25 C-5.25 5.25 -5.25 5.25 -5 2.25 C-3 0.25 -3 0.25 0 0 Z " fill="#FFFCF6" transform="translate(76,99.75)"/>
<path d="M0 0 C0 0.66 0 1.32 0 2 C-3.98060777 3.17076699 -7.91621717 4.25749403 -12 5 C-9.11083069 1.26107501 -4.63135569 0 0 0 Z " fill="#81A6C5" transform="translate(46,0)"/>
</svg>
