<?xml version="1.0" encoding="UTF-8"?>
<svg version="1.1" xmlns="http://www.w3.org/2000/svg" width="600" height="600">
<path d="M0 0 C198 0 396 0 600 0 C600 198 600 396 600 600 C402 600 204 600 0 600 C0 402 0 204 0 0 Z " fill="#FEFEFE" transform="translate(0,0)"/>
<path d="M0 0 C2.36427071 2.36427071 3.28544423 4.59041353 4.6875 7.625 C15.79039344 29.88378398 42.29891612 40.248629 64.62792969 47.78857422 C81.04908622 53.088846 97.76019923 57.54498482 114.9296875 59.54296875 C118 60 118 60 121.70812988 60.96276855 C128.71337654 62.73655838 135.92197694 63.33050325 143.09375 64.09375 C143.92423355 64.18248886 144.7547171 64.27122772 145.61036682 64.36265564 C162.97556015 66.17651352 180.22895894 66.62121538 197.67724609 66.52148438 C201.69632925 66.49869665 205.71435123 66.51229112 209.73339844 66.53526306 C227.21225561 66.61944068 244.45745063 65.95711535 261.84375 64.09375 C262.64945938 64.00754898 263.45516876 63.92134796 264.28529358 63.83253479 C272.29773746 62.95673529 280.16141615 61.92947474 288 60 C290.35175831 59.54340523 292.705899 59.09887205 295.0625 58.66796875 C314.74236782 55.09239628 314.74236782 55.09239628 333.97607422 49.68164062 C336.21795969 48.92659307 338.47012131 48.20699726 340.72265625 47.484375 C362.57173994 40.31474325 390.90214324 30.07341393 402.10791016 8.37963867 C403.46827318 5.61194357 404.75231217 2.82033617 406 0 C406.33 0 406.66 0 407 0 C407.11446845 49.73419116 407.20256062 99.468369 407.25532665 149.202666 C407.26158011 155.07554057 407.26805173 160.94841488 407.2746582 166.82128906 C407.27596976 167.99046233 407.27728131 169.15963559 407.2786326 170.36423835 C407.30038341 189.29016139 407.33980319 208.21600842 407.38576398 227.14188638 C407.43253758 246.56459273 407.46029732 265.98725928 407.47044247 285.41001964 C407.47729973 297.39291183 407.49895027 309.37558916 407.53958233 321.35841522 C407.5660318 329.57781451 407.57399597 337.79710288 407.56750689 346.01654163 C407.56430746 350.75729939 407.56917851 355.49768193 407.59602737 360.2383728 C407.62045835 364.58399243 407.62152417 368.92898649 407.60449447 373.27463564 C407.60239148 374.84147324 407.60865068 376.40835075 407.62441591 377.97511044 C407.75402036 391.65789545 404.99251641 401.81650277 395.296875 411.765625 C394.15992188 412.87164063 394.15992188 412.87164063 393 414 C392.11054687 414.92039062 392.11054687 414.92039062 391.203125 415.859375 C380.33706078 426.34079978 364.74531848 432.32301312 351 438 C349.92234375 438.44988281 348.8446875 438.89976562 347.734375 439.36328125 C336.27246927 443.78389062 324.18865903 446.38994292 312.25976562 449.22167969 C309.58919441 449.85932057 306.92707451 450.52109437 304.265625 451.1953125 C289.06408715 454.88058685 273.31874841 456.02351278 257.78149414 457.52563477 C254.57860163 457.83638855 251.38195852 458.18131276 248.18530273 458.55053711 C233.06747 460.23639178 218.01228349 460.35588313 202.8125 460.3125 C201.47580985 460.3105766 200.13911958 460.30873609 198.8024292 460.30697632 C167.98372378 460.24803522 138.31831457 457.84056825 108 452 C106.86546387 451.78504883 105.73092773 451.57009766 104.56201172 451.34863281 C69.74495563 444.61569148 26.02684319 433.45867432 4.5078125 402.6875 C-0.40843098 393.92486913 -0.41947768 385.95949994 -0.36076355 376.15612793 C-0.36207265 374.53230021 -0.36470098 372.90847311 -0.36853105 371.28464937 C-0.37522751 366.83322563 -0.36325491 362.38201913 -0.34819686 357.93062305 C-0.33522866 353.12635631 -0.33962652 348.32210159 -0.34190369 343.51782227 C-0.34347592 335.19763797 -0.33407188 326.87752432 -0.31719017 318.55735779 C-0.29279805 306.52783852 -0.28499468 294.49835337 -0.2812262 282.46881205 C-0.27466205 262.95119388 -0.25470187 243.43361336 -0.22631836 223.91601562 C-0.19877685 204.95768421 -0.17754371 185.99936301 -0.16479492 167.04101562 C-0.16400675 165.87221515 -0.16321858 164.70341467 -0.16240653 163.49919599 C-0.15849138 157.6356052 -0.15470027 151.77201434 -0.15097082 145.90842342 C-0.11987606 97.27225627 -0.06704124 48.63612997 0 0 Z " fill="#1869B1" transform="translate(96,110)"/>
<path d="M0 0 C1.28455078 0.00149048 2.56910156 0.00298096 3.89257812 0.0045166 C24.43770823 0.04721275 44.6729877 0.74979403 65.0625 3.3125 C66.24956543 3.45703613 67.43663086 3.60157227 68.65966797 3.75048828 C112.21355616 9.20000484 168.24456469 18.53233092 197.81640625 54.5546875 C203.42788106 62.47056106 205.35063198 70.67903435 204.0625 80.3125 C197.85702097 98.84647227 182.17160577 109.37649189 165.42504883 117.73461914 C140.7158813 129.66150986 114.70277014 136.36852872 87.72290039 140.81347656 C85.57785332 141.21583283 83.45038768 141.71128179 81.33178711 142.23535156 C73.95184303 143.88162164 66.4152042 144.60288402 58.90625 145.40625 C57.66427101 145.53935829 57.66427101 145.53935829 56.39720154 145.67515564 C39.05030446 147.49142174 21.81557132 147.93361204 4.38525391 147.83398438 C0.36614545 147.81119651 -3.65190214 147.82480188 -7.67097473 147.8477478 C-25.03829377 147.93150081 -42.19116367 147.29590492 -59.46875 145.46875 C-60.25310928 145.386819 -61.03746857 145.304888 -61.84559631 145.22047424 C-70.70814745 144.2734275 -79.34303638 142.96616158 -88.03633118 140.96847534 C-91.87620966 140.10025093 -95.73350872 139.51446893 -99.625 138.9375 C-129.02058274 134.20826207 -161.6673154 124.50939405 -184.9375 105.3125 C-185.67097656 104.74015625 -186.40445313 104.1678125 -187.16015625 103.578125 C-192.20176727 99.46944761 -195.71909681 94.94946654 -198.9375 89.3125 C-199.35257812 88.590625 -199.76765625 87.86875 -200.1953125 87.125 C-203.90503403 79.8612096 -204.07976051 72.48035946 -201.8125 64.6875 C-194.42490607 45.46607505 -175.27089415 34.43580439 -157.3828125 26.35693359 C-142.393879 19.95491108 -126.83297174 14.89052739 -110.9375 11.3125 C-109.57915039 11.0038501 -109.57915039 11.0038501 -108.19335938 10.68896484 C-95.71199964 7.90527655 -83.17747907 5.79413269 -70.5 4.125 C-68.75541504 3.8928479 -68.75541504 3.8928479 -66.97558594 3.65600586 C-44.68725653 0.87374698 -22.44823114 -0.06487507 0 0 Z " fill="#E7E7E7" transform="translate(298.9375,29.6875)"/>
<path d="M0 0 C1.1612439 -0.00376648 2.32248779 -0.00753296 3.5189209 -0.01141357 C50.3565921 -0.08841381 117.09326655 1.50319525 153.75 34.75 C157.05035597 38.40715121 158.82717836 41.75349416 159.5625 46.625 C158.54967764 54.09456487 154.46864901 59.84080821 148.69140625 64.5546875 C125.93765967 79.76893112 97.51772642 85.42390418 71.02197266 89.9753418 C69.14507567 90.29829155 67.26975845 90.63038229 65.39453125 90.96289062 C44.33488885 94.51797495 23.17728772 94.70497414 1.87711334 94.74506378 C-0.3357925 94.74991406 -2.54864687 94.75918439 -4.76153564 94.76898193 C-29.54524965 94.85516037 -54.00565562 93.29002715 -78.375 88.5 C-79.03087097 88.37443726 -79.68674194 88.24887451 -80.36248779 88.11950684 C-94.18655291 85.46813438 -107.61175641 81.82537163 -120.9375 77.3125 C-120.9375 76.6525 -120.9375 75.9925 -120.9375 75.3125 C-121.64519531 75.20035156 -122.35289062 75.08820313 -123.08203125 74.97265625 C-133.75318618 72.50559033 -145.10406056 65.23623877 -151 55.9375 C-153.58786933 51.3143313 -154.36357532 48.4535784 -153.75390625 43.10546875 C-151.18459126 34.31570695 -141.63144381 27.58259018 -133.9375 23.3125 C-110.33085036 11.5591519 -84.78494437 7.09510759 -58.9375 3.3125 C-57.09526855 3.03913818 -57.09526855 3.03913818 -55.21582031 2.76025391 C-36.853217 0.17777191 -18.51160432 0.03313718 0 0 Z " fill="#76C9E6" transform="translate(296.9375,50.6875)"/>
<path d="M0 0 C12.18302823 10.09795551 21.20028948 27.30305145 23.88671875 42.8515625 C24.12707376 46.72419151 24.11772543 50.59717627 24.13671875 54.4765625 C24.16765625 56.02150391 24.16765625 56.02150391 24.19921875 57.59765625 C24.28864518 75.37115955 16.98510946 91.31903537 4.796875 104.03125 C-0.86269797 109.45543386 -8.97374023 115.8515625 -17.11328125 115.8515625 C-13.32393751 120.9475765 -8.83576515 124.60075767 -3.88671875 128.5546875 C-0.72090227 131.17651861 2.12241662 133.99751042 4.984375 136.94140625 C9.18771139 141.1620048 13.78246025 144.95452913 18.38671875 148.7265625 C19.21171875 149.4278125 20.03671875 150.1290625 20.88671875 150.8515625 C20.88671875 151.1815625 20.88671875 151.5115625 20.88671875 151.8515625 C15.47934156 152.10006329 10.07532919 152.28078848 4.66357422 152.40087891 C2.82607099 152.45096032 0.9889622 152.51905321 -0.84716797 152.60595703 C-16.10602509 153.30970248 -16.10602509 153.30970248 -20.97265625 149.77441406 C-22.99177825 147.23058602 -24.56001823 144.6979388 -26.11328125 141.8515625 C-27.44697303 140.18090483 -27.44697303 140.18090483 -28.80078125 138.8203125 C-29.56390625 138.005625 -30.32703125 137.1909375 -31.11328125 136.3515625 C-31.9640625 135.44535156 -32.81484375 134.53914062 -33.69140625 133.60546875 C-36.02328222 130.9539001 -37.89433338 128.21303423 -39.86328125 125.2890625 C-42.25795926 122.22464557 -43.49075006 121.02744492 -47.265625 119.9609375 C-49.65606084 119.67567002 -52.05303184 119.4412932 -54.453125 119.25390625 C-68.18220551 117.74473305 -81.62270456 109.19251866 -90.73046875 99.05078125 C-96.91605019 91.31079204 -101.05904817 82.25764819 -103.5703125 72.71484375 C-103.95049996 70.85399567 -103.95049996 70.85399567 -105.11328125 69.8515625 C-108.25875098 49.58075758 -105.66509137 28.77030634 -93.55859375 11.796875 C-93.08164062 11.15492188 -92.6046875 10.51296875 -92.11328125 9.8515625 C-91.41203125 8.8615625 -90.71078125 7.8715625 -89.98828125 6.8515625 C-83.15261074 -1.01384042 -73.77458027 -6.54663743 -64.11328125 -10.1484375 C-63.3346875 -10.46683594 -62.55609375 -10.78523438 -61.75390625 -11.11328125 C-40.93172114 -18.30820827 -17.53370952 -12.09979955 0 0 Z " fill="#EDEEEF" transform="translate(349.11328125,281.1484375)"/>
<path d="M0 0 C0.34057617 2.70556641 0.34057617 2.70556641 0.29296875 6.1015625 C0.28330078 7.31328125 0.27363281 8.525 0.26367188 9.7734375 C0.23853516 11.04445313 0.21339844 12.31546875 0.1875 13.625 C0.16719727 15.543125 0.16719727 15.543125 0.14648438 17.5 C0.11103196 20.66708282 0.06161441 23.83333541 0 27 C-3.01525134 25.81330684 -5.85593775 24.57240767 -8.6875 23 C-16.06653957 19.33780999 -23.56551827 18.79670838 -31.6875 18.625 C-32.75665649 18.58584473 -32.75665649 18.58584473 -33.84741211 18.54589844 C-39.32006019 18.52809914 -42.50230175 19.86575493 -47 23 C-50.00854142 27.51281212 -49.77985041 31.71929864 -49 37 C-45.48680899 45.58966798 -33.12051762 49.6317606 -25.1875 53.30078125 C-14.07991352 58.48076148 -3.12166143 67.15557186 2.4375 78.3125 C5.93022762 88.06492127 5.72286495 101.39596199 1.36328125 110.796875 C0.91339844 111.52390625 0.46351563 112.2509375 0 113 C-0.32814697 113.55075195 -0.65629395 114.10150391 -0.99438477 114.66894531 C-4.10959025 119.51324163 -7.37733612 121.86493595 -12.5625 124.25 C-13.27720459 124.58644531 -13.99190918 124.92289063 -14.72827148 125.26953125 C-32.53218982 133.41211469 -51.99865764 133.14955404 -70.375 126.9375 C-71.39335937 126.59589844 -72.41171875 126.25429688 -73.4609375 125.90234375 C-76 125 -76 125 -78 124 C-78 114.1 -78 104.2 -78 94 C-72.555 97.465 -72.555 97.465 -67 101 C-56.64204227 106.15067843 -45.41733447 108.12696086 -34.09375 105.265625 C-30.63492775 103.89557203 -28.45567436 102.4970993 -25.9375 99.75 C-24.7076387 96.14240686 -24.09856809 92.7476854 -25 89 C-30.88013359 80.41000618 -40.98050015 76.46957182 -50.0625 72.0625 C-63.00188524 65.73591579 -74.18090549 58.09625991 -79.296875 44.02734375 C-81.67198778 33.80116374 -81.22551636 23.72967394 -75.8046875 14.57421875 C-69.16323319 5.10080232 -58.99405062 -1.77446688 -47.63500977 -4.58520508 C-34.06865177 -6.72077834 -11.98716375 -7.9914425 0 0 Z " fill="#EBEBEC" transform="translate(227,272)"/>
<path d="M0 0 C2.68463886 0.00008124 5.36910701 -0.00687126 8.05371094 -0.02050781 C22.9373454 -0.09061486 37.47657592 0.11900103 52.22241211 2.18530273 C54.36083572 2.41894618 56.50011813 2.64493528 58.64038086 2.86108398 C76.87746237 4.83270209 94.43423484 8.4517411 112.09741211 13.37280273 C113.45431152 13.74755737 113.45431152 13.74755737 114.83862305 14.12988281 C115.66394531 14.36860107 116.48926758 14.60731934 117.33959961 14.85327148 C118.06775879 15.06234131 118.79591797 15.27141113 119.54614258 15.48681641 C121.22241211 16.18530273 121.22241211 16.18530273 122.22241211 18.18530273 C105.01157416 24.74811677 87.32687506 28.70405144 69.21044922 31.84100342 C67.31832214 32.1686925 65.42755107 32.50418305 63.53686523 32.84008789 C42.48373106 36.39315705 21.3304118 36.57778966 0.03702545 36.61786652 C-2.17588039 36.6227168 -4.38873476 36.63198713 -6.60162354 36.64178467 C-31.38476123 36.7279611 -55.8466142 35.16524214 -80.21508789 30.37280273 C-80.86996185 30.24690765 -81.52483582 30.12101257 -82.19955444 29.99130249 C-90.9128904 28.31208885 -99.54292549 26.3911292 -108.09008789 23.99780273 C-108.9433667 23.7602124 -109.79664551 23.52262207 -110.67578125 23.27783203 C-114.58489835 22.11182621 -117.00220648 21.28530896 -119.77758789 18.18530273 C-114.9805027 14.72074121 -109.68433686 13.66775943 -104.02758789 12.31030273 C-102.96918701 12.05273193 -101.91078613 11.79516113 -100.8203125 11.52978516 C-80.96402121 6.7717102 -61.1234679 3.06206134 -40.77758789 1.18530273 C-39.77800049 1.08886475 -38.77841309 0.99242676 -37.74853516 0.89306641 C-25.19084642 -0.13472198 -12.59084657 -0.0019707 0 0 Z " fill="#1E8BB4" transform="translate(298.777587890625,108.814697265625)"/>
<path d="M0 0 C9.24 0 18.48 0 28 0 C28 35.97 28 71.94 28 109 C44.17 109 60.34 109 77 109 C77 116.26 77 123.52 77 131 C51.59 131 26.18 131 0 131 C0 87.77 0 44.54 0 0 Z " fill="#EEEEEE" transform="translate(395,268)"/>
<path d="M0 0 C0.62390625 0.34289062 1.2478125 0.68578125 1.890625 1.0390625 C9.0171456 6.01478634 14.37446978 17.56290828 16 26 C16.22753973 30.22612032 16.18516079 34.45587258 16.1875 38.6875 C16.19974609 39.83412109 16.21199219 40.98074219 16.22460938 42.16210938 C16.24655337 54.94082884 13.93987993 63.68087523 6 74 C3.20020989 76.52652293 0.35682455 78.30624575 -3 80 C-4.0725 80.61875 -5.145 81.2375 -6.25 81.875 C-13.74124416 84.12237325 -22.46419966 84.12685583 -29.8125 81.22265625 C-39.69773812 75.69751423 -45.76243968 67.05988858 -49.1328125 56.42578125 C-52.47025754 42.1202782 -51.60808135 25.20462548 -44.52734375 12.3203125 C-34.73340415 -3.28516099 -16.43767087 -9.15146925 0 0 Z " fill="#2874B9" transform="translate(324,294)"/>
<path d="M0 0 C0.66 0.33 1.32 0.66 2 1 C-2.29 5.29 -6.58 9.58 -11 14 C-11 9.82308582 -8.77013484 7.86318847 -6 5 C-4.05228995 3.24842937 -2.05675499 1.62627139 0 0 Z " fill="#D6DFE8" transform="translate(268,280)"/>
</svg>
