<?xml version="1.0" encoding="UTF-8"?>
<svg version="1.1" xmlns="http://www.w3.org/2000/svg" width="512" height="512">
<path d="M0 0 C168.96 0 337.92 0 512 0 C512 168.96 512 337.92 512 512 C343.04 512 174.08 512 0 512 C0 343.04 0 174.08 0 0 Z " fill="#3178C6" transform="translate(0,0)"/>
<path d="M0 0 C0 15.51 0 31.02 0 47 C-5.61 44.36 -11.22 41.72 -17 39 C-20.29652314 37.87406642 -23.34267533 36.87289251 -26.6875 36.0625 C-27.41904297 35.86849609 -28.15058594 35.67449219 -28.90429688 35.47460938 C-45.24632398 31.22362303 -65.54306542 30.33511234 -80.765625 38.50390625 C-85.16188879 41.4475584 -88.32430022 44.97290067 -90 50 C-90.65448629 57.72293821 -88.76414744 62.68302308 -83.8125 68.625 C-72.69743232 78.01105715 -59.12423408 83.64620508 -45.9375 89.5 C-25.64550976 98.55596142 -6.16508857 108.39750646 4.375 129 C4.70927002 129.65242676 5.04354004 130.30485352 5.38793945 130.97705078 C11.88672877 144.41647344 12.49101989 163.02956835 8.09765625 177.2109375 C1.07678271 195.05045248 -9.83223566 207.68130851 -27.5 215.75 C-58.24935585 229.05676052 -99.71103369 227.38493136 -131 217 C-136.94 214.525 -136.94 214.525 -143 212 C-143 195.5 -143 179 -143 162 C-135.53072626 166.26815642 -135.53072626 166.26815642 -132.0625 168.8125 C-113.21964622 181.48158599 -88.22086597 186.14896175 -65.86474609 182.66748047 C-57.69091767 180.7768308 -50.77463794 176.99143413 -46 170 C-43.41317337 165.21437074 -43.11032131 160.21555297 -44.546875 155.0234375 C-50.7007978 140.45141277 -67.64966379 134.80049345 -81.0234375 128.890625 C-81.96279396 128.47408661 -81.96279396 128.47408661 -82.92112732 128.0491333 C-86.06033464 126.65752361 -89.20306781 125.2778417 -92.35668945 123.91894531 C-112.02421792 115.29543912 -131.559444 103.12467175 -140.07421875 82.49609375 C-145.8324968 66.97060989 -146.01714624 48.75421059 -139.93359375 33.2890625 C-131.96422017 16.19304657 -117.15015855 4.50742313 -99.69067383 -1.87817383 C-68.14623918 -12.61769659 -31.28781899 -10.429273 0 0 Z " fill="#FDFEFE" transform="translate(460,246)"/>
<path d="M0 0 C59.07 0 118.14 0 179 0 C179 13.53 179 27.06 179 41 C157.88 41 136.76 41 115 41 C115 101.39 115 161.78 115 224 C98.17 224 81.34 224 64 224 C64 163.61 64 103.22 64 41 C42.88 41 21.76 41 0 41 C0 27.47 0 13.94 0 0 Z " fill="#FEFEFE" transform="translate(118,243)"/>
<path d="M0 0 C0.33 0 0.66 0 1 0 C1 13.2 1 26.4 1 40 C-12.2 40 -25.4 40 -39 40 C-35.77794772 38.38897386 -32.66489916 37.09649079 -29.3125 35.8125 C-15.51707063 30.0826079 -7.84569744 20.43421151 -2 7 C-1.17531121 4.65945467 -0.55058312 2.42256574 0 0 Z " fill="#000000" transform="translate(511,472)"/>
<path d="M0 0 C1.61102614 3.22205228 2.90350921 6.33510084 4.1875 9.6875 C9.9173921 23.48292937 19.56578849 31.15430256 33 37 C35.34054533 37.82468879 37.57743426 38.44941688 40 39 C40 39.33 40 39.66 40 40 C26.8 40 13.6 40 0 40 C0 26.8 0 13.6 0 0 Z " fill="#000000" transform="translate(0,472)"/>
<path d="M0 0 C13.2 0 26.4 0 40 0 C40 13.2 40 26.4 40 40 C38.38897386 36.77794772 37.09649079 33.66489916 35.8125 30.3125 C30.66249766 17.93442421 21.93798281 9.20998854 9.6328125 4 C6.4474446 2.79012733 3.30899315 1.80886499 0 1 C0 0.67 0 0.34 0 0 Z " fill="#000000" transform="translate(472,0)"/>
<path d="M0 0 C13.2 0 26.4 0 40 0 C36.77794772 1.61102614 33.66489916 2.90350921 30.3125 4.1875 C17.93442421 9.33750234 9.20998854 18.06201719 4 30.3671875 C2.79012733 33.5525554 1.80886499 36.69100685 1 40 C0.67 40 0.34 40 0 40 C0 26.8 0 13.6 0 0 Z " fill="#000000" transform="translate(0,0)"/>
</svg>
