<?xml version="1.0" encoding="UTF-8"?>
<svg version="1.1" xmlns="http://www.w3.org/2000/svg" width="141" height="180">
<path d="M0 0 C46.53 0 93.06 0 141 0 C141 59.4 141 118.8 141 180 C94.47 180 47.94 180 0 180 C0 120.6 0 61.2 0 0 Z " fill="#F8FCFB" transform="translate(0,0)"/>
<path d="M0 0 C30.69 0 61.38 0 93 0 C93 44.55 93 89.1 93 135 C69.79478162 139.35097845 40.2037703 144.66994658 18.74609375 131.203125 C18.16988281 130.80609375 17.59367187 130.4090625 17 130 C16.13375 129.4225 15.2675 128.845 14.375 128.25 C5.68058374 120.01318459 0.41688137 109.98144188 -0.08940315 97.85940933 C-0.12280639 95.28544532 -0.12365654 92.71332422 -0.11352539 90.13916016 C-0.11367142 89.16292694 -0.11381744 88.18669373 -0.1139679 87.18087769 C-0.11327345 83.96691637 -0.10550297 80.75301364 -0.09765625 77.5390625 C-0.09579041 75.30561352 -0.09436729 73.07216413 -0.09336853 70.8387146 C-0.08955644 64.96973535 -0.07973733 59.10078097 -0.06866455 53.23181152 C-0.05662046 46.18494684 -0.05204196 39.13807382 -0.04621124 32.09120178 C-0.03652488 21.39411724 -0.01735914 10.69708724 0 0 Z " fill="#2BA977" transform="translate(0,0)"/>
<path d="M0 0 C9.57 0 19.14 0 29 0 C29 43.89 29 87.78 29 133 C-8.53191489 133 -8.53191489 133 -28 121 C-28 120.34 -28 119.68 -28 119 C-25.4453125 117.2734375 -25.4453125 117.2734375 -22.125 115.375 C-21.03445312 114.74335938 -19.94390625 114.11171875 -18.8203125 113.4609375 C-16 112 -16 112 -14 112 C-14 111.34 -14 110.68 -14 110 C-13.34 110 -12.68 110 -12 110 C-11.731875 109.45601563 -11.46375 108.91203125 -11.1875 108.3515625 C-10.33689673 106.66714418 -9.45858086 104.99660909 -8.5625 103.3359375 C-0.64048455 88.32371822 -0.86310573 72.58803232 -0.68359375 55.95703125 C-0.66297632 54.33607003 -0.64197877 52.71511361 -0.62062073 51.09416199 C-0.56589373 46.86436897 -0.51627053 42.6345315 -0.46777344 38.40466309 C-0.41719369 34.07377246 -0.36169964 29.74294496 -0.30664062 25.41210938 C-0.19966463 16.9414586 -0.09854503 8.47075305 0 0 Z " fill="#2BA876" transform="translate(112,47)"/>
<path d="M0 0 C20.79 0 41.58 0 63 0 C63 14.52 63 29.04 63 44 C56.73 44 50.46 44 44 44 C30.53970215 45.30682503 18.84926787 50.46952407 10 61 C5.61484489 67.70612236 2.42065254 75.10748591 1 83 C0.67 83 0.34 83 0 83 C0 55.61 0 28.22 0 0 Z " fill="#FCFCFC" transform="translate(0,0)"/>
<path d="M0 0 C0 15.84 0 31.68 0 48 C-18 48 -18 48 -26 44 C-32.28068611 36.7635573 -33.47955164 29.68899494 -33.31640625 20.2265625 C-32.71640922 14.1080743 -30.49951629 9.81520393 -26.625 5.125 C-17.80284921 -2.01674112 -11.35384127 -0.94615344 0 0 Z " fill="#FAFCFC" transform="translate(64,68)"/>
<path d="M0 0 C9.57 0 19.14 0 29 0 C29 9.9 29 19.8 29 30 C19.43 30 9.86 30 0 30 C0 20.1 0 10.2 0 0 Z " fill="#2BA877" transform="translate(109,0)"/>
<path d="M0 0 C0.33 0 0.66 0 1 0 C1 13.2 1 26.4 1 40 C-8.9 40 -18.8 40 -29 40 C-26.34100612 37.34100612 -24.47569785 36.06058781 -21.25 34.3125 C-10.91797699 28.15533513 -5.42991241 18.711236 -2.21875 7.19921875 C-1.77233532 5.14111579 -1.37976355 3.07143754 -1 1 C-0.67 0.67 -0.34 0.34 0 0 Z " fill="#F5FBFA" transform="translate(140,140)"/>
<path d="M0 0 C0.66 0 1.32 0 2 0 C2 44.55 2 89.1 2 135 C-3.94 135.99 -3.94 135.99 -10 137 C-9.67 136.01 -9.34 135.02 -9 134 C-6.03 133.67 -3.06 133.34 0 133 C0 89.11 0 45.22 0 0 Z " fill="#4B9E7F" transform="translate(91,0)"/>
<path d="M0 0 C3.37135305 4.4951374 3.40020041 6.95516436 3.29296875 12.265625 C3.28872391 13.05902283 3.28447906 13.85242065 3.28010559 14.66986084 C3.2633504 17.1969232 3.22570506 19.72317983 3.1875 22.25 C3.17244903 23.96613429 3.15876134 25.68228112 3.14648438 27.3984375 C3.11345735 31.59926746 3.06169765 35.79949725 3 40 C2.01 40 1.02 40 0 40 C0 26.8 0 13.6 0 0 Z " fill="#31A073" transform="translate(65,72)"/>
<path d="M0 0 C0.66 0 1.32 0 2 0 C2 14.52 2 29.04 2 44 C-2.95 43.67 -7.9 43.34 -13 43 C-13 42.67 -13 42.34 -13 42 C-9.7 42 -6.4 42 -3 42 C-2.67 41.34 -2.34 40.68 -2 40 C-1.67 40 -1.34 40 -1 40 C-0.67 26.8 -0.34 13.6 0 0 Z " fill="#EAFDFA" transform="translate(61,0)"/>
<path d="M0 0 C0.33 0 0.66 0 1 0 C1 15.18 1 30.36 1 46 C-6.59 46 -14.18 46 -22 46 C-25.465 46.495 -25.465 46.495 -29 47 C-29.66 46.34 -30.32 45.68 -31 45 C-20.95788105 42.90555433 -10.07335832 41.48166042 0 44 C0 29.48 0 14.96 0 0 Z " fill="#67AF92" transform="translate(63,0)"/>
<path d="M0 0 C0.33 0 0.66 0 1 0 C1.02505615 0.77714355 1.0501123 1.55428711 1.07592773 2.35498047 C1.19166796 5.86183069 1.31449352 9.36839745 1.4375 12.875 C1.47681641 14.09832031 1.51613281 15.32164063 1.55664062 16.58203125 C1.59853516 17.74863281 1.64042969 18.91523438 1.68359375 20.1171875 C1.72025146 21.19597168 1.75690918 22.27475586 1.79467773 23.38623047 C1.83376643 25.98069536 1.83376643 25.98069536 3 28 C11.25 28.33 19.5 28.66 28 29 C28 19.43 28 9.86 28 0 C28.33 0 28.66 0 29 0 C29 9.9 29 19.8 29 30 C19.43 30 9.86 30 0 30 C0 20.1 0 10.2 0 0 Z " fill="#409875" transform="translate(109,0)"/>
<path d="M0 0 C3.96 0.33 7.92 0.66 12 1 C12 16.84 12 32.68 12 49 C6.06 49 0.12 49 -6 49 C-6.66 48.34 -7.32 47.68 -8 47 C-5 46 -5 46 -2 47 C2.29 47.33 6.58 47.66 11 48 C11 32.82 11 17.64 11 2 C8.69 2.33 6.38 2.66 4 3 C4 2.34 4 1.68 4 1 C2.68 0.67 1.36 0.34 0 0 Z " fill="#E3FAF2" transform="translate(52,67)"/>
<path d="M0 0 C0.33 0 0.66 0 1 0 C1.63297139 10.03962961 1.63297139 10.03962961 -0.8125 13.75 C-1.8953125 14.86375 -1.8953125 14.86375 -3 16 C-4.00484883 18.33124929 -5.00522247 20.66443537 -6 23 C-7.6875 24.9375 -7.6875 24.9375 -9 26 C-9 22.25423546 -7.78164649 20.22792568 -6.125 16.875 C-3.59321416 11.54931401 -2.05907384 6.77676638 -1 1 C-0.67 0.67 -0.34 0.34 0 0 Z " fill="#D9F7EF" transform="translate(140,140)"/>
<path d="M0 0 C0.33 0.66 0.66 1.32 1 2 C2.99484287 2.68194309 4.99650529 3.34391052 7 4 C10.32792375 5.4658882 13.59932499 7.04636144 16.875 8.625 C17.75414063 9.04523438 18.63328125 9.46546875 19.5390625 9.8984375 C21.69422878 10.9291692 23.84779922 11.96309426 26 13 C26 13.33 26 13.66 26 14 C22.625 14.125 22.625 14.125 19 14 C18.34 13.34 17.68 12.68 17 12 C16.319375 11.835 15.63875 11.67 14.9375 11.5 C14.298125 11.335 13.65875 11.17 13 11 C12.67 10.34 12.34 9.68 12 9 C8.00855246 7.08103484 4.40219569 5.66699935 0 5 C0 3.35 0 1.7 0 0 Z " fill="#D5FBF1" transform="translate(83,166)"/>
<path d="M0 0 C0.33 0 0.66 0 1 0 C1.18175781 0.78503906 1.36351563 1.57007812 1.55078125 2.37890625 C2.94218388 8.19425571 4.42275046 13.60004859 7 19 C4.69 19.33 2.38 19.66 0 20 C0 13.4 0 6.8 0 0 Z " fill="#E3F8F0" transform="translate(0,100)"/>
<path d="M0 0 C0.66 0.99 1.32 1.98 2 3 C1.34 3 0.68 3 0 3 C0 3.66 0 4.32 0 5 C0.66 5.33 1.32 5.66 2 6 C1.01 7.32 0.02 8.64 -1 10 C-6.75 8.125 -6.75 8.125 -9 7 C-9 6.34 -9 5.68 -9 5 C-6.03 3.35 -3.06 1.7 0 0 Z " fill="#3AA47C" transform="translate(93,161)"/>
<path d="M0 0 C-4.66611642 4.05339406 -7.89675209 4.37705846 -13.9921875 3.99609375 C-15.41917969 3.87427734 -15.41917969 3.87427734 -16.875 3.75 C-17.84953125 3.68425781 -18.8240625 3.61851562 -19.828125 3.55078125 C-22.22084619 3.38657489 -24.61026528 3.20248751 -27 3 C-27 2.67 -27 2.34 -27 2 C-23.06390652 1.46814367 -19.12597366 0.9514091 -15.1875 0.4375 C-14.06794922 0.28603516 -12.94839844 0.13457031 -11.79492188 -0.02148438 C-10.72177734 -0.16005859 -9.64863281 -0.29863281 -8.54296875 -0.44140625 C-7.55321045 -0.57232666 -6.56345215 -0.70324707 -5.54370117 -0.83813477 C-3 -1 -3 -1 0 0 Z " fill="#CEF2E5" transform="translate(93,136)"/>
<path d="M0 0 C0.33 0 0.66 0 1 0 C1.23576736 7.62314474 0.83717315 14.58569409 -1 22 C-1.33 22 -1.66 22 -2 22 C-2.05790353 18.70840684 -2.09356261 15.41694397 -2.125 12.125 C-2.14175781 11.18785156 -2.15851563 10.25070313 -2.17578125 9.28515625 C-2.18544922 7.94130859 -2.18544922 7.94130859 -2.1953125 6.5703125 C-2.20578613 5.74289551 -2.21625977 4.91547852 -2.22705078 4.06298828 C-2 2 -2 2 0 0 Z " fill="#E2FBF4" transform="translate(110,119)"/>
<path d="M0 0 C0.33 0 0.66 0 1 0 C1.33 4.95 1.66 9.9 2 15 C2.99 15 3.98 15 5 15 C5.38922918 16.28745036 5.76098036 17.58019597 6.125 18.875 C6.33382812 19.59429687 6.54265625 20.31359375 6.7578125 21.0546875 C6.83773437 21.69664063 6.91765625 22.33859375 7 23 C6.34 23.66 5.68 24.32 5 25 C4.3490741 23.75264433 3.70448331 22.50198168 3.0625 21.25 C2.70285156 20.55390625 2.34320313 19.8578125 1.97265625 19.140625 C-0.00997838 14.77723634 -0.1103732 11.03731971 -0.0625 6.25 C-0.05347656 5.07953125 -0.04445313 3.9090625 -0.03515625 2.703125 C-0.02355469 1.81109375 -0.01195313 0.9190625 0 0 Z " fill="#CFF8EB" transform="translate(31,85)"/>
<path d="M0 0 C0.33 0 0.66 0 1 0 C1.25532751 3.06393013 1.21861333 4.63233212 -0.375 7.3125 C-1.179375 8.1478125 -1.179375 8.1478125 -2 9 C-2.66 9 -3.32 9 -4 9 C-4.33 10.65 -4.66 12.3 -5 14 C-5.99 14.33 -6.98 14.66 -8 15 C-6.53025751 9.26800429 -3.55513098 4.66416601 0 0 Z " fill="#42A17C" transform="translate(11,59)"/>
<path d="M0 0 C2.0374763 0.22858114 4.08040303 0.41024278 6.125 0.5625 C7.76855469 0.68818359 7.76855469 0.68818359 9.4453125 0.81640625 C10.28835937 0.87699219 11.13140625 0.93757813 12 1 C12 1.33 12 1.66 12 2 C10.78763672 2.19916016 10.78763672 2.19916016 9.55078125 2.40234375 C8.48214844 2.57894531 7.41351563 2.75554688 6.3125 2.9375 C5.25675781 3.11152344 4.20101562 3.28554688 3.11328125 3.46484375 C0.39750396 3.93167121 -2.30124235 4.44422616 -5 5 C-5.33 4.34 -5.66 3.68 -6 3 C-5.34 3 -4.68 3 -4 3 C-4 2.34 -4 1.68 -4 1 C-4.66 0.67 -5.32 0.34 -6 0 C-2.25 -1.125 -2.25 -1.125 0 0 Z " fill="#DFF8F1" transform="translate(32,42)"/>
<path d="M0 0 C0 0.99 0 1.98 0 3 C-1.86328125 4.7890625 -1.86328125 4.7890625 -4.3125 6.625 C-5.11300781 7.23601562 -5.91351563 7.84703125 -6.73828125 8.4765625 C-9 10 -9 10 -12 11 C-11.3125 9.125 -11.3125 9.125 -10 7 C-8.33333333 6.33333333 -6.66666667 5.66666667 -5 5 C-3.86649466 2.98330173 -3.86649466 2.98330173 -3 1 C-2.01 0.67 -1.02 0.34 0 0 Z " fill="#399473" transform="translate(127,166)"/>
<path d="M0 0 C2.33333333 4.66666667 4.66666667 9.33333333 7 14 C5.171875 13.81640625 5.171875 13.81640625 3 13 C1.515625 10.71484375 1.515625 10.71484375 0.25 7.9375 C-0.39195313 6.55884766 -0.39195313 6.55884766 -1.046875 5.15234375 C-1.36140625 4.44207031 -1.6759375 3.73179688 -2 3 C-1.34 2.01 -0.68 1.02 0 0 Z " fill="#42A27E" transform="translate(31,98)"/>
<path d="M0 0 C-0.33 0.66 -0.66 1.32 -1 2 C-2.65 2 -4.3 2 -6 2 C-6.33 2.99 -6.66 3.98 -7 5 C-9.31 5.33 -11.62 5.66 -14 6 C-10.33829808 1.75242578 -5.68114185 -1.89371395 0 0 Z " fill="#4A9F7C" transform="translate(33,47)"/>
<path d="M0 0 C0.33 0 0.66 0 1 0 C1.33 5.61 1.66 11.22 2 17 C-0.87579981 12.68630028 -2 9.19265239 -2 4 C-1.34 4 -0.68 4 0 4 C0 2.68 0 1.36 0 0 Z " fill="#47A17B" transform="translate(3,98)"/>
<path d="M0 0 C-1.2065625 0.9590625 -1.2065625 0.9590625 -2.4375 1.9375 C-4.2750504 3.40603502 -4.2750504 3.40603502 -6 5 C-7.66617115 5.04063832 -9.33388095 5.042721 -11 5 C-11 5.66 -11 6.32 -11 7 C-11.66 6.67 -12.32 6.34 -13 6 C-5.71812081 -1.90604027 -5.71812081 -1.90604027 0 0 Z " fill="#DAF6EE" transform="translate(49,69)"/>
<path d="M0 0 C0.33 0 0.66 0 1 0 C1.375 2.1875 1.375 2.1875 1 5 C-2.04296817 7.9738098 -5.0701312 10.3373632 -9 12 C-8.67 11.01 -8.34 10.02 -8 9 C-7.34 9 -6.68 9 -6 9 C-6 8.34 -6 7.68 -6 7 C-5.34 7 -4.68 7 -4 7 C-3.71125 6.401875 -3.4225 5.80375 -3.125 5.1875 C-2 3 -2 3 0 0 Z " fill="#4AA27E" transform="translate(104,150)"/>
<path d="M0 0 C0.66 0 1.32 0 2 0 C0.7580393 3.43927579 -0.55740284 6.25207819 -3 9 C-3.66 9 -4.32 9 -5 9 C-5 9.66 -5 10.32 -5 11 C-5.66 11 -6.32 11 -7 11 C-6.4409112 7.75728494 -5.5867822 6.06942576 -3 4 C-2.34 4 -1.68 4 -1 4 C-0.67 2.68 -0.34 1.36 0 0 Z " fill="#DDF9EF" transform="translate(103,148)"/>
<path d="M0 0 C1.32 0 2.64 0 4 0 C4 0.66 4 1.32 4 2 C5.98 2 7.96 2 10 2 C10.66 3.65 11.32 5.3 12 7 C7.39104317 5.68315519 3.85859765 3.84801255 0 1 C0 0.67 0 0.34 0 0 Z " fill="#459D7A" transform="translate(16,128)"/>
<path d="M0 0 C0.66 0 1.32 0 2 0 C1.35550393 3.01217112 0.34977818 5.51655836 -1.0625 8.25 C-1.42472656 8.95640625 -1.78695312 9.6628125 -2.16015625 10.390625 C-2.43730469 10.92171875 -2.71445312 11.4528125 -3 12 C-3.33 12 -3.66 12 -4 12 C-4 10.02 -4 8.04 -4 6 C-3.34 6 -2.68 6 -2 6 C-2.33 5.01 -2.66 4.02 -3 3 C-2.34 3 -1.68 3 -1 3 C-0.67 2.01 -0.34 1.02 0 0 Z " fill="#349772" transform="translate(35,72)"/>
<path d="M0 0 C1.32 0.66 2.64 1.32 4 2 C1.69 4.64 -0.62 7.28 -3 10 C-4 6 -4 6 -2.0625 2.75 C-1.381875 1.8425 -0.70125 0.935 0 0 Z " fill="#DDF8F0" transform="translate(12,53)"/>
<path d="M0 0 C0.33 0.66 0.66 1.32 1 2 C2.99117408 2.69258229 4.9921136 3.35747635 7 4 C7.99 4.66 8.98 5.32 10 6 C9.67 6.66 9.34 7.32 9 8 C6.03 7.01 3.06 6.02 0 5 C0 3.35 0 1.7 0 0 Z " fill="#E0F4ED" transform="translate(83,166)"/>
<path d="M0 0 C2 3.75 2 3.75 2 6 C-2.95 5.67 -7.9 5.34 -13 5 C-13 4.67 -13 4.34 -13 4 C-9.7 4 -6.4 4 -3 4 C-2.67 3.34 -2.34 2.68 -2 2 C-1.34 1.34 -0.68 0.68 0 0 Z " fill="#E2FDF3" transform="translate(61,38)"/>
<path d="M0 0 C0.67095703 0.58007812 0.67095703 0.58007812 1.35546875 1.171875 C4.8521026 4.18390075 8.37407463 7.14321031 12 10 C11.01 10.33 10.02 10.66 9 11 C6.9921875 9.70703125 6.9921875 9.70703125 4.875 7.8125 C4.17117187 7.20019531 3.46734375 6.58789062 2.7421875 5.95703125 C0.92097282 3.91122731 0.39130761 2.67393535 0 0 Z " fill="#CBF2E3" transform="translate(10,123)"/>
<path d="M0 0 C0.76570313 0.23009766 0.76570313 0.23009766 1.546875 0.46484375 C4.7749338 1.16905403 7.95418001 1.34888204 11.25 1.5625 C12.51328125 1.64628906 13.7765625 1.73007813 15.078125 1.81640625 C16.04234375 1.87699219 17.0065625 1.93757813 18 2 C18 2.33 18 2.66 18 3 C12.06 3 6.12 3 0 3 C0 2.01 0 1.02 0 0 Z " fill="#5FB28F" transform="translate(42,114)"/>
<path d="M0 0 C0.33 0 0.66 0 1 0 C1.29162929 4.95769796 1.12940055 8.02806853 -2 12 C-2.66 12 -3.32 12 -4 12 C-2.66666667 8 -1.33333333 4 0 0 Z " fill="#5BA285" transform="translate(109,138)"/>
<path d="M0 0 C-0.33 0.66 -0.66 1.32 -1 2 C-3.06640625 2.4140625 -3.06640625 2.4140625 -5.5625 2.625 C-6.38878906 2.69976562 -7.21507813 2.77453125 -8.06640625 2.8515625 C-9.02353516 2.92503906 -9.02353516 2.92503906 -10 3 C-9.67 2.01 -9.34 1.02 -9 0 C-2.25 -1.125 -2.25 -1.125 0 0 Z " fill="#389974" transform="translate(91,134)"/>
<path d="M0 0 C3 1 3 1 5 3 C4.67 3.99 4.34 4.98 4 6 C2.02 5.34 0.04 4.68 -2 4 C-1.34 2.68 -0.68 1.36 0 0 Z " fill="#46A77F" transform="translate(98,170)"/>
<path d="M0 0 C0.33 0 0.66 0 1 0 C1.33 3.3 1.66 6.6 2 10 C1.01 10 0.02 10 -1 10 C-1.125 3.375 -1.125 3.375 0 0 Z " fill="#4BA782" transform="translate(2,75)"/>
<path d="M0 0 C0 1.32 0 2.64 0 4 C-1.98 4 -3.96 4 -6 4 C-5.67 3.01 -5.34 2.02 -5 1 C-3 0 -3 0 0 0 Z " fill="#1CAE78" transform="translate(122,167)"/>
<path d="M0 0 C1.32 0 2.64 0 4 0 C4.625 1.875 4.625 1.875 5 4 C4.34 4.66 3.68 5.32 3 6 C1.5 4.6875 1.5 4.6875 0 3 C0 2.01 0 1.02 0 0 Z " fill="#F3F7F4" transform="translate(1,64)"/>
<path d="M0 0 C-2.97 1.65 -5.94 3.3 -9 5 C-8 1 -8 1 -6.1875 -0.3125 C-4 -1 -4 -1 0 0 Z " fill="#D9FCEE" transform="translate(25,49)"/>
<path d="M0 0 C3.3 0.33 6.6 0.66 10 1 C10 1.33 10 1.66 10 2 C7.03 2.66 4.06 3.32 1 4 C0.67 2.68 0.34 1.36 0 0 Z " fill="#45A380" transform="translate(42,66)"/>
<path d="M0 0 C1.9375 0.125 1.9375 0.125 4 1 C5.75 3.0625 5.75 3.0625 7 5 C4.03 4.01 1.06 3.02 -2 2 C-1.34 1.34 -0.68 0.68 0 0 Z " fill="#43A27E" transform="translate(104,175)"/>
<path d="M0 0 C0 0.99 0 1.98 0 3 C-2 4.6875 -2 4.6875 -4 6 C-4 4.68 -4 3.36 -4 2 C-2.68 1.34 -1.36 0.68 0 0 Z " fill="#3F9A79" transform="translate(127,166)"/>
<path d="M0 0 C0.33 0 0.66 0 1 0 C1 1.65 1 3.3 1 5 C-0.65 5.33 -2.3 5.66 -4 6 C-2.69593116 3.98079663 -1.36176581 1.98075027 0 0 Z " fill="#4C9E80" transform="translate(11,59)"/>
</svg>
