<?xml version="1.0" encoding="UTF-8"?>
<svg version="1.1" xmlns="http://www.w3.org/2000/svg" width="233" height="216">
<path d="M0 0 C2.73629484 1.35700344 5.35195382 2.83660828 7.97875977 4.39477539 C8.94201172 4.94351318 9.90526367 5.49225098 10.89770508 6.05761719 C13.75046313 7.69002874 16.58499727 9.3504256 19.41625977 11.01977539 C20.84689235 11.85242034 22.27784675 12.68451277 23.70922852 13.51586914 C26.40201886 15.08748911 29.08500842 16.67462189 31.76391602 18.26977539 C37.51020661 21.6821527 43.31050617 25.00051126 49.10375977 28.33227539 C52.43980297 30.25707537 55.77493878 32.18343567 59.10961914 34.1105957 C61.29977125 35.37514012 63.49116325 36.63753971 65.68383789 37.89770508 C68.74533149 39.65933092 71.80024814 41.43185937 74.85375977 43.20727539 C76.23857544 43.99968628 76.23857544 43.99968628 77.65136719 44.80810547 C78.92524292 45.55290161 78.92524292 45.55290161 80.22485352 46.31274414 C81.33558228 46.95505981 81.33558228 46.95505981 82.46875 47.61035156 C86.0053722 50.16982504 87.57012644 52.79916212 88.41625977 57.01977539 C88.50711726 58.4172964 88.55090426 59.81838218 88.55670166 61.21884155 C88.5624118 62.0486705 88.56812195 62.87849945 88.57400513 63.73347473 C88.57568192 65.08634834 88.57568192 65.08634834 88.57739258 66.46655273 C88.58235748 67.42310257 88.58732239 68.3796524 88.59243774 69.3651886 C88.60703958 72.52870402 88.61385765 75.69216931 88.61938477 78.85571289 C88.62513728 81.05522666 88.63089501 83.25474041 88.63665771 85.45425415 C88.64716168 90.06594069 88.65300849 94.67760982 88.65649414 99.28930664 C88.66198144 105.19638669 88.68601722 111.10323655 88.71446609 117.01024437 C88.73309469 121.55358553 88.73829817 126.09687122 88.73983002 130.64024734 C88.74285592 132.81793096 88.75088232 134.99561362 88.7640152 137.17325974 C88.78108207 140.22042093 88.77919387 143.2670193 88.77270508 146.31420898 C88.78652725 147.6610099 88.78652725 147.6610099 88.80062866 149.03501892 C88.76673133 154.12020132 88.22856062 157.60620729 85.41625977 162.01977539 C83.62695312 163.63916016 83.62695312 163.63916016 81.56860352 164.89868164 C80.76922363 165.39513184 79.96984375 165.89158203 79.14624023 166.40307617 C78.24534668 166.93658691 77.34445313 167.47009766 76.41625977 168.01977539 C74.91603271 168.92252197 74.91603271 168.92252197 73.38549805 169.84350586 C69.92910326 171.90354393 66.45663992 173.93384297 62.97875977 175.95727539 C61.69611839 176.70606451 60.41356787 177.45500929 59.13110352 178.20410156 C46.58766191 185.5246757 34.01121136 192.78822424 21.41625977 200.01977539 C20.39306641 200.60758789 19.36987305 201.19540039 18.31567383 201.80102539 C15.39184349 203.47981551 12.46687104 205.15659115 9.54125977 206.83227539 C8.67307617 207.33025635 7.80489258 207.8282373 6.91040039 208.34130859 C6.11053711 208.79852295 5.31067383 209.2557373 4.48657227 209.72680664 C3.79321777 210.12359619 3.09986328 210.52038574 2.38549805 210.92919922 C-2.28100123 213.51353498 -5.0837264 214.54028143 -10.58374023 214.01977539 C-13.2382838 212.91832921 -15.54456686 211.80405786 -18.02124023 210.39477539 C-18.74512939 209.99726074 -19.46901855 209.59974609 -20.21484375 209.19018555 C-28.62491655 204.52973163 -36.90963615 199.63992374 -45.19702148 194.76586914 C-50.5881387 191.5966262 -55.99993215 188.46498163 -61.42163086 185.34838867 C-64.68122526 183.47310509 -67.93538297 181.58863947 -71.18920898 179.70336914 C-75.44288739 177.24201106 -79.71706595 174.82295424 -84.00952148 172.42993164 C-86.01357522 171.29347294 -88.0174881 170.15676579 -90.02124023 169.01977539 C-90.94501465 168.51631592 -91.86878906 168.01285645 -92.82055664 167.49414062 C-93.66924316 167.0076001 -94.51792969 166.52105957 -95.39233398 166.01977539 C-96.13281982 165.60727539 -96.87330566 165.19477539 -97.63623047 164.76977539 C-100.89300908 161.84328811 -102.32160753 158.09703828 -102.86142254 153.81929016 C-102.9723972 151.29111952 -102.98919905 148.77885387 -102.97192383 146.24829102 C-102.97980927 144.81521858 -102.97980927 144.81521858 -102.987854 143.35319519 C-103.00100457 140.21063652 -102.99233329 137.06858877 -102.98217773 133.92602539 C-102.98419988 131.733194 -102.9871125 129.54036327 -102.99087524 127.34753418 C-102.99529191 122.75790995 -102.98888858 118.16846121 -102.97485352 113.57885742 C-102.9577622 107.70442994 -102.96760688 101.83041369 -102.98557091 95.95600128 C-102.99642641 91.42975787 -102.99295426 86.90361149 -102.98518753 82.37736511 C-102.98319042 80.21168468 -102.98562758 78.04599536 -102.99262619 75.88032532 C-103.00026959 72.85040039 -102.98859563 69.8211357 -102.97192383 66.79125977 C-102.97799652 65.9017009 -102.98406921 65.01214203 -102.99032593 64.09562683 C-102.93502202 58.65309637 -102.14437691 54.84890017 -99.58374023 50.01977539 C-97.75268555 48.26538086 -97.75268555 48.26538086 -95.66186523 47.01196289 C-94.86458008 46.52566406 -94.06729492 46.03936523 -93.24584961 45.53833008 C-92.36735352 45.03720703 -91.48885742 44.53608398 -90.58374023 44.01977539 C-89.16544922 43.20234863 -89.16544922 43.20234863 -87.71850586 42.3684082 C-84.60369309 40.60187301 -81.47154122 38.87011557 -78.33374023 37.14477539 C-70.79429321 32.96386865 -63.35592922 28.72477843 -56.06030273 24.13305664 C-50.26364855 20.55067448 -44.27324659 17.2836342 -38.32275391 13.96606445 C-33.71091105 11.38762675 -29.14204311 8.78215532 -24.67358398 5.96118164 C-23.92431641 5.49437988 -23.17504883 5.02757812 -22.40307617 4.54663086 C-21.03637533 3.68798212 -19.68028644 2.81206198 -18.33862305 1.91479492 C-12.42441557 -1.77192354 -6.59547442 -2.50220446 0 0 Z " fill="#8BC402" transform="translate(123.583740234375,1.980224609375)"/>
<path d="M0 0 C9 3 9 3 11 5 C11.25396729 6.97338867 11.25396729 6.97338867 11.25878906 9.41796875 C11.26509338 10.33231689 11.27139771 11.24666504 11.27789307 12.1887207 C11.2738446 13.17831787 11.26979614 14.16791504 11.265625 15.1875 C11.26849518 16.70766724 11.26849518 16.70766724 11.27142334 18.25854492 C11.27278591 20.40381112 11.26908447 22.54908553 11.26074219 24.69433594 C11.25004382 27.98651572 11.26063519 31.27814978 11.2734375 34.5703125 C11.27211592 36.65104288 11.26955355 38.73177291 11.265625 40.8125 C11.26967346 41.80209717 11.27372192 42.79169434 11.27789307 43.8112793 C11.27158875 44.72562744 11.26528442 45.63997559 11.25878906 46.58203125 C11.25719788 47.38874268 11.25560669 48.1954541 11.25396729 49.02661133 C11 51 11 51 9 53 C7.31862304 53.72529987 5.63522433 54.44664892 3.9375 55.1328125 C1.94080335 56.02649527 0.16601708 57.09155183 -1.6875 58.25 C-5 60 -5 60 -6.99121094 59.72485352 C-10.28887714 58.53492025 -13.23930059 56.70903959 -16.25 54.9375 C-17.22453125 54.37192383 -17.22453125 54.37192383 -18.21875 53.79492188 C-19.81505091 52.86765885 -21.40787529 51.93441544 -23 51 C-24.63708323 33.04245622 -24.63708323 33.04245622 -20.94921875 28.44140625 C-18.33285627 26.94911061 -15.84913543 25.96080334 -13 25 C-12.13117188 24.45988281 -11.26234375 23.91976562 -10.3671875 23.36328125 C-7.19822695 21.53825282 -5.45763288 22.07796457 -2 23 C-1.34 23.33 -0.68 23.66 0 24 C0 16.08 0 8.16 0 0 Z " fill="#65685E" transform="translate(145,73)"/>
<path d="M0 0 C4.1701275 0.48466373 7.63512948 2.92020887 11.1875 5 C12.14946289 5.55300781 12.14946289 5.55300781 13.13085938 6.1171875 C17.84527726 8.84527726 17.84527726 8.84527726 19 10 C20.12552271 16.0907103 20.65221022 22.98907668 19 29 C15.86148423 33.31242541 10.84493785 35.14267916 6 37 C5.19433594 37.47953125 4.38867188 37.9590625 3.55859375 38.453125 C-0.03292612 39.2207781 -1.68674375 37.91314368 -4.72265625 36.02539062 C-5.39167969 35.58388672 -6.06070313 35.14238281 -6.75 34.6875 C-7.77673828 34.04264648 -7.77673828 34.04264648 -8.82421875 33.38476562 C-13.70002948 30.29997052 -13.70002948 30.29997052 -15 29 C-15.08669432 27.5112814 -15.10703494 26.018555 -15.09765625 24.52734375 C-15.09443359 23.62822266 -15.09121094 22.72910156 -15.08789062 21.80273438 C-15.07951172 20.85720703 -15.07113281 19.91167969 -15.0625 18.9375 C-15.05798828 17.98810547 -15.05347656 17.03871094 -15.04882812 16.06054688 C-15.0370011 13.70696935 -15.02052025 11.35351523 -15 9 C-13.50146484 8.15115234 -13.50146484 8.15115234 -11.97265625 7.28515625 C-10.66922254 6.5443558 -9.36583975 5.80346575 -8.0625 5.0625 C-7.40314453 4.68931641 -6.74378906 4.31613281 -6.06445312 3.93164062 C-2.84167167 2.23037187 -2.84167167 2.23037187 0 0 Z " fill="#F9FDF0" transform="translate(92,94)"/>
<path d="M0 0 C2.1137365 1.34935039 4.20212241 2.74014868 6.25 4.1875 C7.57 4.8475 8.89 5.5075 10.25 6.1875 C10.25 14.4375 10.25 22.6875 10.25 31.1875 C5.10191212 30.15788242 2.62079462 28.84425751 -1.75 26.1875 C-1.75 21.5675 -1.75 16.9475 -1.75 12.1875 C-7.03199593 10.98761955 -7.03199593 10.98761955 -11.75 13.1875 C-12.03260768 16.40841037 -12.03260768 16.40841037 -11.9375 20.0625 C-12.24145024 26.65484291 -12.24145024 26.65484291 -14.48046875 29 C-17.71717905 30.60361603 -20.12885558 31.1875 -23.75 31.1875 C-23.75 22.9375 -23.75 14.6875 -23.75 6.1875 C-8.11129393 -4.64984894 -8.11129393 -4.64984894 0 0 Z " fill="#66695D" transform="translate(55.75,96.8125)"/>
<path d="M0 0 C0 0.66 0 1.32 0 2 C1.2065625 2.309375 1.2065625 2.309375 2.4375 2.625 C7.13427428 4.43779007 11.23374951 6.62723837 15 10 C16.1875 13 16.1875 13 15 16 C7.19178082 22 7.19178082 22 4 22 C4 20.02 4 18.04 4 16 C2.56359829 15.80426392 1.12580496 15.61872184 -0.3125 15.4375 C-1.11300781 15.33308594 -1.91351563 15.22867188 -2.73828125 15.12109375 C-5.16817116 14.85244822 -5.16817116 14.85244822 -8 16 C-8.11664855 18.91621364 -8.16200951 20.38809574 -7 23 C-2.53068238 26.65296625 2.64211534 28.94742908 8 31 C8 31.99 8 32.98 8 34 C6.77779263 34.67934107 5.54681549 35.34291523 4.3125 36 C3.62800781 36.37125 2.94351563 36.7425 2.23828125 37.125 C-0.50319052 38.19670973 -2.06972697 38.40997929 -5 38 C-7.37837485 36.76290692 -9.52434864 35.52542814 -11.75 34.0625 C-12.33910156 33.68931641 -12.92820313 33.31613281 -13.53515625 32.93164062 C-17.76971726 30.23028274 -17.76971726 30.23028274 -19 29 C-19.95845346 22.41040428 -21.28293332 13.11670027 -17.203125 7.546875 C-14.85783244 6.05155424 -12.58626636 5.0116492 -10 4 C-8.87522464 3.2378973 -7.76738149 2.44948536 -6.6875 1.625 C-4 0 -4 0 0 0 Z " fill="#65685C" transform="translate(186,94)"/>
<path d="M0 0 C9 3 9 3 11 5 C11.25396729 6.97338867 11.25396729 6.97338867 11.25878906 9.41796875 C11.26509338 10.33231689 11.27139771 11.24666504 11.27789307 12.1887207 C11.2738446 13.17831787 11.26979614 14.16791504 11.265625 15.1875 C11.26849518 16.70766724 11.26849518 16.70766724 11.27142334 18.25854492 C11.27278591 20.40381112 11.26908447 22.54908553 11.26074219 24.69433594 C11.25004382 27.98651572 11.26063519 31.27814978 11.2734375 34.5703125 C11.27211592 36.65104288 11.26955355 38.73177291 11.265625 40.8125 C11.26967346 41.80209717 11.27372192 42.79169434 11.27789307 43.8112793 C11.27158875 44.72562744 11.26528442 45.63997559 11.25878906 46.58203125 C11.25719788 47.38874268 11.25560669 48.1954541 11.25396729 49.02661133 C11 51 11 51 9 53 C7.31862304 53.72529987 5.63522433 54.44664892 3.9375 55.1328125 C1.94080335 56.02649527 0.16601708 57.09155183 -1.6875 58.25 C-5 60 -5 60 -6.99121094 59.72485352 C-10.28914921 58.53482207 -13.23910279 56.70875983 -16.25 54.9375 C-18.4775 53.638125 -20.705 52.33875 -23 51 C-23 44.4 -23 37.8 -23 31 C-22.01 30.67 -21.02 30.34 -20 30 C-20 30.66 -20 31.32 -20 32 C-20.66 32 -21.32 32 -22 32 C-22 37.94 -22 43.88 -22 50 C-20.02 49.505 -20.02 49.505 -18 49 C-17.01 49 -16.02 49 -15 49 C-13.515 48.505 -13.515 48.505 -12 48 C-12.495 46.515 -12.495 46.515 -13 45 C-13.0685495 43.10529184 -13.08480372 41.2083166 -13.0625 39.3125 C-13.05347656 38.31863281 -13.04445312 37.32476562 -13.03515625 36.30078125 C-13.02355469 35.54152344 -13.01195312 34.78226563 -13 34 C-12.01 33.505 -12.01 33.505 -11 33 C-10.01 33.33 -9.02 33.66 -8 34 C-8 33.34 -8 32.68 -8 32 C-7.01 32 -6.02 32 -5 32 C-4.566875 32.9590625 -4.566875 32.9590625 -4.125 33.9375 C-3.17176549 36.15206079 -3.17176549 36.15206079 -1 37 C-0.5859375 39.06640625 -0.5859375 39.06640625 -0.375 41.5625 C-0.30023438 42.38878906 -0.22546875 43.21507812 -0.1484375 44.06640625 C-0.07496094 45.02353516 -0.07496094 45.02353516 0 46 C1.485 46.495 1.485 46.495 3 47 C1.68 48.32 0.36 49.64 -1 51 C-0.34 51 0.32 51 1 51 C1 50.34 1 49.68 1 49 C1.99 49 2.98 49 4 49 C4 49.66 4 50.32 4 51 C6.97 50.505 6.97 50.505 10 50 C10 35.48 10 20.96 10 6 C9.34 6 8.68 6 8 6 C8 5.34 8 4.68 8 4 C6.02 4 4.04 4 2 4 C2.00785522 4.89307861 2.00785522 4.89307861 2.01586914 5.80419922 C2.03661999 8.49445547 2.04965407 11.18469489 2.0625 13.875 C2.07087891 14.81214844 2.07925781 15.74929687 2.08789062 16.71484375 C2.09272461 18.05869141 2.09272461 18.05869141 2.09765625 19.4296875 C2.10551147 20.67081299 2.10551147 20.67081299 2.11352539 21.93701172 C2 24 2 24 1 26 C-0.6254308 25.85904936 -2.25034051 25.71207913 -3.875 25.5625 C-4.77992188 25.48128906 -5.68484375 25.40007812 -6.6171875 25.31640625 C-9 25 -9 25 -11 24 C-8 22 -8 22 -4.9375 22.3125 C-2 23 -2 23 0 24 C0 16.08 0 8.16 0 0 Z " fill="#656D55" transform="translate(145,73)"/>
<path d="M0 0 C0.33 0.66 0.66 1.32 1 2 C-0.0725 1.835 -1.145 1.67 -2.25 1.5 C-6.03028752 0.91189085 -6.03028752 0.91189085 -10 1 C-10 2.98 -10 4.96 -10 7 C-10.763125 6.95875 -11.52625 6.9175 -12.3125 6.875 C-15.22718416 6.77919176 -15.22718416 6.77919176 -18 9 C-18.34226981 12.58716541 -18.31195693 16.11254902 -18.30078125 19.71484375 C-19 23 -19 23 -21.91796875 25.00390625 C-25 26 -25 26 -27 25 C-23.25 22 -23.25 22 -21 22 C-21.05800781 20.95199219 -21.11601563 19.90398437 -21.17578125 18.82421875 C-21.22268131 17.445357 -21.26818122 16.06644713 -21.3125 14.6875 C-21.35439453 13.99720703 -21.39628906 13.30691406 -21.43945312 12.59570312 C-21.48828125 10.57421875 -21.48828125 10.57421875 -21 7 C-18.5884676 5.00546994 -17.1524256 4 -14 4 C-14 3.01 -14 2.02 -14 1 C-12.5 -0.6875 -12.5 -0.6875 -11 -2 C-11.66 -2 -12.32 -2 -13 -2 C-13 -2.66 -13 -3.32 -13 -4 C-17.95 -2.515 -17.95 -2.515 -23 -1 C-21.50993715 -3.98012569 -19.61848807 -5.15803519 -16.671875 -6.63671875 C-10.81160527 -7.43350981 -4.78541328 -3.10370088 0 0 Z " fill="#64675C" transform="translate(62,101)"/>
<path d="M0 0 C9 3 9 3 11 5 C11.24050903 6.98684692 11.24050903 6.98684692 11.22705078 9.44970703 C11.22689972 10.37051056 11.22674866 11.29131409 11.22659302 12.24002075 C11.21627045 13.23589203 11.20594788 14.23176331 11.1953125 15.2578125 C11.1924826 16.27600067 11.18965271 17.29418884 11.18673706 18.3432312 C11.1755177 21.603939 11.15040996 24.86437484 11.125 28.125 C11.11497247 30.33202729 11.10584623 32.53905888 11.09765625 34.74609375 C11.07557268 40.16415572 11.04207795 45.58205843 11 51 C9.68 51.66 8.36 52.32 7 53 C7.33 52.01 7.66 51.02 8 50 C8.66 50 9.32 50 10 50 C10 35.48 10 20.96 10 6 C9.34 6 8.68 6 8 6 C8 5.34 8 4.68 8 4 C6.02 4 4.04 4 2 4 C2.00523682 4.59538574 2.01047363 5.19077148 2.01586914 5.80419922 C2.03661999 8.49445547 2.04965407 11.18469489 2.0625 13.875 C2.07087891 14.81214844 2.07925781 15.74929687 2.08789062 16.71484375 C2.09111328 17.61074219 2.09433594 18.50664063 2.09765625 19.4296875 C2.10289307 20.25710449 2.10812988 21.08452148 2.11352539 21.93701172 C2 24 2 24 1 26 C-0.6254308 25.85904936 -2.25034051 25.71207913 -3.875 25.5625 C-4.77992188 25.48128906 -5.68484375 25.40007812 -6.6171875 25.31640625 C-9 25 -9 25 -11 24 C-8 22 -8 22 -4.9375 22.3125 C-2 23 -2 23 0 24 C0 16.08 0 8.16 0 0 Z " fill="#61703E" transform="translate(145,73)"/>
<path d="M0 0 C0.99 0.66 1.98 1.32 3 2 C3.1875 5.125 3.1875 5.125 3 8 C1.02 8.99 1.02 8.99 -1 10 C-1 10.99 -1 11.98 -1 13 C-3.9719385 11.87548273 -6.33440687 10.77706209 -9 9 C-9.375 5.5 -9.375 5.5 -9 2 C-5.53001271 -0.31332486 -4.07490752 -0.33957563 0 0 Z " fill="#8DB22E" transform="translate(187,108)"/>
<path d="M0 0 C0.99 0.33 1.98 0.66 3 1 C2.67 1.66 2.34 2.32 2 3 C1.34 3 0.68 3 0 3 C-0.11664855 5.91621364 -0.16200951 7.38809574 1 10 C5.46931762 13.65296625 10.64211534 15.94742908 16 18 C16 18.99 16 19.98 16 21 C14.77779263 21.67934107 13.54681549 22.34291523 12.3125 23 C11.62800781 23.37125 10.94351563 23.7425 10.23828125 24.125 C7.55488836 25.17400525 5.86386944 25.34925237 3 25 C0.32421875 23.6875 0.32421875 23.6875 -2.3125 22 C-3.19550781 21.443125 -4.07851562 20.88625 -4.98828125 20.3125 C-5.65214844 19.879375 -6.31601563 19.44625 -7 19 C-5.68 18.67 -4.36 18.34 -3 18 C-3 18.66 -3 19.32 -3 20 C-1.68 20 -0.36 20 1 20 C1 20.66 1 21.32 1 22 C3.31 22.33 5.62 22.66 8 23 C7.67 21.35 7.34 19.7 7 18 C7.66 18 8.32 18 9 18 C9 17.34 9 16.68 9 16 C7.35 16.33 5.7 16.66 4 17 C3.731875 16.38125 3.46375 15.7625 3.1875 15.125 C2.04443152 12.7004767 2.04443152 12.7004767 -1 11 C-1.328125 8.90625 -1.328125 8.90625 -1.25 6.5 C-1.23453125 5.7059375 -1.2190625 4.911875 -1.203125 4.09375 C-1 2 -1 2 0 0 Z " fill="#626E4B" transform="translate(178,107)"/>
<path d="M0 0 C0.66 0.33 1.32 0.66 2 1 C2 3.64 2 6.28 2 9 C-1.46011373 10.52888746 -3.21280236 11.25669488 -6.875 10.0625 C-9 8 -9 8 -9.3125 4.3125 C-9.209375 3.219375 -9.10625 2.12625 -9 1 C-5.64406166 -1.11299821 -3.77811119 -1.09366377 0 0 Z " fill="#8AC402" transform="translate(142,109)"/>
<path d="M0 0 C0.66 0.33 1.32 0.66 2 1 C2 3.64 2 6.28 2 9 C-1.46011373 10.52888746 -3.21280236 11.25669488 -6.875 10.0625 C-9 8 -9 8 -9.3125 4.3125 C-9.209375 3.219375 -9.10625 2.12625 -9 1 C-5.64406166 -1.11299821 -3.77811119 -1.09366377 0 0 Z " fill="#90C11B" transform="translate(97,109)"/>
<path d="M0 0 C1.313702 0.6433848 2.62592898 1.28978215 3.9375 1.9375 C4.66839844 2.29714844 5.39929688 2.65679687 6.15234375 3.02734375 C8 4 8 4 9 5 C9.6875 7.6875 9.6875 7.6875 9 11 C1.38826185 17 1.38826185 17 -2 17 C-2 15.02 -2 13.04 -2 11 C-4.31 10.34 -6.62 9.68 -9 9 C-8.34 7.68 -7.68 6.36 -7 5 C-6.67 5.66 -6.34 6.32 -6 7 C-4.07361988 7.75243555 -4.07361988 7.75243555 -2 8 C-1.34 7.67 -0.68 7.34 0 7 C0 8.32 0 9.64 0 11 C0.66 11 1.32 11 2 11 C2 10.34 2 9.68 2 9 C2.66 9 3.32 9 4 9 C4 9.66 4 10.32 4 11 C4.66 11 5.32 11 6 11 C6 8.69 6 6.38 6 4 C4.02 3.34 2.04 2.68 0 2 C0 1.34 0 0.68 0 0 Z " fill="#637048" transform="translate(192,99)"/>
<path d="M0 0 C0 0.66 0 1.32 0 2 C-1.609375 3.5078125 -1.609375 3.5078125 -3.75 5.125 C-4.44609375 5.66382813 -5.1421875 6.20265625 -5.859375 6.7578125 C-8 8 -8 8 -12 8 C-12 8.66 -12 9.32 -12 10 C-12.66 10 -13.32 10 -14 10 C-14 10.99 -14 11.98 -14 13 C-17.3 13.33 -20.6 13.66 -24 14 C-20.95076251 10.95076251 -17.84894102 9.05939358 -14.125 7 C-9.10911975 4.19934398 -9.10911975 4.19934398 -4.1796875 1.25 C-2 0 -2 0 0 0 Z " fill="#8EBB1E" transform="translate(68,27)"/>
<path d="M0 0 C0.99 0.33 1.98 0.66 3 1 C2.67 8.92 2.34 16.84 2 25 C-0.64 24.67 -3.28 24.34 -6 24 C-6.99 24.33 -7.98 24.66 -9 25 C-9 24.34 -9 23.68 -9 23 C-7 22 -7 22 0 22 C0 14.74 0 7.48 0 0 Z " fill="#8AB12E" transform="translate(143,72)"/>
<path d="M0 0 C2 2 2 2 2.22705078 4.15478516 C2.21657715 5.02409668 2.20610352 5.8934082 2.1953125 6.7890625 C2.18886719 7.73007813 2.18242187 8.67109375 2.17578125 9.640625 C2.15902344 10.62546875 2.14226562 11.6103125 2.125 12.625 C2.11597656 13.61757812 2.10695312 14.61015625 2.09765625 15.6328125 C2.07404116 18.08878134 2.04110799 20.54427168 2 23 C1.01 23 0.02 23 -1 23 C-1.33 21.02 -1.66 19.04 -2 17 C-2.66 17 -3.32 17 -4 17 C-3.67 15.68 -3.34 14.36 -3 13 C-2.01 13.33 -1.02 13.66 0 14 C-0.185625 12.80375 -0.37125 11.6075 -0.5625 10.375 C-1.0311197 6.71716293 -0.81481013 3.62137834 0 0 Z " fill="#8CBD0C" transform="translate(210,91)"/>
<path d="M0 0 C0 0.66 0 1.32 0 2 C-0.763125 1.95875 -1.52625 1.9175 -2.3125 1.875 C-5.22718416 1.77919176 -5.22718416 1.77919176 -8 4 C-8.34226981 7.58716541 -8.31195693 11.11254902 -8.30078125 14.71484375 C-9 18 -9 18 -11.91796875 20.00390625 C-15 21 -15 21 -17 20 C-13.25 17 -13.25 17 -11 17 C-11.05800781 15.95199219 -11.11601563 14.90398437 -11.17578125 13.82421875 C-11.22268131 12.445357 -11.26818122 11.06644713 -11.3125 9.6875 C-11.35439453 8.99720703 -11.39628906 8.30691406 -11.43945312 7.59570312 C-11.48828125 5.57421875 -11.48828125 5.57421875 -11 2 C-7.19761163 -1.2885521 -4.77508689 -1.22153386 0 0 Z " fill="#627440" transform="translate(52,106)"/>
<path d="M0 0 C4.54579851 2.02650089 8.75635882 4.39262172 13 7 C13 7.33 13 7.66 13 8 C11.02 8 9.04 8 7 8 C7 7.01 7 6.02 7 5 C6.01 5.33 5.02 5.66 4 6 C3.60425781 5.51273437 3.20851563 5.02546875 2.80078125 4.5234375 C-0.09191193 2.07625672 -2.83255148 2.59917412 -6.48046875 2.6953125 C-9.76809867 3.09288635 -12.21575901 4.24153201 -15 6 C-15.66 5.34 -16.32 4.68 -17 4 C-11.41050921 0.11165858 -6.79555179 -1.44685512 0 0 Z " fill="#8CB520" transform="translate(121,1)"/>
<path d="M0 0 C0.66 0.33 1.32 0.66 2 1 C1.1875 2.9375 1.1875 2.9375 0 5 C-0.99 5.33 -1.98 5.66 -3 6 C-3.83333333 7.91666667 -3.83333333 7.91666667 -4 10 C-3.67 10.66 -3.34 11.32 -3 12 C-6.68754757 11.50168276 -8.60490662 10.89932357 -11 8 C-10.5 6.1875 -10.5 6.1875 -9 4 C-6.96304582 3.02598865 -4.92458579 2.30831981 -2.77734375 1.61328125 C-0.99877003 1.14469894 -0.99877003 1.14469894 0 0 Z " fill="#8BBB14" transform="translate(196,112)"/>
<path d="M0 0 C-1.49874127 3.11277032 -3.21164637 6.04554181 -5 9 C-6.95918968 8.94008594 -8.91751529 8.85132862 -10.875 8.75 C-11.96554688 8.70359375 -13.05609375 8.6571875 -14.1796875 8.609375 C-17 8 -17 8 -18.3828125 5.953125 C-18.58648437 5.30859375 -18.79015625 4.6640625 -19 4 C-18.443125 4.350625 -17.88625 4.70125 -17.3125 5.0625 C-14.25345289 6.30265424 -13.13524135 6.06883228 -10 5 C-7.87139227 3.75318545 -5.81420233 2.43864899 -3.76953125 1.05859375 C-2 0 -2 0 0 0 Z " fill="#8CBC13" transform="translate(152,126)"/>
<path d="M0 0 C0.66 0.33 1.32 0.66 2 1 C2 3.64 2 6.28 2 9 C-1.46011373 10.52888746 -3.21280236 11.25669488 -6.875 10.0625 C-9 8 -9 8 -9.3125 4.3125 C-9.209375 3.219375 -9.10625 2.12625 -9 1 C-5.64406166 -1.11299821 -3.77811119 -1.09366377 0 0 Z M-6 1 C-7.35618499 2.12534105 -7.35618499 2.12534105 -7.0625 5.0625 C-7.041875 6.031875 -7.02125 7.00125 -7 8 C-3.71303767 8.79953138 -2.28976808 9.09658936 1 8 C1 6.02 1 4.04 1 2 C-1.3260857 1.61936779 -3.66055264 1.28730055 -6 1 Z " fill="#8DB529" transform="translate(142,109)"/>
<path d="M0 0 C0.99 0 1.98 0 3 0 C3 0.99 3 1.98 3 3 C1.02 3.66 -0.96 4.32 -3 5 C-3 7.31 -3 9.62 -3 12 C1.94749352 13.95031608 1.94749352 13.95031608 7 13 C7.33 13.66 7.66 14.32 8 15 C4.94306678 16.52846661 2.37015453 16.23242445 -1 16 C-3.2109375 14.83984375 -3.2109375 14.83984375 -5 13 C-5.390625 10.30078125 -5.390625 10.30078125 -5.25 7.3125 C-5.21390625 6.31863281 -5.1778125 5.32476562 -5.140625 4.30078125 C-5.09421875 3.54152344 -5.0478125 2.78226562 -5 2 C-4.34 1.67 -3.68 1.34 -3 1 C-2.01 1.33 -1.02 1.66 0 2 C0 1.34 0 0.68 0 0 Z " fill="#627148" transform="translate(137,105)"/>
<path d="M0 0 C0 0.66 0 1.32 0 2 C-0.66 2 -1.32 2 -2 2 C-1.67 2.99 -1.34 3.98 -1 5 C-1.61488281 5.19335938 -2.22976562 5.38671875 -2.86328125 5.5859375 C-3.67152344 5.84632812 -4.47976562 6.10671875 -5.3125 6.375 C-6.11300781 6.63023438 -6.91351563 6.88546875 -7.73828125 7.1484375 C-10.22724528 7.98831811 -10.22724528 7.98831811 -13 10 C-15.6875 10.125 -15.6875 10.125 -18 10 C-13.67630171 6.12358085 -6.04191557 0 0 0 Z " fill="#8FBB1A" transform="translate(89,15)"/>
<path d="M0 0 C1.32 0.33 2.64 0.66 4 1 C-0.32539938 3.67979631 -4.6597796 6.34427073 -9 9 C-9.77601563 9.48082031 -10.55203125 9.96164063 -11.3515625 10.45703125 C-12.86463087 11.36809157 -14.42732829 12.19619001 -16 13 C-16.66 12.67 -17.32 12.34 -18 12 C-16.25 10 -16.25 10 -14 8 C-12.68 8 -11.36 8 -10 8 C-10 7.34 -10 6.68 -10 6 C-8.35 5.67 -6.7 5.34 -5 5 C-5 4.34 -5 3.68 -5 3 C-3.68 3 -2.36 3 -1 3 C-0.67 2.01 -0.34 1.02 0 0 Z " fill="#88B31C" transform="translate(204,164)"/>
<path d="M0 0 C0 0.66 0 1.32 0 2 C0.66 2.33 1.32 2.66 2 3 C0.73308493 3.67408308 -0.53870749 4.33900497 -1.8125 5 C-2.52019531 5.37125 -3.22789062 5.7425 -3.95703125 6.125 C-7.19716271 7.51274273 -9.72390277 6.90375096 -13 6 C-11.59138651 4.98868775 -10.17274547 3.99133233 -8.75 3 C-7.56664062 2.1646875 -7.56664062 2.1646875 -6.359375 1.3125 C-4 0 -4 0 0 0 Z " fill="#667646" transform="translate(186,94)"/>
<path d="M0 0 C0.66 0.33 1.32 0.66 2 1 C1.01 3.31 0.02 5.62 -1 8 C-2.32 7.01 -3.64 6.02 -5 5 C-5.33 5.99 -5.66 6.98 -6 8 C-8.31 8.33 -10.62 8.66 -13 9 C-10.59497637 6.36479259 -7.9814151 4.59697057 -4.9375 2.75 C-4.05964844 2.20859375 -3.18179688 1.6671875 -2.27734375 1.109375 C-1.52582031 0.74328125 -0.77429688 0.3771875 0 0 Z " fill="#8CBB19" transform="translate(102,6)"/>
<path d="M0 0 C0.99 0.495 0.99 0.495 2 1 C3.35024359 5.1734802 2.7518819 8.73933592 2 13 C3.32 12.67 4.64 12.34 6 12 C6.33 13.32 6.66 14.64 7 16 C1.125 14.125 1.125 14.125 0 13 C-0.07258946 10.81360547 -0.08373783 8.62499611 -0.0625 6.4375 C-0.05347656 5.23996094 -0.04445312 4.04242188 -0.03515625 2.80859375 C-0.02355469 1.88175781 -0.01195312 0.95492187 0 0 Z " fill="#677846" transform="translate(54,110)"/>
<path d="M0 0 C0 0.99 0 1.98 0 3 C-1.98 3.33 -3.96 3.66 -6 4 C-6 11.59 -6 19.18 -6 27 C-5.34 27.33 -4.68 27.66 -4 28 C-4.99 28 -5.98 28 -7 28 C-7.14489234 23.89620302 -7.23393542 19.79306033 -7.3125 15.6875 C-7.35439453 14.52025391 -7.39628906 13.35300781 -7.43945312 12.15039062 C-7.45556641 11.03212891 -7.47167969 9.91386719 -7.48828125 8.76171875 C-7.51446533 7.73006592 -7.54064941 6.69841309 -7.56762695 5.63549805 C-7 3 -7 3 -4.59448242 1.13989258 C-2 0 -2 0 0 0 Z " fill="#5F703E" transform="translate(39,100)"/>
<path d="M0 0 C4.51451314 1.3489311 8.32277281 3.16618294 12.375 5.5625 C13.43460938 6.18253906 14.49421875 6.80257812 15.5859375 7.44140625 C16.38257813 7.95574219 17.17921875 8.47007813 18 9 C18 9.33 18 9.66 18 10 C16.02 10 14.04 10 12 10 C12 9.01 12 8.02 12 7 C11.38511719 6.79503906 10.77023438 6.59007812 10.13671875 6.37890625 C6.7578125 5.25260417 3.37890625 4.12630208 0 3 C0 2.01 0 1.02 0 0 Z " fill="#8BB71E" transform="translate(175,33)"/>
<path d="M0 0 C2 1 2 1 4 4 C-0.95 6.475 -0.95 6.475 -6 9 C-6 8.34 -6 7.68 -6 7 C-5.34 7 -4.68 7 -4 7 C-3.896875 6.401875 -3.79375 5.80375 -3.6875 5.1875 C-2.91123545 2.71756736 -1.92911079 1.67748765 0 0 Z " fill="#89BA11" transform="translate(134,202)"/>
<path d="M0 0 C4.22361562 -0.35196797 5.72203001 0.46221678 9 3 C10.32 3 11.64 3 13 3 C13.33 4.65 13.66 6.3 14 8 C9.02790438 6.23570801 4.56561939 3.6060834 0 1 C0 0.67 0 0.34 0 0 Z " fill="#8CB71B" transform="translate(46,177)"/>
<path d="M0 0 C0 1.65 0 3.3 0 5 C-3.75 6.125 -3.75 6.125 -6 5 C-6 3.35 -6 1.7 -6 0 C-3.50907189 -1.24546405 -2.58919267 -0.7767578 0 0 Z " fill="#607241" transform="translate(187,111)"/>
<path d="M0 0 C2.19934569 0.79976207 4.23348772 1.73834366 6.3125 2.8125 C7.01890625 3.17472656 7.7253125 3.53695312 8.453125 3.91015625 C8.98421875 4.18730469 9.5153125 4.46445313 10.0625 4.75 C9.0725 5.08 8.0825 5.41 7.0625 5.75 C5.72916667 5.08333333 4.39583333 4.41666667 3.0625 3.75 C0.73754723 3.36250787 -1.59601268 3.02017161 -3.9375 2.75 C-3.9375 3.41 -3.9375 4.07 -3.9375 4.75 C-5.2575 4.42 -6.5775 4.09 -7.9375 3.75 C-2.50630734 -0.3233945 -2.50630734 -0.3233945 0 0 Z " fill="#ECF9C9" transform="translate(93.9375,94.25)"/>
<path d="M0 0 C1.051875 0.16048828 1.051875 0.16048828 2.125 0.32421875 C3.176875 0.47310547 3.176875 0.47310547 4.25 0.625 C6.125 1.01171875 6.125 1.01171875 8.125 2.01171875 C8.125 2.67171875 8.125 3.33171875 8.125 4.01171875 C7.17625 3.57859375 6.2275 3.14546875 5.25 2.69921875 C1.385038 1.53258751 -0.78390295 2.59481385 -4.3125 4.38671875 C-5.84509428 5.24095163 -7.370191 6.10943891 -8.875 7.01171875 C-8.875 6.02171875 -8.875 5.03171875 -8.875 4.01171875 C-7.699375 3.57859375 -7.699375 3.57859375 -6.5 3.13671875 C-3.92691086 2.03396626 -2.716723 0.01697952 0 0 Z " fill="#8AB527" transform="translate(46.875,92.98828125)"/>
<path d="M0 0 C0.33 0 0.66 0 1 0 C1 5.61 1 11.22 1 17 C1.66 17 2.32 17 3 17 C3.66 18.32 4.32 19.64 5 21 C2.525 20.01 2.525 20.01 0 19 C0 12.73 0 6.46 0 0 Z " fill="#F7FDE4" transform="translate(78,105)"/>
<path d="M0 0 C0.6875 1.8125 0.6875 1.8125 1 4 C-0.6132446 6.16514407 -1.60895044 6.91152419 -4.26171875 7.51171875 C-5.06222656 7.56972656 -5.86273438 7.62773437 -6.6875 7.6875 C-7.49574219 7.75324219 -8.30398437 7.81898438 -9.13671875 7.88671875 C-10.05904297 7.94279297 -10.05904297 7.94279297 -11 8 C-3.5 3 -3.5 3 0 3 C0 2.01 0 1.02 0 0 Z " fill="#8AB81B" transform="translate(194,125)"/>
<path d="M0 0 C0.20625 0.639375 0.4125 1.27875 0.625 1.9375 C1.89538209 4.34925077 1.89538209 4.34925077 5.125 4.75 C6.07375 4.8325 7.0225 4.915 8 5 C7.67 6.65 7.34 8.3 7 10 C2.25 8.125 2.25 8.125 0 7 C0 4.69 0 2.38 0 0 Z " fill="#90B62D" transform="translate(179,111)"/>
<path d="M0 0 C0.99 0.33 1.98 0.66 3 1 C2.67 1.99 2.34 2.98 2 4 C1.01 4 0.02 4 -1 4 C-1 4.66 -1 5.32 -1 6 C-2.32 6 -3.64 6 -5 6 C-3.63016497 2.83884224 -3.0109362 2.0072908 0 0 Z " fill="#8FBB15" transform="translate(28,49)"/>
<path d="M0 0 C0 0.66 0 1.32 0 2 C0.66 2 1.32 2 2 2 C2.33 3.32 2.66 4.64 3 6 C-0.91211733 4.84414715 -3.8745041 3.64465038 -7 1 C-2.25 0 -2.25 0 0 0 Z " fill="#94C323" transform="translate(99,92)"/>
<path d="M0 0 C1.32 0 2.64 0 4 0 C4 0.66 4 1.32 4 2 C5.32 2 6.64 2 8 2 C8 2.66 8 3.32 8 4 C10.31 4.66 12.62 5.32 15 6 C15 6.33 15 6.66 15 7 C10.65432327 7.36801226 8.34594362 6.3659645 4.6875 4.0625 C3.80449219 3.51722656 2.92148438 2.97195312 2.01171875 2.41015625 C1.34785156 1.94480469 0.68398437 1.47945313 0 1 C0 0.67 0 0.34 0 0 Z " fill="#63773E" transform="translate(171,125)"/>
<path d="M0 0 C2 2 2 2 2.1953125 5.2578125 C2.17210937 6.53398438 2.14890625 7.81015625 2.125 9.125 C2.10695312 10.40632813 2.08890625 11.68765625 2.0703125 13.0078125 C2.04710937 13.99523437 2.02390625 14.98265625 2 16 C1.67 16 1.34 16 1 16 C-1.48063781 5.62642369 -1.48063781 5.62642369 0 0 Z " fill="#8AB01C" transform="translate(210,91)"/>
<path d="M0 0 C0.66 0.4125 1.32 0.825 2 1.25 C2 1.58 2 1.91 2 2.25 C0.80375 2.37375 -0.3925 2.4975 -1.625 2.625 C-5.27596813 3.07325054 -8.54524899 3.95446837 -12 5.25 C-10.48810197 2.22620394 -8.04350262 1.38818833 -5.078125 -0.0625 C-3 -0.75 -3 -0.75 0 0 Z " fill="#627540" transform="translate(51,94.75)"/>
<path d="M0 0 C1.98 0.66 3.96 1.32 6 2 C4 4 4 4 0.5 4.25 C-3 4 -3 4 -5 2 C-3.35 2 -1.7 2 0 2 C0 1.34 0 0.68 0 0 Z " fill="#80AC0B" transform="translate(116,212)"/>
<path d="M0 0 C2.475 0.99 2.475 0.99 5 2 C0.25 6 0.25 6 -2 6 C-2 4.68 -2 3.36 -2 2 C-1.34 2 -0.68 2 0 2 C0 1.34 0 0.68 0 0 Z " fill="#90C216" transform="translate(88,130)"/>
<path d="M0 0 C2.97 1.65 5.94 3.3 9 5 C5.80926781 6.0635774 5.06624043 5.89019883 2 5 C1.34 5 0.68 5 0 5 C0 3.35 0 1.7 0 0 Z " fill="#627246" transform="translate(54,97)"/>
<path d="M0 0 C0.515625 0.350625 1.03125 0.70125 1.5625 1.0625 C4.94006667 2.3615641 7.50468057 1.67217681 11 1 C10.01 2.485 10.01 2.485 9 4 C5.375 4.1875 5.375 4.1875 2 4 C1.34 2.68 0.68 1.36 0 0 Z " fill="#8EB922" transform="translate(133,130)"/>
<path d="M0 0 C0.66 0.33 1.32 0.66 2 1 C2 1.66 2 2.32 2 3 C1.34 3 0.68 3 0 3 C-0.12375 3.61875 -0.2475 4.2375 -0.375 4.875 C-1 7 -1 7 -3 9 C-3.1875 5.625 -3.1875 5.625 -3 2 C-2.01 1.34 -1.02 0.68 0 0 Z " fill="#82A336" transform="translate(181,108)"/>
<path d="M0 0 C0.33 0.99 0.66 1.98 1 3 C3.00016466 4.20882096 3.00016466 4.20882096 5 5 C4.67 5.66 4.34 6.32 4 7 C0.535 5.02 0.535 5.02 -3 3 C-2.01 2.67 -1.02 2.34 0 2 C0 1.34 0 0.68 0 0 Z " fill="#94C02A" transform="translate(105,96)"/>
<path d="M0 0 C3.37503669 1.1858237 5.64722731 2.27573689 8 5 C5.36 4.67 2.72 4.34 0 4 C0 2.68 0 1.36 0 0 Z " fill="#8BB61D" transform="translate(193,43)"/>
<path d="M0 0 C2.475 0.495 2.475 0.495 5 1 C5.33 2.32 5.66 3.64 6 5 C3.5625 4.1875 3.5625 4.1875 1 3 C0.67 2.01 0.34 1.02 0 0 Z " fill="#8AB21F" transform="translate(23,162)"/>
</svg>
