<?xml version="1.0" encoding="UTF-8"?>
<svg version="1.1" xmlns="http://www.w3.org/2000/svg" width="1384" height="1244">
<path d="M0 0 C1.11876022 -0.00701431 2.23752045 -0.01402863 3.3901825 -0.02125549 C6.98151734 -0.03865572 10.57268705 -0.04510817 14.1640625 -0.046875 C15.39381805 -0.04754974 16.62357361 -0.04822449 17.89059448 -0.04891968 C36.71188026 -0.03252123 55.13826532 0.48387454 73.7890625 3.203125 C75.6462793 3.46851074 75.6462793 3.46851074 77.54101562 3.73925781 C126.30932182 10.88782725 173.00787506 25.6127801 216.828125 48.19384766 C218.1462473 48.87227365 219.46660903 49.54636452 220.7890625 50.21630859 C248.58908537 64.31011826 273.88823238 82.28608935 297.7890625 102.203125 C298.80129883 103.04367432 299.81353516 103.88422363 300.85644531 104.75024414 C309.36282894 111.88681394 317.34444848 119.44614644 325.16821289 127.3215332 C327.11056734 129.27467988 329.06349208 131.2168012 331.01757812 133.15820312 C338.07073382 140.20393615 344.61311528 147.36881387 350.7890625 155.203125 C351.7117594 156.29353004 352.64142973 157.37812663 353.58203125 158.453125 C365.99610659 172.71007286 376.82207421 188.15841474 386.7890625 204.203125 C387.16836914 204.8101123 387.54767578 205.41709961 387.93847656 206.04248047 C424.88345796 265.43113118 447.555251 333.39285484 452.7890625 403.203125 C452.84545898 403.88358887 452.90185547 404.56405273 452.95996094 405.26513672 C460.40237075 496.70989394 436.70202486 591.2549257 351.31323242 719.54394531 C348.82928762 722.4516289 346.31451735 725.33148031 343.7890625 728.203125 C342.98726562 729.11835937 342.18546875 730.03359375 341.359375 730.9765625 C335.52110615 737.48632553 329.40010648 743.71840943 323.24261475 749.92480469 C321.83238392 751.34693795 320.42613655 752.77301788 319.02001953 754.19921875 C313.7226298 759.50323851 308.27005148 764.39836003 302.41308594 769.07592773 C299.92970508 771.08911134 297.54909225 773.17500578 295.1796875 775.3203125 C290.81067387 779.24157008 286.24498853 782.8216368 281.5390625 786.328125 C280.2557605 787.2864624 280.2557605 787.2864624 278.9465332 788.26416016 C202.88726743 844.52187297 111.56130089 875.49171484 16.9140625 875.390625 C15.86971039 875.39002075 14.82535828 875.3894165 13.74935913 875.38879395 C-1.6632067 875.36458333 -16.89737884 875.10408286 -32.2109375 873.203125 C-33.28617676 873.07421875 -34.36141602 872.9453125 -35.46923828 872.8125 C-123.83166243 861.95413925 -209.68162862 825.47747877 -275.41015625 764.7578125 C-277.54097244 762.81422284 -279.69491119 760.92782413 -281.8828125 759.05078125 C-287.07522043 754.52064841 -291.9132715 749.64660541 -296.7734375 744.765625 C-297.68029297 743.86263672 -298.58714844 742.95964844 -299.52148438 742.02929688 C-304.62761434 736.91576135 -309.52899539 731.706407 -314.2109375 726.203125 C-315.0565625 725.23890625 -315.9021875 724.2746875 -316.7734375 723.28125 C-363.79459073 668.72465555 -396.5611498 602.40155019 -412.2109375 532.203125 C-412.44651367 531.15302246 -412.68208984 530.10291992 -412.92480469 529.02099609 C-418.49309163 503.65391429 -421.7774163 477.18449902 -422.2109375 451.203125 C-422.23140137 450.22633789 -422.25186523 449.24955078 -422.27294922 448.24316406 C-424.14709162 347.10142959 -392.27477492 247.75138238 -319.2109375 155.203125 C-318.37062988 154.19314453 -317.53032227 153.18316406 -316.66455078 152.14257812 C-309.65304932 143.79174228 -302.25487123 135.9336624 -294.51977539 128.2512207 C-292.63905222 126.38129359 -290.76936931 124.50079862 -288.90039062 122.61914062 C-281.97396558 115.68514516 -274.90669177 109.28222657 -267.2109375 103.203125 C-266.12062403 102.2803199 -265.0360234 101.35065772 -263.9609375 100.41015625 C-194.93367991 40.3054561 -97.77272624 1.68837702 0 0 Z " fill="#FF6C37" transform="translate(676.2109375,-0.203125)"/>
<path d="M0 0 C7.68080833 4.50847658 11.43661919 11.95175441 15.3125 19.6875 C16.36447644 21.74484633 17.41656441 23.80213563 18.46875 25.859375 C19.28666016 27.47102539 19.28666016 27.47102539 20.12109375 29.11523438 C22.9847323 34.74000248 25.90213369 40.33681164 28.8125 45.9375 C29.98977361 48.20823469 31.16685773 50.47906764 32.34375 52.75 C35.66172043 59.14841278 38.98343492 65.54485224 42.3125 71.9375 C42.78042969 72.83791016 43.24835937 73.73832031 43.73046875 74.66601562 C46.63090948 80.2300416 49.62018892 85.73428803 52.69335938 91.20507812 C53.8125 93.4375 53.8125 93.4375 53.8125 95.4375 C54.4725 95.4375 55.1325 95.4375 55.8125 95.4375 C56.18375 94.44484131 56.18375 94.44484131 56.5625 93.43212891 C58.12439973 89.69028085 59.95262746 86.12441611 61.8125 82.5234375 C62.20427933 81.7607103 62.59605865 80.99798309 62.99971008 80.21214294 C64.26824147 77.74435253 65.5401811 75.27833955 66.8125 72.8125 C67.68911125 71.11030367 68.56565732 69.40807377 69.44213867 67.70581055 C74.74649758 57.41088426 80.05291562 47.11772432 85.50927734 36.90234375 C87.10581984 33.88273097 88.67016021 30.84696602 90.23828125 27.8125 C91.47082003 25.45805364 92.70389099 23.10388579 93.9375 20.75 C94.49993408 19.64954346 95.06236816 18.54908691 95.6418457 17.4152832 C99.97420965 9.21498472 104.65164366 1.52591077 113.8125 -1.5625 C118.1068455 -2.12870651 121.74788998 -2.01552554 125.75 -0.3125 C128.04495478 1.63473436 128.76312283 2.63261214 129.8125 5.4375 C130.00806284 8.0519707 130.09527939 10.55982293 130.08665466 13.17393494 C130.09189134 13.95786686 130.09712802 14.74179878 130.10252339 15.54948622 C130.1175366 18.17879425 130.11822882 20.8079079 130.11889648 23.43725586 C130.12651698 25.32133819 130.13494428 27.2054174 130.14411926 29.0894928 C130.16607945 34.20926907 130.17486498 39.32898561 130.17994571 44.44880366 C130.18358686 47.6462969 130.18982561 50.84377442 130.1969471 54.04126167 C130.22144491 65.19279799 130.23449464 76.34428776 130.23803711 87.49584961 C130.24167473 97.89672356 130.27158552 108.29730284 130.31344169 118.69808668 C130.34810505 127.62387194 130.36358485 136.54955934 130.36428314 145.47541147 C130.36507718 150.80822873 130.37387413 156.14074576 130.40228081 161.47349358 C130.42839431 166.48785299 130.43070428 171.50166179 130.41462517 176.51605797 C130.41280543 178.35712634 130.41954851 180.19822589 130.43544388 182.03922653 C130.45581413 184.55150117 130.44540766 187.06183277 130.42723083 189.57408142 C130.4404308 190.30385081 130.45363077 191.03362019 130.46723074 191.7855038 C130.40312902 195.66014977 129.91807852 197.30596189 127.46157932 200.36646366 C122.88261519 203.94627384 118.41378684 203.99094913 112.8125 203.4375 C107.2125 201.2375 107.2125 201.2375 105.8125 198.4375 C105.70680536 196.51193278 105.66585882 194.58269745 105.65428162 192.65426636 C105.6444928 191.42305054 105.63470398 190.19183472 105.62461853 188.92330933 C105.61871397 187.5515751 105.61290355 186.17984046 105.60717773 184.80810547 C105.59760169 183.36940223 105.58759177 181.93070182 105.57717896 180.49200439 C105.55009412 176.57904255 105.52910397 172.6660686 105.50917697 168.75306463 C105.48733945 164.66641873 105.45993985 160.57981028 105.43312073 156.49319458 C105.38316357 148.75135121 105.33823598 141.00948708 105.29509836 133.26760304 C105.24575179 124.45512406 105.19082411 115.64268266 105.13541877 106.83024001 C105.02155233 88.69936155 104.91472347 70.56844765 104.8125 52.4375 C104.4501123 53.13721924 104.08772461 53.83693848 103.71435547 54.55786133 C102.03994936 57.78920407 100.36373419 61.0196052 98.6875 64.25 C98.11773438 65.35021484 97.54796875 66.45042969 96.9609375 67.58398438 C93.32769116 74.58211226 89.61745573 81.53129978 85.8125 88.4375 C80.82605614 97.50047526 76.03067979 106.65125512 71.3515625 115.87695312 C62.87649104 132.40550448 62.87649104 132.40550448 58.8125 134.4375 C51.81749275 135.01086125 51.81749275 135.01086125 48.375 133.046875 C44.71239487 129.317271 42.83832013 125.07097972 40.625 120.375 C39.65144962 118.36896087 38.67615932 116.3637653 37.69921875 114.359375 C37.21372559 113.35712891 36.72823242 112.35488281 36.22802734 111.32226562 C34.21163336 107.21296737 32.08718861 103.16576476 29.9375 99.125 C25.42199877 90.61002872 20.97134438 82.06253609 16.54150391 73.50268555 C13.77330506 68.16513522 10.96854804 62.85006558 8.11401367 57.55810547 C7.49298264 56.40631805 6.8719516 55.25453064 6.23210144 54.06784058 C5.76363297 53.19982819 5.29516449 52.3318158 4.8125 51.4375 C4.81103344 52.19141148 4.80956688 52.94532295 4.80805588 53.72208023 C4.77102026 72.05800453 4.71204882 90.39373781 4.62859726 108.72951126 C4.58877099 117.59653277 4.55639678 126.46346507 4.54150391 135.33056641 C4.52850593 143.05824693 4.50158893 150.78573146 4.45788693 158.51330161 C4.43523015 162.60585205 4.41959183 166.69816039 4.42061615 170.79077911 C4.42136029 174.64209668 4.40350939 178.49287818 4.37133217 182.34405708 C4.36280623 183.75817738 4.3611015 185.17235761 4.36669731 186.58649254 C4.37331704 188.51628386 4.35309152 190.44611178 4.33148193 192.37579346 C4.32779476 193.45613483 4.32410759 194.53647621 4.32030869 195.64955521 C3.68746454 199.12396318 2.5410722 200.26532513 -0.1875 202.4375 C-5.02127981 204.74453127 -9.09688606 204.73633977 -14.1875 203.4375 C-18.82130282 201.16989437 -18.82130282 201.16989437 -20.1875 198.4375 C-20.28953476 195.91722915 -20.33088663 193.42433359 -20.32794189 190.90361023 C-20.33091302 190.1173036 -20.33388414 189.33099698 -20.3369453 188.52086288 C-20.34565501 185.87156398 -20.34714246 183.22231015 -20.34863281 180.57299805 C-20.35325939 178.67936099 -20.35828383 176.78572487 -20.36367798 174.89208984 C-20.37681966 169.73707864 -20.38325041 164.58208047 -20.38768864 159.42705512 C-20.39061658 156.20847189 -20.39472086 152.98989224 -20.39919281 149.77131081 C-20.41287254 139.7071483 -20.42253681 129.64299396 -20.4263947 119.57882279 C-20.43087644 107.95008736 -20.44842777 96.32146941 -20.4773953 84.69276971 C-20.4989927 75.71183139 -20.50909795 66.73092617 -20.51043582 57.74996215 C-20.51148526 52.38253984 -20.51742261 47.0152279 -20.53525543 41.64783287 C-20.5517025 36.59913982 -20.55390799 31.55064049 -20.54511642 26.50193024 C-20.54434424 24.64797002 -20.54871261 22.79399953 -20.55857468 20.94006538 C-20.57124203 18.41059159 -20.56544599 15.8818093 -20.55499268 13.3523407 C-20.56304908 12.61731612 -20.57110548 11.88229155 -20.57940602 11.1249935 C-20.53681162 6.72314128 -19.87596934 3.94866184 -17.1875 0.4375 C-12.01097391 -3.03456018 -5.51276089 -2.46539979 0 0 Z " fill="#FF6C37" transform="translate(827.1875,1038.5625)"/>
<path d="M0 0 C1.90984993 1.72614757 3.69144719 3.53000637 5.4672699 5.39378357 C6.12466156 6.05966492 6.78205322 6.72554626 7.45936584 7.41160583 C9.55203843 9.53781574 11.62287185 11.68394104 13.6938324 13.83128357 C15.11040989 15.27795969 16.52836372 16.72328948 17.94773865 18.16722107 C21.42092299 21.70649466 24.87466722 25.26377363 28.3188324 28.83128357 C26.62221459 32.49388404 24.82184021 34.31321462 21.6313324 36.83128357 C20.14246521 38.01464294 20.14246521 38.01464294 18.6235199 39.22190857 C18.08694763 39.64407654 17.55037537 40.06624451 16.99754333 40.50120544 C15.28130211 41.86101961 13.58378874 43.24154509 11.8891449 44.62815857 C3.02689196 51.85238767 -6.11702717 58.61990145 -15.4389801 65.23753357 C-17.59784498 66.77205773 -19.74951762 68.31617852 -21.8999176 69.86253357 C-37.6792614 81.16367995 -54.01522094 91.58244088 -70.63624573 101.59642029 C-72.51525761 102.7310958 -74.38821074 103.87500215 -76.2592926 105.02268982 C-85.2064126 110.48437548 -94.33705545 115.60538793 -103.49977112 120.69578552 C-108.69086425 123.58192921 -113.85172631 126.50544824 -118.9702301 129.51878357 C-123.36390562 132.09343514 -127.78482089 134.49215234 -132.3686676 136.70628357 C-133.72090959 137.37418046 -135.07244628 138.04350678 -136.4233551 138.71409607 C-137.11268127 139.0560199 -137.80200745 139.39794373 -138.51222229 139.75022888 C-142.35445747 141.66529162 -146.1804327 143.60913189 -149.9936676 145.58128357 C-150.71707336 145.94592712 -151.44047913 146.31057068 -152.18580627 146.68626404 C-157.31511798 149.30276522 -157.31511798 149.30276522 -160.6811676 153.83128357 C-161.19504566 158.57631342 -160.09860021 162.84303291 -158.8686676 167.39378357 C-158.50200422 168.80894681 -158.1361302 170.22431479 -157.77101135 171.63987732 C-157.58780334 172.34225525 -157.40459534 173.04463318 -157.21583557 173.76829529 C-156.42389699 176.82394872 -155.66769689 179.8868242 -154.9311676 182.95628357 C-154.68882385 183.94886169 -154.4464801 184.94143982 -154.1967926 185.96409607 C-153.65202494 188.99333442 -153.52092002 191.75987163 -153.6811676 194.83128357 C-154.6811676 195.83128357 -154.6811676 195.83128357 -156.9442749 196.15769958 C-160.66881866 195.71349118 -161.85430245 194.26182455 -164.47145081 191.60862732 C-165.39202774 190.68767273 -166.31260468 189.76671814 -167.26107788 188.81785583 C-168.25163902 187.80176235 -169.24192289 186.78539851 -170.23194885 185.76878357 C-171.25503869 184.73636559 -172.27924011 183.70504806 -173.30450439 182.67478943 C-175.99699247 179.96323173 -178.67412764 177.23699551 -181.3483429 174.50743103 C-184.08103133 171.72354967 -186.82797016 168.95380949 -189.57374573 166.18284607 C-194.9569365 160.74606829 -200.32398694 155.29370539 -205.6811676 149.83128357 C-199.97276117 142.937826 -193.74485385 136.55409526 -187.53004456 130.12229919 C-186.9275161 129.4975086 -186.32498764 128.87271801 -185.70420074 128.22899437 C-173.79229427 115.87777299 -161.79203426 103.61329315 -149.76096821 91.37821198 C-142.12059783 83.60500271 -134.50852563 75.80774831 -126.9611969 67.94407654 C-120.35241795 61.05838351 -113.69380989 54.22553425 -106.97356004 47.44852781 C-103.43084954 43.87258108 -99.91545248 40.27765008 -96.45899391 36.61810303 C-79.0551319 18.23406275 -65.29563509 7.88965595 -39.64451176 5.48620081 C-32.52496517 4.81015593 -25.7859123 3.1564956 -18.8686676 1.39378357 C-16.82081224 0.89376616 -14.77269481 0.3948188 -12.72413635 -0.10231018 C-11.88906555 -0.30912415 -11.05399475 -0.51593811 -10.19361877 -0.72901917 C-2.88785272 -2.00758147 -2.88785272 -2.00758147 0 0 Z " fill="#FFFEFE" transform="translate(682.6811676025391,488.16871643066406)"/>
<path d="M0 0 C6.86196503 4.77424454 10.46996826 13.61378269 14 20.9375 C14.8732709 22.71699542 15.74831333 24.49562241 16.625 26.2734375 C17.06328125 27.16256836 17.5015625 28.05169922 17.953125 28.96777344 C19.90261551 32.86822244 21.94837662 36.71507708 24 40.5625 C28.21788905 48.49598738 32.25004365 56.5176139 36.25 64.5625 C40.1671293 72.44065972 44.11221638 80.29725941 48.25 88.0625 C52.97206574 96.92424337 57.45209762 105.90385819 61.90234375 114.90429688 C65.33717663 121.82649537 68.87293514 128.68597056 72.48046875 135.51953125 C72.94078491 136.39275024 73.40110107 137.26596924 73.87536621 138.16564941 C74.99966382 140.29823988 76.1245535 142.43051569 77.25 144.5625 C77.25054477 143.84558644 77.25108953 143.12867289 77.25165081 142.39003468 C77.2666175 124.94666673 77.30905961 107.50358254 77.38209057 90.06036091 C77.41674517 81.62492798 77.44209669 73.18965855 77.44555664 64.75415039 C77.4485959 57.40181779 77.46908095 50.04977633 77.51052457 42.6975562 C77.53186009 38.80444564 77.54445257 34.91174903 77.53615379 31.01857948 C77.52861679 27.35346892 77.54442046 23.6891973 77.57806015 20.02424049 C77.59022344 18.03925352 77.57769893 16.0541633 77.56443787 14.06918335 C77.68962143 4.36683901 77.68962143 4.36683901 80.66621399 1.28630066 C85.51874074 -1.95111481 89.49809895 -1.95719703 95.25 -1.4375 C100.27941176 0.59191176 100.27941176 0.59191176 102.25 2.5625 C102.36105071 5.09515608 102.40670035 7.60104555 102.41062927 10.13471985 C102.41571709 10.93721183 102.42080491 11.7397038 102.42604691 12.56651372 C102.44184075 15.27651839 102.4503146 17.98649628 102.45874023 20.6965332 C102.46827303 22.63105441 102.47816393 24.56557388 102.48838806 26.50009155 C102.51983688 32.87113404 102.54004564 39.24218986 102.55859375 45.61328125 C102.56189107 46.69568455 102.56518839 47.77808784 102.56858563 48.89329123 C102.599367 59.09358688 102.62608634 69.29388536 102.64300442 79.49421406 C102.66492854 92.56169867 102.70692826 105.62877324 102.77644199 118.69609386 C102.82361108 127.87316845 102.84792844 137.05013213 102.8552013 146.22732419 C102.86016805 151.71392988 102.87534588 157.20007398 102.9149456 162.68654823 C102.9517004 167.8469986 102.96025838 173.00672164 102.94693947 178.16727829 C102.9469936 180.06360846 102.95736495 181.95996994 102.9786911 183.85618019 C103.00621755 186.44145081 102.99693589 189.02404024 102.97825623 191.60932922 C102.99505115 192.36351255 103.01184608 193.11769588 103.02914995 193.89473325 C102.99108028 195.99647999 102.99108028 195.99647999 102.25 199.5625 C97.46305432 203.66963579 93.96978785 204.1891945 87.87109375 203.94921875 C83.18852605 203.25834811 80.57308144 200.98845603 77.44140625 197.61328125 C74.25153781 193.17248401 72.01046529 188.34624552 69.625 183.4375 C68.54322915 181.24271877 67.45988011 179.04871474 66.375 176.85546875 C65.84132813 175.77571777 65.30765625 174.6959668 64.7578125 173.58349609 C62.77287458 169.60654955 60.71359985 165.67324187 58.625 161.75 C53.83423539 152.72962328 49.16467165 143.64848277 44.5 134.5625 C37.37777287 120.69272571 30.21969668 106.84227211 23.03564453 93.00439453 C20.02329149 87.1979749 17.01651713 81.38867082 14.01083374 75.57879639 C13.34365058 74.2892272 12.67635553 72.9997159 12.00894165 71.71026611 C11.08380986 69.92287244 10.15908381 68.13526878 9.234375 66.34765625 C8.70553711 65.32551025 8.17669922 64.30336426 7.63183594 63.25024414 C6.4893578 61.02806361 5.36508856 58.79846896 4.25 56.5625 C4.24780016 57.65471422 4.24780016 57.65471422 4.24555588 58.76899338 C4.20851861 76.4790316 4.14954499 94.18887207 4.06609726 111.89875412 C4.0262727 120.46310494 3.99389763 129.02736342 3.97900391 137.59179688 C3.96600503 145.05579243 3.93908575 152.51958509 3.89538693 159.98346639 C3.87273214 163.93629047 3.85709171 167.88886396 3.85811615 171.84175873 C3.85886041 175.56176003 3.84100477 179.28120651 3.80883217 183.0010643 C3.79624048 185.01844179 3.80341539 187.03591222 3.81114197 189.05331421 C3.79027275 190.85377701 3.79027275 190.85377701 3.76898193 192.69061279 C3.76529476 193.73408245 3.76160759 194.77755211 3.75780869 195.85264206 C3.12062894 199.25287257 1.90133971 200.41424266 -0.75 202.5625 C-3.42655801 203.90077901 -5.57434052 203.76828556 -8.5625 203.8125 C-10.11904297 203.85117188 -10.11904297 203.85117188 -11.70703125 203.890625 C-15.14860214 203.51951851 -16.98540073 202.60741005 -19.75 200.5625 C-21.27988788 197.50272424 -20.89799617 194.3035358 -20.89717102 190.94595337 C-20.90084771 190.15077407 -20.9045244 189.35559478 -20.9083125 188.53631914 C-20.91937434 185.85705138 -20.92319737 183.17782236 -20.92700195 180.49853516 C-20.93326462 178.58357112 -20.93991124 176.66860832 -20.94691467 174.75364685 C-20.96434047 169.54085727 -20.97488032 164.32807687 -20.9831202 159.11526537 C-20.98826604 155.86117804 -20.9943419 152.60709358 -21.00063133 149.35300827 C-21.01968613 139.17939317 -21.03391776 129.00578535 -21.0422433 118.83215582 C-21.05202372 107.07376558 -21.07836307 95.31556319 -21.11874419 83.55723917 C-21.14885959 74.47780431 -21.16370774 65.39842343 -21.16702431 56.31893957 C-21.16937966 50.89170659 -21.17840312 45.46467423 -21.20348549 40.03749466 C-21.22669181 34.93377333 -21.23102952 29.83038577 -21.22072411 24.72662544 C-21.22022685 22.85127594 -21.22660289 20.97591042 -21.24028015 19.10061073 C-21.25788402 16.54434058 -21.25095048 13.98928332 -21.23774719 11.43301392 C-21.24871644 10.6872946 -21.25968568 9.94157529 -21.27098733 9.17325842 C-21.22819077 5.75191982 -21.00165939 3.8942354 -18.9070158 1.13309288 C-13.69206828 -2.66407886 -5.762282 -2.82969205 0 0 Z " fill="#FF6C37" transform="translate(1281.75,1038.4375)"/>
<path d="M0 0 C11.03418047 10.84588388 15.15762454 25.18421513 15.29327393 40.31216431 C15.29236755 41.31863007 15.29146118 42.32509583 15.29052734 43.36206055 C15.29724457 44.45133347 15.30396179 45.54060638 15.31088257 46.66288757 C15.3297648 50.23754533 15.33378198 53.81201432 15.3359375 57.38671875 C15.34237266 59.89240086 15.34910155 62.39808224 15.35610962 64.90376282 C15.36805831 70.14801237 15.37187915 75.39221471 15.37060547 80.63647461 C15.36953882 85.99499409 15.38359532 91.35322463 15.41162109 96.71166992 C15.44513121 103.21366406 15.45871111 109.71539959 15.45738602 116.2174778 C15.45973034 118.68078897 15.46848713 121.14410344 15.48405075 123.60736656 C15.5928612 142.60872467 15.04898099 159.64806981 2.33203125 175.015625 C-10.46730149 187.56066636 -30.02573669 192.25819085 -47.3034668 192.2487793 C-62.86945425 192.01655087 -78.82422431 186.89047625 -91 177 C-106.70969633 160.27158616 -106.31593182 138.80754408 -106.30078125 117.38671875 C-106.30467575 115.08567733 -106.30901196 112.78463661 -106.31376648 110.4835968 C-106.32119992 105.67499454 -106.32095848 100.86646574 -106.31567383 96.05786133 C-106.3098851 89.93216479 -106.32681019 83.8067712 -106.3500185 77.68112469 C-106.36483613 72.9324013 -106.36561663 68.18374951 -106.36250877 63.4350071 C-106.36301802 61.17824517 -106.36818018 58.92147881 -106.37832069 56.66473961 C-106.45621442 36.90706064 -106.15922988 16.31576926 -91.50390625 1.25 C-66.62124122 -21.10946187 -25.80509822 -20.32647736 0 0 Z M-73 17 C-79.70744131 25.60955153 -81.45491315 35.08213586 -81.40405273 45.76708984 C-81.41091599 46.79290665 -81.41777924 47.81872345 -81.42485046 48.87562561 C-81.44302221 52.23754052 -81.43929437 55.59898443 -81.43359375 58.9609375 C-81.43816036 61.31686554 -81.44346736 63.67279225 -81.44947815 66.02871704 C-81.45839056 70.95604885 -81.45600759 75.88321842 -81.44604492 80.81054688 C-81.43456179 87.10035726 -81.45476696 93.38960566 -81.48396206 99.67934227 C-81.50237795 104.54205843 -81.50202076 109.40464127 -81.49632454 114.26738358 C-81.49617196 116.5852398 -81.50216309 118.90310542 -81.51461601 121.22092819 C-81.90554022 142.09495384 -81.90554022 142.09495384 -72.671875 160.3203125 C-64.99041148 168.03767071 -54.37090951 169.98969887 -43.75 170.375 C-34.66718305 170.0188111 -26.1023079 166.65486 -19 161 C-11.03032432 151.78873274 -8.85311454 141.98189061 -8.83886719 130.13598633 C-8.83390228 129.14670135 -8.82893738 128.15741638 -8.82382202 127.13815308 C-8.80923301 123.86943868 -8.80240326 120.60077284 -8.796875 117.33203125 C-8.79112019 115.05384826 -8.7853625 112.77566528 -8.77960205 110.4974823 C-8.76910087 105.72024307 -8.76325264 100.94302063 -8.75976562 96.16577148 C-8.75428749 90.06069975 -8.73027008 83.95585178 -8.70179367 77.85085011 C-8.68311786 73.14350244 -8.67795902 68.4362081 -8.67642975 63.72882652 C-8.67341309 61.47909003 -8.66541808 59.22935426 -8.65224457 56.97965431 C-8.63508335 53.8232614 -8.63708916 50.66740768 -8.64355469 47.51098633 C-8.6343399 46.59166824 -8.62512512 45.67235016 -8.6156311 44.72517395 C-8.680686 34.52531833 -11.60290466 25.04360511 -18 17 C-26.30875607 9.245161 -36.0931317 6.41001357 -47.3046875 6.77734375 C-56.95927 7.57489622 -65.89742441 10.08938591 -73 17 Z " fill="#FF6C37" transform="translate(309,1052)"/>
<path d="M0 0 C2.27989047 2.02514045 2.85171537 3.70638235 3.81416321 6.58856201 C4.14840302 7.57409058 4.48264282 8.55961914 4.82701111 9.57501221 C5.15043488 10.57496216 5.47385864 11.57491211 5.80708313 12.60516357 C6.09964996 13.49328735 6.3922168 14.38141113 6.69364929 15.29644775 C7.58666809 18.04500881 8.45565782 20.80020547 9.31880188 23.55828857 C9.80652069 25.10697632 9.80652069 25.10697632 10.30409241 26.68695068 C11.37024414 30.07552715 12.43257308 33.46528698 13.49458313 36.85516357 C14.25177134 39.26631354 15.00901525 41.67744602 15.76631165 44.08856201 C22.74606309 66.33251729 29.62699214 88.60681627 36.49673462 110.88493347 C39.24581527 119.79587966 42.0064565 128.70320018 44.77192688 137.60906982 C44.97832983 138.27380436 45.18473278 138.93853889 45.39739037 139.6234169 C47.21794221 145.4863354 49.03913319 151.34905506 50.86125183 157.21148682 C51.96596206 160.76577445 53.07013495 164.32022868 54.17427063 167.87469482 C54.4985051 168.91702774 54.82273956 169.95936066 55.15679932 171.03327942 C56.04386577 173.88946668 56.92674426 176.74689622 57.80708313 179.60516357 C58.0962561 180.53992523 58.38542908 181.47468689 58.68336487 182.43777466 C58.95509521 183.32663361 59.22682556 184.21549255 59.50679016 185.13128662 C59.74737152 185.91513229 59.98795288 186.69897797 60.23582458 187.50657654 C61.39942661 191.78120867 61.47671343 194.40540928 59.30708313 198.29266357 C55.46579085 201.84585893 51.6628536 203.53122777 46.39302063 203.66766357 C42.03254803 203.32677972 39.72415563 203.00539452 36.80708313 199.60516357 C35.99075317 197.74603271 35.99075317 197.74603271 35.36494446 195.64031982 C35.12492203 194.84939941 34.8848996 194.058479 34.63760376 193.24359131 C34.39060226 192.39353516 34.14360077 191.543479 33.88911438 190.66766357 C33.62700668 189.79118164 33.36489899 188.91469971 33.09484863 188.01165771 C32.54329239 186.16038499 31.99638836 184.30772074 31.45381165 182.45379639 C30.62187121 179.61297666 29.77532083 176.7768345 28.92622375 173.94110107 C28.392157 172.14187804 27.85892538 170.34240684 27.32661438 168.54266357 C27.07354019 167.69260742 26.820466 166.84255127 26.5597229 165.96673584 C26.32915695 165.17581543 26.098591 164.38489502 25.86103821 163.57000732 C25.65690811 162.87512207 25.45277802 162.18023682 25.24246216 161.46429443 C24.80708313 159.60516357 24.80708313 159.60516357 24.80708313 156.60516357 C0.71708313 156.60516357 -23.37291687 156.60516357 -48.19291687 156.60516357 C-48.85291687 159.90516357 -49.51291687 163.20516357 -50.19291687 166.60516357 C-51.35228149 171.04929928 -52.65166915 175.4481131 -53.96928406 179.84735107 C-54.5701339 181.86259949 -55.15510944 183.88204879 -55.73979187 185.90203857 C-56.12685234 187.20440771 -56.51484094 188.50650145 -56.90385437 189.80828857 C-57.24722839 190.97005615 -57.59060242 192.13182373 -57.94438171 193.32879639 C-59.47747454 197.35189098 -61.19391934 201.60566481 -65.19291687 203.60516357 C-71.32161237 204.09545921 -76.86460282 203.0547405 -81.86479187 199.37469482 C-83.84350871 196.73834562 -83.96548639 194.91970958 -84.19291687 191.60516357 C-83.52916725 188.17938645 -82.45613592 184.90573451 -81.38041687 181.58953857 C-80.90669395 180.07480202 -80.90669395 180.07480202 -80.42340088 178.52946472 C-79.35855366 175.13413327 -78.27550506 171.74487615 -77.19291687 168.35516357 C-76.42714607 165.92370876 -75.66277809 163.49181176 -74.89970398 161.05950928 C-73.45258545 156.45066289 -72.00173639 151.84304903 -70.54545116 147.23709202 C-66.29625598 133.7948077 -62.12586661 120.32810963 -57.94988918 106.8629427 C-56.2434402 101.36179711 -54.53222049 95.86215107 -52.81864929 90.36322021 C-48.34705206 76.01012524 -43.89074524 61.65308692 -39.5071125 47.27284813 C-38.26401689 43.19864353 -37.01539374 39.12612874 -35.76679134 35.05360889 C-34.79540252 31.88289947 -33.8297197 28.71061084 -32.87141418 25.53591919 C-31.82829871 22.0806373 -30.771857 18.62969688 -29.71244812 15.17938232 C-29.26243439 13.66773499 -29.26243439 13.66773499 -28.80332947 12.12554932 C-27.28262774 7.22046645 -25.93680229 3.30485393 -22.19291687 -0.39483643 C-15.54607419 -3.71825777 -6.47620666 -3.85575077 0 0 Z M-12.19291687 34.60516357 C-15.07350805 44.21215359 -17.95158983 53.81989174 -20.82671452 63.42851925 C-22.1627029 67.89310619 -23.49946443 72.35745817 -24.83818054 76.82122803 C-26.1369652 81.15196652 -27.43347438 85.4833809 -28.72859001 89.81521797 C-29.21604994 91.44431999 -29.70424694 93.0732017 -30.19330025 94.7018261 C-34.37296069 108.62387017 -38.27228606 122.60291066 -42.19291687 136.60516357 C-22.06291687 136.60516357 -1.93291687 136.60516357 18.80708313 136.60516357 C15.79554356 124.37530364 15.79554356 124.37530364 12.39692688 112.29388428 C12.18818939 111.60041901 11.9794519 110.90695374 11.76438904 110.19247437 C11.09471192 107.97086058 10.4197551 105.75089411 9.74458313 103.53094482 C9.26631382 101.94837547 8.7883751 100.36570618 8.31074524 98.78294373 C7.06628437 94.66235131 5.81725157 90.54315917 4.56721497 86.42425537 C3.30306757 82.25563443 2.04364557 78.08558644 0.78364563 73.91571045 C-3.18045263 60.80349277 -7.15166432 47.6938499 -11.19291687 34.60516357 C-11.52291687 34.60516357 -11.85291687 34.60516357 -12.19291687 34.60516357 Z " fill="#FF6C37" transform="translate(1120.1929168701172,1039.3948364257813)"/>
<path d="M0 0 C0.52207031 0.38671875 1.04414062 0.7734375 1.58203125 1.171875 C-1.09139539 2.95415943 -2.55549777 3.56164529 -5.54296875 4.359375 C-17.52215607 8.34734217 -26.45085598 19.93402749 -35.12719727 28.65405273 C-36.7044295 30.23184976 -38.28210355 31.80920524 -39.86018372 33.38615417 C-44.12433435 37.64973297 -48.38230715 41.91943289 -52.63916898 46.19028735 C-57.09585337 50.65950714 -61.55823383 55.12303228 -66.02000427 59.58717346 C-73.50199928 67.07467062 -80.98049756 74.56564602 -88.45629883 82.05932617 C-96.15283372 89.77424857 -103.85148834 97.4870456 -111.55297852 105.19702148 C-112.0285333 105.67310171 -112.50408808 106.14918194 -112.99405361 106.63968884 C-115.38003478 109.02828029 -117.76605742 111.4168303 -120.15210068 113.80535972 C-139.91382273 133.58777984 -159.66820986 153.37751201 -179.41796875 173.171875 C-182.34400246 171.76560422 -184.4255352 170.41014817 -186.71777344 168.09912109 C-187.33811462 167.47862885 -187.95845581 166.8581366 -188.59759521 166.21884155 C-189.25503723 165.55107697 -189.91247925 164.88331238 -190.58984375 164.1953125 C-191.27226135 163.510065 -191.95467896 162.8248175 -192.65777588 162.11880493 C-194.83258473 159.93281655 -197.00032947 157.73997071 -199.16796875 155.546875 C-200.64276865 154.06204245 -202.11802381 152.57766194 -203.59375 151.09375 C-207.20712323 147.4583459 -210.81417728 143.81677676 -214.41796875 140.171875 C-212.6248788 136.31176502 -210.33773727 133.85749665 -207.29296875 130.859375 C-206.38289062 129.95574219 -205.4728125 129.05210937 -204.53515625 128.12109375 C-202.3763469 126.03843658 -200.1466014 124.07362381 -197.86328125 122.12890625 C-191.7325415 116.8090532 -186.1200333 110.94162941 -180.41796875 105.171875 C-167.29266666 91.89076095 -167.29266666 91.89076095 -161.0234375 86.5546875 C-158.87289306 84.70239375 -156.89350956 82.70820168 -154.91796875 80.671875 C-151.65411962 77.36923649 -148.30382685 74.27136852 -144.78125 71.25 C-141.60092748 68.45341888 -138.51322423 65.56194716 -135.41796875 62.671875 C-130.49162506 58.08070058 -125.53075278 53.55557972 -120.41796875 49.171875 C-119.3838465 48.27244355 -118.35002022 47.37267176 -117.31640625 46.47265625 C-109.75560162 39.91240487 -102.04006447 33.60386379 -94.11621094 27.48779297 C-92.461708 26.20576726 -90.81771082 24.91135384 -89.17578125 23.61328125 C-64.42272787 4.14123208 -30.56809175 -21.62786177 0 0 Z " fill="#FFFEFD" transform="translate(834.41796875,273.828125)"/>
<path d="M0 0 C1.31922455 -0.00960754 2.6384491 -0.01921509 3.99765015 -0.02911377 C5.44325588 -0.03396563 6.88886364 -0.0382435 8.33447266 -0.04199219 C9.06570972 -0.04481956 9.79694679 -0.04764694 10.55034256 -0.05056 C14.42972424 -0.06555868 18.30906875 -0.07478027 22.18847656 -0.07910156 C26.16345916 -0.08454785 30.13809251 -0.10849129 34.11296654 -0.13707352 C37.19484375 -0.15587798 40.27664042 -0.16091513 43.3585701 -0.16243744 C44.82153837 -0.16543103 46.28450637 -0.17334555 47.74741745 -0.18662262 C66.22108301 -0.34214075 82.88871567 3.55191485 96.50634766 16.79003906 C110.86535493 32.8710675 110.55802458 54.83923259 109.62353516 75.16113281 C109.15536006 79.98236099 108.09979407 84.54782371 106.62353516 89.16113281 C106.34509766 90.06476563 106.06666016 90.96839844 105.77978516 91.89941406 C101.26899742 104.7123844 91.92498529 112.94006214 80.01977539 118.75390625 C63.94883895 126.26428447 47.04754772 125.29530188 29.74853516 124.72363281 C26.51533491 124.62214409 23.28207973 124.52244449 20.04882812 124.42260742 C18.44253453 124.37278508 16.83624174 124.32293676 15.22994995 124.27305603 C14.03983307 124.23612137 12.84971619 124.19918671 11.62353516 124.16113281 C11.6324176 125.10438416 11.64130005 126.0476355 11.65045166 127.01947021 C11.73152207 135.90670742 11.79149302 144.79386965 11.83078384 153.68139267 C11.8516628 158.25064245 11.87998587 162.81959384 11.92529297 167.38867188 C11.96874004 171.79774154 11.99266994 176.20652412 12.00304413 180.61579132 C12.01043758 182.29834768 12.02487532 183.98088824 12.04645538 185.66332245 C12.07547519 188.01938382 12.0794919 190.37425754 12.07763672 192.73046875 C12.09920837 193.77488129 12.09920837 193.77488129 12.12121582 194.84039307 C12.09279928 198.1735597 11.83517278 199.88499556 9.78265381 202.56304932 C5.20922144 205.94810033 0.08410547 205.65292331 -5.37646484 205.16113281 C-10.9525518 203.0089589 -10.9525518 203.0089589 -12.37646484 200.16113281 C-12.4785628 197.59856453 -12.51984917 195.06291514 -12.51690674 192.49989319 C-12.51987786 191.69992477 -12.52284898 190.89995636 -12.52591014 190.07574648 C-12.53462021 187.3803212 -12.53610732 184.68494021 -12.53759766 181.98950195 C-12.54222413 180.0630636 -12.54724856 178.13662617 -12.55264282 176.21018982 C-12.56578371 170.96647275 -12.57221486 165.72276849 -12.57665348 160.47903752 C-12.57958098 157.20619677 -12.58368513 153.93335954 -12.58815765 150.66052055 C-12.60183592 140.42977415 -12.61150144 130.19903577 -12.61535954 119.96828085 C-12.61984378 108.1408645 -12.63740724 96.31356353 -12.66636014 84.48618227 C-12.68794062 75.35495803 -12.69806185 66.22376633 -12.69940066 57.09251684 C-12.70045114 51.63349729 -12.70641047 46.17458614 -12.72422028 40.71559334 C-12.74063864 35.5831883 -12.74288696 30.45097387 -12.73408127 25.31855202 C-12.73330758 23.43150067 -12.73769692 21.54443932 -12.74753952 19.65741348 C-12.76015971 17.08783063 -12.75443692 14.51893312 -12.74395752 11.94935608 C-12.75201392 11.19683298 -12.76007033 10.44430987 -12.76837087 9.66898304 C-12.72032498 4.65659772 -12.72032498 4.65659772 -11.04099655 2.23686886 C-7.44492839 -0.08716025 -4.15859612 0.02443329 0 0 Z M11.62353516 22.16113281 C11.62353516 49.22113281 11.62353516 76.28113281 11.62353516 104.16113281 C18.98666016 104.24363281 26.34978516 104.32613281 33.93603516 104.41113281 C36.23741455 104.44754883 38.53879395 104.48396484 40.90991211 104.52148438 C42.76887077 104.53318539 44.62783982 104.54337385 46.48681641 104.55175781 C47.42376343 104.57222168 48.36071045 104.59268555 49.3260498 104.61376953 C58.69895463 104.61862785 67.50070366 101.96904662 74.84228516 95.98144531 C82.57545178 88.0786917 85.94542451 77.33993659 86.09179688 66.47436523 C86.08164551 65.60787354 86.07149414 64.74138184 86.06103516 63.84863281 C86.05346191 62.93509033 86.04588867 62.02154785 86.03808594 61.08032227 C85.72502793 48.15011266 82.1253273 38.51844069 72.81103516 29.41113281 C63.85846775 23.09167347 55.35181989 22.0023844 44.63134766 22.06347656 C43.37245728 22.06498718 43.37245728 22.06498718 42.08813477 22.06652832 C38.97492085 22.07173154 35.86172653 22.08569267 32.74853516 22.09863281 C22.29166016 22.12957031 22.29166016 22.12957031 11.62353516 22.16113281 Z " fill="#FF6C37" transform="translate(12.37646484375,1036.8388671875)"/>
<path d="M0 0 C15.86909649 -0.33020152 37.52701699 1.14637151 50.12890625 12.12109375 C52.9999325 15.34012318 53.13562013 16.69811926 53.06640625 21.05859375 C52.35898334 25.12627547 50.788902 27.92909886 48.12890625 31.12109375 C44.97458587 33.10714732 44.23110627 33.13449703 40.31640625 32.62109375 C36.67452453 31.71360847 33.30271772 30.39576426 29.85083008 28.92993164 C15.10868776 22.68511416 -0.57763373 20.83945815 -15.93359375 26.37109375 C-24.16375193 29.91127209 -28.46299986 33.76689436 -31.87109375 42.12109375 C-34.3403906 49.52898431 -33.04775484 57.12385378 -29.87109375 64.12109375 C-28.3078101 66.45988251 -28.3078101 66.45988251 -26.87109375 68.12109375 C-26.87109375 68.78109375 -26.87109375 69.44109375 -26.87109375 70.12109375 C-26.31421875 70.38277344 -25.75734375 70.64445312 -25.18359375 70.9140625 C-21.71327833 72.72542646 -18.54559895 74.97604068 -15.30859375 77.171875 C-8.30540765 81.14299985 -0.65422411 83.81620681 6.8203125 86.76953125 C7.95017578 87.218125 9.08003906 87.66671875 10.24414062 88.12890625 C12.54302996 89.04064706 14.84514379 89.94429896 17.15039062 90.83984375 C33.99895686 97.57542134 46.11625308 106.6856033 53.64453125 123.5078125 C60.84305035 141.64890804 60.1908058 162.53319987 52.44140625 180.49609375 C44.84860019 193.87952234 31.67851118 202.37542497 17.23120117 206.6875 C-4.88350758 212.37682441 -28.59484539 208.24578877 -48.14990234 197.14697266 C-54.62140048 193.28977618 -61.21167628 188.78400094 -63.4296875 181.21484375 C-64.3819054 176.11017045 -63.43382745 172.71634038 -60.87109375 168.12109375 C-58.88540854 165.60589249 -57.48841063 164.38804159 -54.55859375 163.12109375 C-50.52677833 163.12109375 -47.95592023 164.70844736 -44.87109375 167.12109375 C-43.24596021 168.74622729 -41.64349444 170.39419961 -40.05859375 172.05859375 C-30.92360938 181.42780849 -19.41056389 185.07232129 -6.47509766 185.47485352 C5.04405319 185.58461979 14.941476 183.43935716 24.12890625 176.12109375 C32.23066151 166.78064037 32.9154095 157.04952778 32.31103516 145.22070312 C31.51195984 136.00884288 25.93399796 129.02860943 19.12890625 123.12109375 C11.42158822 117.48688664 3.35796244 113.96892917 -5.55859375 110.68359375 C-45.9089281 95.29040473 -45.9089281 95.29040473 -55.02734375 75.32421875 C-60.80112183 60.24824266 -60.03582958 45.18223333 -54.87109375 30.12109375 C-49.21593261 17.48900304 -39.56614045 10.04511543 -26.87109375 5.12109375 C-18.08622679 2.09773045 -9.26383597 0.39071961 0 0 Z " fill="#FF6C37" transform="translate(469.87109375,1035.87890625)"/>
<path d="M0 0 C5.53859032 3.14564967 10.49244603 8.53103487 12.8125 14.5 C13.68739301 21.46230647 13.79463591 27.84897386 9.48046875 33.61328125 C3.76424529 40.07917336 -2.43592876 45.59874301 -9.16796875 50.984375 C-12.63081144 53.86933061 -15.90876676 56.90965363 -19.1875 60 C-24.09686251 64.62319329 -29.13230846 68.96603023 -34.3984375 73.18359375 C-38.82484163 76.85986497 -42.99551112 80.80426372 -47.203125 84.7265625 C-51.82103761 89.03105514 -56.59511607 93.14312405 -61.3984375 97.23828125 C-67.94405431 102.82318933 -74.40789507 108.46553961 -80.75390625 114.27734375 C-85.224565 118.36049757 -89.79891889 122.31842379 -94.40625 126.24609375 C-95.60430775 127.2680638 -96.8022201 128.29020431 -98 129.3125 C-98.60602051 129.82965576 -99.21204102 130.34681152 -99.83642578 130.87963867 C-103.57782262 134.0847653 -107.24848478 137.35193729 -110.875 140.6875 C-114.32765696 143.85830742 -117.84280966 146.88035031 -121.5 149.8125 C-126.55586567 153.88748445 -131.26937223 158.25231994 -135.99316406 162.70019531 C-140.29584918 166.72969408 -144.76320445 170.47306356 -149.3671875 174.15625 C-154.8443606 178.7079174 -159.99892073 183.62488021 -165.1875 188.5 C-170.43924926 184.11557474 -175.31972473 179.49157907 -180.125 174.625 C-181.15077148 173.59246094 -181.15077148 173.59246094 -182.19726562 172.5390625 C-183.86301593 170.86166359 -185.52590361 169.18151054 -187.1875 167.5 C-183.17792056 162.69835046 -178.99341211 158.15576307 -174.57293701 153.73153687 C-173.9337484 153.087966 -173.29455979 152.44439513 -172.63600183 151.78132212 C-170.51066305 149.64271406 -168.38183516 147.50761571 -166.25292969 145.37255859 C-164.72131595 143.83303493 -163.18988245 142.29333194 -161.65861511 140.75346375 C-156.64595976 135.71470587 -151.62795452 130.68129394 -146.609375 125.6484375 C-144.87792513 123.91162436 -143.14648239 122.17480411 -141.41504669 120.43797684 C-134.21291836 113.21424302 -127.0093565 105.99194381 -119.80205917 98.77336693 C-109.48968396 88.44474231 -99.1858926 78.10772171 -88.89388919 67.7587961 C-81.64554235 60.47173482 -74.38762283 53.19429647 -67.1225369 45.92392409 C-62.78784563 41.58558347 -58.45742002 37.24317811 -54.13716888 32.89045334 C-50.07363227 28.79680787 -45.99833885 24.7152415 -41.91384315 20.64251137 C-40.42041843 19.14930709 -38.93123667 17.65184473 -37.44674492 16.14975929 C-15.07168698 -6.47588863 -15.07168698 -6.47588863 0 0 Z " fill="#FFFDFD" transform="translate(848.1875,286.5)"/>
<path d="M0 0 C1.69539261 1.29661075 3.37283748 2.61873331 5 4 C3.40967403 7.97210288 0.64085081 10.5746064 -2.38354492 13.48364258 C-3.20569237 14.28695259 -3.20569237 14.28695259 -4.04444885 15.10649109 C-5.23196432 16.26635758 -6.42156169 17.42409554 -7.61299706 18.57993507 C-9.49740862 20.41099149 -11.3728667 22.25076203 -13.24568176 24.09367371 C-18.56962758 29.33217901 -23.89843122 34.56534933 -29.25952148 39.76586914 C-32.54045909 42.94980382 -35.80157492 46.15290299 -39.0505619 49.36942101 C-40.29172601 50.59078092 -41.54016922 51.80478913 -42.7958889 53.01117897 C-44.55098462 54.69881553 -46.27973519 56.40976644 -48.00463867 58.12817383 C-48.52873322 58.62036407 -49.05282776 59.11255432 -49.59280396 59.61965942 C-52.28712695 62.36076239 -52.99487587 63.68551634 -53.05828857 67.5773468 C-51.91047178 71.28954679 -50.80649441 72.92885499 -48.06274414 75.63427734 C-47.22840347 76.47139252 -46.39406281 77.30850769 -45.53443909 78.17098999 C-44.62717575 79.05042267 -43.71991241 79.92985535 -42.78515625 80.8359375 C-41.85908066 81.75589508 -40.93300507 82.67585266 -39.97886658 83.62368774 C-37.52523519 86.06014912 -35.05369636 88.47764223 -32.57830811 90.89196777 C-30.55685056 92.86971593 -28.54856023 94.86054515 -26.54081059 96.85219383 C-22.39642395 100.96266672 -18.24192193 105.06299056 -14.06665039 109.14208984 C-13.32798233 109.86488129 -12.58931427 110.58767273 -11.82826233 111.33236694 C-10.09354752 113.06670555 -10.09354752 113.06670555 -8 114 C-8 114.66 -8 115.32 -8 116 C-10.41605225 116.81436587 -12.83279998 117.62655397 -15.25 118.4375 C-16.27287109 118.78264648 -16.27287109 118.78264648 -17.31640625 119.13476562 C-34.08932171 124.75287808 -50.10194411 122.65618167 -66.08203125 115.6484375 C-73.03197742 112.16860431 -78.51958264 107.4621493 -84 102 C-84.7115625 101.31164062 -85.423125 100.62328125 -86.15625 99.9140625 C-97.20960502 88.47809134 -103.04622171 72.18645113 -103.4375 56.4375 C-102.75797043 36.62818331 -95.07035454 19.39425561 -80.62890625 5.76171875 C-71.93636377 -1.62346534 -62.01047251 -6.22743536 -51 -9 C-50.38439209 -9.17200928 -49.76878418 -9.34401855 -49.13452148 -9.52124023 C-32.19550291 -13.32055573 -14.5831012 -8.56204805 0 0 Z " fill="#FFFEFD" transform="translate(935,174)"/>
<path d="M0 0 C1.59696646 3.98739424 0.33032702 7.29814453 -0.9375 11.1875 C-1.16493896 11.89092529 -1.39237793 12.59435059 -1.62670898 13.3190918 C-9.11724474 35.61782153 -22.42659481 54.76613857 -37 73 C-37.79148437 73.99386719 -38.58296875 74.98773438 -39.3984375 76.01171875 C-41.57158177 78.69872926 -43.77610659 81.35485715 -46 84 C-46.65403809 84.78141357 -46.65403809 84.78141357 -47.32128906 85.57861328 C-54.62726787 94.28841637 -62.24944819 102.65422933 -70.05786133 110.91430664 C-71.42663381 112.384253 -72.77923664 113.8693384 -74.11987305 115.36499023 C-82.98237857 125.21681508 -92.38308175 134.53566901 -101.76196289 143.89233398 C-104.20923477 146.33387742 -106.65194304 148.77992991 -109.09337139 151.22731495 C-111.45954492 153.59800018 -113.82955247 155.96483723 -116.19921875 158.33203125 C-117.06399338 159.19883011 -117.92876801 160.06562897 -118.81974792 160.95869446 C-123.19527046 165.31749461 -127.63004937 169.53660362 -132.32600403 173.54962158 C-134.66072926 175.572467 -136.83340051 177.7370474 -139 179.9375 C-139.763125 180.70964844 -140.52625 181.48179687 -141.3125 182.27734375 C-142.1478125 183.13005859 -142.1478125 183.13005859 -143 184 C-149.92810724 178.33425951 -156.14204142 171.96966361 -162.4375 165.625 C-163.56161467 164.49586045 -164.68596174 163.36695222 -165.81054688 162.23828125 C-168.54305235 159.49484812 -171.27239009 156.74830015 -174 154 C-165.33181286 145.29688273 -156.3793015 136.99708439 -146.7890625 129.31640625 C-142.36265837 125.64013503 -138.19198888 121.69573628 -133.984375 117.7734375 C-129.36646239 113.46894486 -124.59238393 109.35687595 -119.7890625 105.26171875 C-118.58837959 104.23716908 -117.38786379 103.21242354 -116.1875 102.1875 C-115.58131836 101.67018311 -114.97513672 101.15286621 -114.35058594 100.61987305 C-110.6092918 97.41497771 -106.93884617 94.14790722 -103.3125 90.8125 C-99.85984304 87.64169258 -96.34469034 84.61964969 -92.6875 81.6875 C-87.63163433 77.61251555 -82.91812777 73.24768006 -78.19433594 68.79980469 C-73.88154586 64.76084255 -69.40179489 61.01067423 -64.7890625 57.31640625 C-60.36265837 53.64013503 -56.19198888 49.69573628 -51.984375 45.7734375 C-47.36646239 41.46894486 -42.59238393 37.35687595 -37.7890625 33.26171875 C-36.58837959 32.23716908 -35.38786379 31.21242354 -34.1875 30.1875 C-33.58131836 29.67018311 -32.97513672 29.15286621 -32.35058594 28.61987305 C-28.6092918 25.41497771 -24.93884617 22.14790722 -21.3125 18.8125 C-16.8553987 14.71749703 -12.24389766 10.87313053 -7.5078125 7.10546875 C-4.8479043 4.87230594 -2.42202032 2.48712839 0 0 Z " fill="#FFFDFD" transform="translate(862,328)"/>
<path d="M0 0 C1.174487 -0.00730133 2.348974 -0.01460266 3.55905151 -0.02212524 C6.77227842 -0.03554366 9.98398827 -0.02213761 13.19709134 0.00453901 C16.56246136 0.02721357 19.92777315 0.01894966 23.29319763 0.01504517 C28.94322646 0.01328084 34.59277462 0.03540786 40.24267578 0.07226562 C46.77248646 0.11461997 53.3015937 0.12161579 59.83151394 0.10914171 C66.11763317 0.09774878 72.40350499 0.10905072 78.68958855 0.1314888 C81.36298135 0.14077152 84.03622262 0.14253265 86.70962715 0.13831711 C90.44224749 0.137577 94.17379112 0.16277941 97.90625 0.1953125 C99.57005455 0.18788025 99.57005455 0.18788025 101.26747131 0.18029785 C102.79204956 0.20155228 102.79204956 0.20155228 104.34742737 0.22323608 C105.67059888 0.22939469 105.67059888 0.22939469 107.02050114 0.23567772 C110.15955097 0.91037057 111.35988316 2.31561328 113.38842773 4.74462891 C115.22925872 8.42629089 114.75571929 12.71708697 114.38842773 16.74462891 C112.36211194 21.2577868 112.36211194 21.2577868 109.38842773 22.74462891 C107.84614918 22.83453982 106.30001878 22.86219852 104.75512695 22.8581543 C103.79428192 22.85807877 102.83343689 22.85800323 101.84347534 22.85792542 C100.80385651 22.85276413 99.76423767 22.84760284 98.69311523 22.84228516 C97.63053497 22.84087021 96.56795471 22.83945526 95.47317505 22.83799744 C92.06989764 22.83238724 88.66668535 22.819833 85.26342773 22.80712891 C82.96004327 22.80211522 80.65665777 22.79755209 78.35327148 22.79345703 C72.69830125 22.7824145 67.04336914 22.76566642 61.38842773 22.74462891 C61.39211491 23.65830608 61.39580208 24.57198326 61.39960098 25.51334763 C61.48788031 47.72964049 61.55410241 69.94590319 61.59567642 92.16233444 C61.61631491 102.90597578 61.64446011 113.64950014 61.69018555 124.39306641 C61.7300139 133.75551468 61.75585118 143.11787827 61.76478171 152.48040891 C61.77000324 157.43932404 61.78230244 162.39799684 61.81134796 167.35683441 C61.83845385 172.02222716 61.84688252 176.68727723 61.84085846 181.35274124 C61.84196086 183.06684098 61.84994351 184.78095192 61.86524963 186.49498367 C61.88510269 188.83242688 61.88038499 191.16857025 61.8694458 193.50604248 C61.87313297 194.81498852 61.87682014 196.12393456 61.88061905 197.47254562 C61.30438119 201.30336957 60.45467287 202.45629928 57.38842773 204.74462891 C52.11964491 206.50088985 46.47057761 206.6989476 41.38842773 204.36962891 C39.38842773 202.74462891 39.38842773 202.74462891 37.38842773 200.74462891 C37.14233208 197.71864128 37.14233208 197.71864128 37.1479187 193.74655151 C37.14620985 193.01797034 37.144501 192.28938917 37.14274037 191.53872979 C37.13943278 189.08496619 37.15046984 186.63147299 37.16137695 184.17773438 C37.16194079 182.42376716 37.16162504 180.66979946 37.16049194 178.91583252 C37.15991637 174.14333484 37.17170371 169.37093699 37.18563986 164.59846258 C37.1981132 159.6149734 37.19931503 154.63148212 37.20169067 149.64797974 C37.20791546 140.2061273 37.22433974 130.76432099 37.24438965 121.3224889 C37.26671765 110.57537413 37.27773427 99.8282572 37.28778052 89.08112502 C37.30870513 66.96893387 37.34390044 44.85678429 37.38842773 22.74462891 C36.78343445 22.75351135 36.17844116 22.7623938 35.55511475 22.77154541 C29.26120446 22.86000484 22.9674706 22.92035732 16.6730957 22.96435547 C14.32373889 22.98447705 11.97443219 23.01177742 9.62524414 23.04638672 C6.24930459 23.0948793 2.87402687 23.11759248 -0.50219727 23.13525391 C-1.55336731 23.15589905 -2.60453735 23.17654419 -3.68756104 23.19781494 C-10.95906114 23.20005504 -10.95906114 23.20005504 -14.2434082 20.90771484 C-16.21533266 17.79007553 -16.82372716 15.0585642 -16.98657227 11.43212891 C-17.03555664 10.69349609 -17.08454102 9.95486328 -17.13500977 9.19384766 C-15.10231553 -0.31734104 -8.1881829 -0.11305911 0 0 Z " fill="#FF6C37" transform="translate(613.611572265625,1036.25537109375)"/>
<path d="M0 0 C10.92848252 11.25309091 15.80972102 28.49348615 16.375 43.6875 C16.03879005 61.78350595 9.02393821 78.378864 -4 91 C-4.72960937 91.72703125 -5.45921875 92.4540625 -6.2109375 93.203125 C-10.09343187 96.8691234 -10.09343187 96.8691234 -12 98 C-15.61301676 97.60196043 -17.00837398 96.21944641 -19.24243164 93.45117188 C-22.98041224 88.98286123 -26.98863566 84.88356476 -31.12109375 80.78125 C-32.23823509 79.66623108 -32.23823509 79.66623108 -33.37794495 78.52868652 C-35.72876745 76.18340699 -38.08306431 73.84165164 -40.4375 71.5 C-42.04385199 69.89867039 -43.64997397 68.29711002 -45.25585938 66.6953125 C-49.16791985 62.79420527 -53.08282952 58.8959758 -57 55 C-51.69909787 48.58264745 -45.8888495 42.70732783 -40.01953125 36.81640625 C-39.49921515 36.29326277 -38.97889904 35.77011929 -38.44281578 35.23112297 C-35.69934314 32.47276587 -32.95309217 29.7172127 -30.2043457 26.96411133 C-27.36621044 24.12044902 -24.53750211 21.26759431 -21.71078968 18.41258335 C-19.53082821 16.21404778 -17.34423591 14.02220081 -15.15573692 11.83216667 C-14.10903612 10.78243642 -13.06484029 9.73020227 -12.0232029 8.67544746 C-10.57295399 7.20821773 -9.11362113 5.75066366 -7.65161133 4.29516602 C-6.82365555 3.46356461 -5.99569977 2.6319632 -5.14265442 1.77516174 C-3 0 -3 0 0 0 Z " fill="#FFFDFC" transform="translate(949,186)"/>
<path d="M0 0 C7.8770015 6.75171557 7.8770015 6.75171557 11.19116211 10.06176758 C11.93140121 10.79885452 12.67164032 11.53594147 13.43431091 12.29536438 C14.20751175 13.07058945 14.98071259 13.84581451 15.77734375 14.64453125 C16.58869278 15.45492355 17.40004181 16.26531586 18.23597717 17.1002655 C19.93727402 18.80088556 21.6373236 20.50275421 23.33618164 22.20581055 C25.95019665 24.82522287 28.56955855 27.43920411 31.18945312 30.05273438 C32.84407111 31.70801241 34.49837927 33.36360022 36.15234375 35.01953125 C36.9397142 35.80487747 37.72708466 36.59022369 38.53831482 37.39936829 C39.61557579 38.4813575 39.61557579 38.4813575 40.71459961 39.58520508 C41.3507872 40.22218826 41.98697479 40.85917145 42.6424408 41.51545715 C44 43 44 43 44 44 C24.72760076 43.11967145 5.45312784 42.16675561 -13.79168701 40.80020142 C-15.47112717 40.68347705 -17.15104414 40.57342026 -18.83135986 40.47006226 C-21.17706652 40.32402026 -23.51974278 40.15365879 -25.86328125 39.9765625 C-26.56043747 39.93792587 -27.25759369 39.89928925 -27.97587585 39.85948181 C-29.90356445 39.69775391 -29.90356445 39.69775391 -33 39 C-33.66 37.68 -34.32 36.36 -35 35 C-23.45 23.45 -11.9 11.9 0 0 Z " fill="#FFFDFC" transform="translate(470,644)"/>
<path d="M0 0 C2.79425088 1.2762525 4.85142126 2.59970977 7.02441406 4.765625 C7.58469299 5.31959961 8.14497192 5.87357422 8.722229 6.44433594 C9.31404968 7.04020508 9.90587036 7.63607422 10.515625 8.25 C11.13145447 8.86391602 11.74728394 9.47783203 12.3817749 10.11035156 C13.67852646 11.40574483 14.97276657 12.70365644 16.26464844 14.00390625 C18.24975202 15.99975068 20.24533591 17.98466726 22.2421875 19.96875 C23.50064211 21.22852555 24.75847654 22.48892101 26.015625 23.75 C26.6155426 24.34586914 27.21546021 24.94173828 27.83355713 25.55566406 C32 29.77006753 32 29.77006753 32 32 C31.4135672 32.12892639 30.8271344 32.25785278 30.22293091 32.39068604 C24.02405558 33.75354182 17.82524332 35.11668421 11.62646484 36.47998047 C9.32439712 36.98623633 7.02231422 37.49242325 4.72021484 37.99853516 C2.48383373 38.49020797 0.24748505 38.98202836 -1.98883057 39.47399902 C-4.19486871 39.95908621 -6.40104508 40.44354523 -8.60736084 40.92736816 C-13.567327 42.01649909 -18.52445422 43.1147183 -23.47363281 44.25195312 C-24.30017365 44.44053894 -25.12671448 44.62912476 -25.978302 44.82342529 C-27.48332627 45.16783763 -28.98739137 45.51648374 -30.49020386 45.87042236 C-34.05938657 46.68448562 -37.33657916 47.18596045 -41 47 C-41.73387146 44.77644348 -41.73387146 44.77644348 -42 42 C-40.52577209 39.804245 -40.52577209 39.804245 -38.25805664 37.5769043 C-37.41710953 36.73641037 -36.57616241 35.89591644 -35.70973206 35.029953 C-34.78587204 34.1370607 -33.86201202 33.2441684 -32.91015625 32.32421875 C-31.97650742 31.3990596 -31.04285858 30.47390045 -30.08091736 29.52070618 C-27.59997428 27.06265918 -25.10154468 24.62315943 -22.59906006 22.18707275 C-20.0480851 19.69750359 -17.51403638 17.19083656 -14.97851562 14.68554688 C-10.00212457 9.77348168 -5.00705378 4.88080028 0 0 Z " fill="#FFFBFA" transform="translate(612,420)"/>
<path d="M0 0 C3.15204981 1.39347376 5.26171773 3.02485079 7.671875 5.4765625 C8.66767578 6.48203125 8.66767578 6.48203125 9.68359375 7.5078125 C10.70646484 8.55582031 10.70646484 8.55582031 11.75 9.625 C12.44738281 10.33140625 13.14476562 11.0378125 13.86328125 11.765625 C15.58012488 13.50598703 17.29211832 15.25084981 19 17 C13.74782245 19.98978918 7.67755895 20.83399839 1.83813477 22.14160156 C-0.29700953 22.62151821 -2.4287338 23.11489878 -4.56054688 23.609375 C-5.93210482 23.92009676 -7.30384431 24.23001846 -8.67578125 24.5390625 C-9.91239502 24.81959473 -11.14900879 25.10012695 -12.4230957 25.38916016 C-16.02191004 26.00374165 -19.35682933 26.10934482 -23 26 C-22.50743514 21.72819857 -20.06985793 19.72580322 -17.08984375 16.796875 C-16.60294571 16.3142218 -16.11604767 15.8315686 -15.61439514 15.33428955 C-14.0623455 13.7989915 -12.50017864 12.27447075 -10.9375 10.75 C-9.88147643 9.7090278 -8.82612962 8.6673686 -7.77148438 7.625 C-5.18878585 5.07532367 -2.59691118 2.53520804 0 0 Z " fill="#FFFBFA" transform="translate(653,461)"/>
<path d="M0 0 C3.48120823 1.42090132 3.84116367 2.00051821 5.4375 5.25 C8.41507212 13.16934098 7.59501576 19.4128241 4.19921875 27.07421875 C2.8045197 29.74379735 1.58699817 31.56700122 -0.9375 33.25 C-3.5625 33.625 -3.5625 33.625 -5.9375 33.25 C-7.9375 31.25 -7.9375 31.25 -8.25 28.5 C-7.9375 25.25 -7.9375 25.25 -6.4375 22.5 C-4.40487002 18.09596838 -4.46854382 14.03876403 -4.9375 9.25 C-5.2675 8.92 -5.5975 8.59 -5.9375 8.25 C-6.23181219 5.4540342 -6.27522308 3.81287181 -4.8125 1.375 C-2.9375 0.25 -2.9375 0.25 0 0 Z " fill="#FF723F" transform="translate(944.9375,217.75)"/>
</svg>
